<?xml version="1.0" encoding="UTF-8" standalone="no"?>
<!-- Created with Inkscape (http://www.inkscape.org/) -->

<svg
   version="1.1"
   id="svg1"
   width="19000"
   height="5426.1797"
   viewBox="0 0 19000 5426.1797"
   sodipodi:docname="extocode-logo_vector_wordmark_white.svg"
   inkscape:version="1.3.2 (091e20ef0f, 2023-11-25, custom)"
   inkscape:export-filename="extocode-logo_vector_wordmark_color.png"
   inkscape:export-xdpi="96"
   inkscape:export-ydpi="96"
   xmlns:inkscape="http://www.inkscape.org/namespaces/inkscape"
   xmlns:sodipodi="http://sodipodi.sourceforge.net/DTD/sodipodi-0.dtd"
   xmlns="http://www.w3.org/2000/svg"
   xmlns:svg="http://www.w3.org/2000/svg">
  <sodipodi:namedview
     id="namedview1"
     pagecolor="#ffffff"
     bordercolor="#000000"
     borderopacity="0.25"
     inkscape:showpageshadow="2"
     inkscape:pageopacity="0.0"
     inkscape:pagecheckerboard="0"
     inkscape:deskcolor="#d1d1d1"
     inkscape:zoom="0.076624589"
     inkscape:cx="12019.64"
     inkscape:cy="2140.3051"
     inkscape:window-width="3440"
     inkscape:window-height="1378"
     inkscape:window-x="0"
     inkscape:window-y="240"
     inkscape:window-maximized="1"
     inkscape:current-layer="svg1" />
  <defs
     id="defs1" />
  <g
     id="g1"
     transform="translate(-342.40399,-246.83345)"
     style="display:inline;fill:#ffffff;fill-opacity:1">
    <g
       id="group-R5"
       style="fill:#ffffff;fill-opacity:1">
      <path
         id="path3"
         d="m 40067.3,18309.7 -3365.1,3365.1 6428.3,-473.6 -2981.2,-2981.2 -82,89.7"
         style="fill:#ffffff;fill-opacity:1;fill-rule:nonzero;stroke:none"
         transform="matrix(0.13333333,0,0,-0.13333333,0,6043.7733)" />
      <path
         id="path4"
         d="m 27241.7,6470 -2974.2,2974.2 487.6,-6618.4 3053.5,3053.5 -566.9,590.7"
         style="fill:#ffffff;fill-opacity:1;fill-rule:nonzero;stroke:none"
         transform="matrix(0.13333333,0,0,-0.13333333,0,6043.7733)" />
      <path
         id="path5"
         d="m 30802.9,19531.3 -2783.1,2783.1 -4562,338 -189.5,-165.7 332.3,-4361.9 2912.4,-2883.4 4289.9,4289.9"
         style="fill:#ffffff;fill-opacity:1;fill-rule:nonzero;stroke:none"
         transform="matrix(0.13333333,0,0,-0.13333333,0,6043.7733)" />
      <path
         id="path6"
         d="m 20156.2,13555.5 -8709.6,8709.6 4021.4,4021.3 3995.2,-4043.2 -327.6,4301 422.6,402.5 4389.7,-361 -4190,3990.6 4021.4,4021.4 8802.3,-8732.6 10217.5,-831.1 -18028.5,18028.6 c -552.6,552.6 -1448.6,552.6 -2001.2,0 L 2982.51,23275.7 c -552.64,-552.6 -552.64,-1448.6 0,-2001.2 L 20908.2,3348.8 l -752,10206.7"
         style="fill:#ffffff;fill-opacity:1;fill-rule:nonzero;stroke:none"
         transform="matrix(0.13333333,0,0,-0.13333333,0,6043.7733)" />
      <path
         id="path7"
         d="m 20902.6,3339.5 c -51.8,0 -95.6,39.9 -99.6,92.4 l -1772.1,23150 490.8,468.1 44.8,-3.7 23169.8,-1917.1 c 55,-4.5 95.9,-52.8 91.4,-107.9 -4.6,-55 -52.8,-96.1 -107.9,-91.4 l -23125,1913.4 -357.3,-340.6 1764.9,-23055.5 c 4.2,-55.1 -37,-103.1 -92.1,-107.4 -2.6,-0.2 -5.2,-0.3 -7.7,-0.3"
         style="fill:#ffffff;fill-opacity:1;fill-rule:nonzero;stroke:none"
         transform="matrix(0.13333333,0,0,-0.13333333,0,6043.7733)" />
      <path
         id="path8"
         d="m 24755.8,2780.7 c -51.8,0 -95.6,39.9 -99.6,92.4 l -1491.4,19655.9 258.6,226.2 19606.1,-1449.8 c 55.1,-4 96.4,-52 92.4,-107.1 -4.1,-55 -52.2,-96.4 -107.1,-92.3 l -19522.6,1443.6 -120.4,-105.3 1483.9,-19556 c 4.1,-55.1 -37.1,-103.2 -92.2,-107.3 -2.6,-0.2 -5.1,-0.3 -7.7,-0.3"
         style="display:inline;fill:#ffffff;fill-opacity:1;fill-rule:nonzero;stroke:none"
         transform="matrix(0.13333333,0,0,-0.13333333,0,6043.7733)" />
    </g>
  </g>
  <rect
     style="fill:#ffffff;stroke-width:0.932601;paint-order:stroke markers fill;fill-opacity:1"
     id="rect1"
     width="86.133942"
     height="3000"
     x="6513.3013"
     y="1175.2166" />
  <text
     xml:space="preserve"
     style="font-style:normal;font-variant:normal;font-weight:300;font-stretch:normal;font-size:2666.67px;font-family:'Noto Sans';-inkscape-font-specification:'Noto Sans, Light';font-variant-ligatures:normal;font-variant-caps:normal;font-variant-numeric:normal;font-variant-east-asian:normal;fill:#ffffff;paint-order:stroke markers fill;fill-opacity:1"
     x="7552.4072"
     y="3438.2371"
     id="text1"
     inkscape:label="text1"><tspan
       sodipodi:role="line"
       id="tspan1"
       x="7552.4072"
       y="3438.2371"
       style="font-style:normal;font-variant:normal;font-weight:300;font-stretch:normal;font-size:2666.67px;font-family:'Noto Sans';-inkscape-font-specification:'Noto Sans, Light';font-variant-ligatures:normal;font-variant-caps:normal;font-variant-numeric:normal;font-variant-east-asian:normal;fill:#ffffff;fill-opacity:1">extocode</tspan></text>
</svg>
