<?xml version="1.0" encoding="UTF-8"?>
<svg version="1.1" xmlns="http://www.w3.org/2000/svg" width="929" height="473">
<path d="M0 0 C3.5742977 0.32493615 5.55712453 0.63870686 8.375 2.9375 C10 5 10 5 10 7 C10.66 7 11.32 7 12 7 C12.495 8.98 12.495 8.98 13 11 C13.66 11 14.32 11 15 11 C15.99 12.485 15.99 12.485 17 14 C17.33 9.38 17.66 4.76 18 0 C25.6503856 -0.83676093 25.6503856 -0.83676093 29.34375 1.453125 C34.68686441 6.06059322 34.68686441 6.06059322 36 10 C36.66 10 37.32 10 38 10 C38.495 12.97 38.495 12.97 39 16 C39.66 16 40.32 16 41 16 C41.495 17.98 41.495 17.98 42 20 C42.66 20 43.32 20 44 20 C44.495 22.97 44.495 22.97 45 26 C45.66 26 46.32 26 47 26 C48.56254482 28.34381722 49.85602784 30.67606264 51 33.25 C51.94279946 35.35137474 51.94279946 35.35137474 55 36 C55 36.99 55 37.98 55 39 C55.66 39 56.32 39 57 39 C57.33 39.99 57.66 40.98 58 42 C58.66 42.33 59.32 42.66 60 43 C60.87981711 45.05581027 61.68031796 47.14593028 62.4375 49.25 C63.65443939 52.62233362 64.7979178 55.66715873 66.66015625 58.734375 C68 61 68 61 68 64 C68.66 64 69.32 64 70 64 C71.1577506 67.47325181 71.06866652 70.36067448 71 74 C71.66 74 72.32 74 73 74 C73 74.99 73 75.98 73 77 C77.29 77 81.58 77 86 77 C86.061875 78.52625 86.12375 80.0525 86.1875 81.625 C86.70088619 87.04237369 88.26114575 89.1676744 92 93 C94.07929488 99.23788464 94.26542637 107.89697123 91.75 114.0625 C88.83913062 118.94860218 86.24846837 122.55885192 81 125 C79.824375 125.103125 78.64875 125.20625 77.4375 125.3125 C73.72491185 125.65916751 73.72491185 125.65916751 71.6875 129.0625 C71.130625 130.031875 70.57375 131.00125 70 132 C69.34 132 68.68 132 68 132 C67.855625 132.61875 67.71125 133.2375 67.5625 133.875 C67 136 67 136 66 138 C65.34 138 64.68 138 64 138 C63.67 139.32 63.34 140.64 63 142 C62.34 142 61.68 142 61 142 C60.67 142.99 60.34 143.98 60 145 C59.34 145 58.68 145 58 145 C57.67 145.99 57.34 146.98 57 148 C56.34 148 55.68 148 55 148 C54.67 148.99 54.34 149.98 54 151 C49.54285714 155 49.54285714 155 47 155 C47 155.66 47 156.32 47 157 C42.64705882 161 42.64705882 161 39 161 C38.67 161.99 38.34 162.98 38 164 C35.33916031 165.99396257 32.38757675 168 29 168 C29 168.66 29 169.32 29 170 C22.375 174 22.375 174 19 174 C19 174.66 19 175.32 19 176 C17.02 176.33 15.04 176.66 13 177 C13 177.66 13 178.32 13 179 C10.69 179.33 8.38 179.66 6 180 C6 180.66 6 181.32 6 182 C1.41882911 183.52705696 -3.13757729 183.34832783 -7.9375 183.4375 C-8.93974609 183.48326172 -9.94199219 183.52902344 -10.97460938 183.57617188 C-13.77422244 183.61912791 -16.26184474 183.59126084 -19 183 C-21.59375 180.07421875 -21.59375 180.07421875 -23 177 C-23.98020375 175.9805881 -24.97803008 174.97753644 -26 174 C-29 170.33333333 -29 170.33333333 -29 168 C-33.33273814 167.07155611 -36.66726186 167.07155611 -41 168 C-41 168.66 -41 169.32 -41 170 C-46.28305817 171.69057861 -51.67099269 171.29188056 -57 170 C-57 169.34 -57 168.68 -57 168 C-58.03125 167.9175 -59.0625 167.835 -60.125 167.75 C-65.56454849 166.69718416 -68.64307794 164.46404749 -72.375 160.4375 C-74 158 -74 158 -74 155 C-74.99 154.67 -75.98 154.34 -77 154 C-77 153.01 -77 152.02 -77 151 C-77.66 151 -78.32 151 -79 151 C-80.28326122 147.15021634 -80.1450798 143.50926659 -80.125 139.5 C-80.12886719 138.72785156 -80.13273437 137.95570313 -80.13671875 137.16015625 C-80.13099051 133.85496263 -80.05207501 131.15622502 -79 128 C-78.34 128 -77.68 128 -77 128 C-76.896875 127.154375 -76.79375 126.30875 -76.6875 125.4375 C-75.9171146 121.58557299 -74.63725486 118.55924969 -73 115 C-72.34 115 -71.68 115 -71 115 C-70.67 113.02 -70.34 111.04 -70 109 C-69.34 109 -68.68 109 -68 109 C-67.731875 108.13375 -67.46375 107.2675 -67.1875 106.375 C-66.02888013 103.08208036 -64.61790161 100.08872125 -63 97 C-62.34 97 -61.68 97 -61 97 C-60.67 95.68 -60.34 94.36 -60 93 C-59.34 93 -58.68 93 -58 93 C-57.71125 92.236875 -57.4225 91.47375 -57.125 90.6875 C-56 88 -56 88 -54 85 C-53.34 85 -52.68 85 -52 85 C-51.9175 84.4225 -51.835 83.845 -51.75 83.25 C-50.78202213 80.3460664 -49.31305716 78.96259396 -47 77 C-46.34 77 -45.68 77 -45 77 C-44.89558594 76.40703125 -44.79117188 75.8140625 -44.68359375 75.203125 C-43.8994359 72.67589628 -42.94945476 71.5769782 -41.0625 69.75 C-40.53785156 69.22921875 -40.01320312 68.7084375 -39.47265625 68.171875 C-38 67 -38 67 -36 67 C-35.505 65.515 -35.505 65.515 -35 64 C-34.34 64 -33.68 64 -33 64 C-32.79375 63.443125 -32.5875 62.88625 -32.375 62.3125 C-30.42316968 59.02987629 -28.05769006 57.29326754 -25 55 C-24.34 55 -23.68 55 -23 55 C-22.67 54.01 -22.34 53.02 -22 52 C-17.54285714 48 -17.54285714 48 -15 48 C-15 47.34 -15 46.68 -15 46 C-9.58823529 42 -9.58823529 42 -7 42 C-6.67 41.01 -6.34 40.02 -6 39 C-5.34 39 -4.68 39 -4 39 C-3.67 32.4 -3.34 25.8 -3 19 C-2.34 19 -1.68 19 -1 19 C-1.01160156 18.21496094 -1.02320313 17.42992187 -1.03515625 16.62109375 C-1.08375507 10.96280225 -1.01294749 5.57121122 0 0 Z " fill="#FFFFFF" transform="translate(149,118)"/>
<path d="M0 0 C6.93 0 13.86 0 21 0 C21 0.66 21 1.32 21 2 C23.97 2 26.94 2 30 2 C30 6.62 30 11.24 30 16 C20.76 16 11.52 16 2 16 C1.67 16.99 1.34 17.98 1 19 C0.34 19 -0.32 19 -1 19 C-2.24694968 30.5120176 -2.08457584 41.47638167 -1 53 C4.28 53 9.56 53 15 53 C14.98839844 51.44667969 14.97679687 49.89335937 14.96484375 48.29296875 C14.95546516 46.2578137 14.94636503 44.22265735 14.9375 42.1875 C14.92912109 41.16333984 14.92074219 40.13917969 14.91210938 39.08398438 C14.90888672 38.10107422 14.90566406 37.11816406 14.90234375 36.10546875 C14.89710693 35.19949951 14.89187012 34.29353027 14.88647461 33.36010742 C15 31 15 31 16 28 C21.61 28 27.22 28 33 28 C33 41.53 33 55.06 33 69 C28.38 69 23.76 69 19 69 C18.34 68.01 17.68 67.02 17 66 C16.2575 66.474375 15.515 66.94875 14.75 67.4375 C10.16114766 70.04480247 6.32429748 70.15942211 1.0625 70.1875 C-0.74541016 70.20876953 -0.74541016 70.20876953 -2.58984375 70.23046875 C-7.3493877 69.90880427 -10.01741283 68.84221758 -13.625 65.75 C-17.72629872 61.0011278 -19.45098839 57.31383742 -19 51 C-19.66 51 -20.32 51 -21 51 C-21.04969106 46.83741853 -21.08585642 42.67499739 -21.10986328 38.51220703 C-21.11987856 37.09811391 -21.13349474 35.68404127 -21.15087891 34.27001953 C-21.17532559 32.22944054 -21.18652784 30.18913697 -21.1953125 28.1484375 C-21.20578613 26.92302246 -21.21625977 25.69760742 -21.22705078 24.43505859 C-20.9962007 20.94252026 -20.24594271 18.25514979 -19 15 C-18.731875 14.154375 -18.46375 13.30875 -18.1875 12.4375 C-16.64388563 9.26902839 -14.60337173 7.35543156 -12 5 C-11.1028125 4.1028125 -11.1028125 4.1028125 -10.1875 3.1875 C-6.7951681 1.34594839 -3.82214982 1.80889251 0 2 C0 1.34 0 0.68 0 0 Z " fill="#FFFFFF" transform="translate(304,174)"/>
<path d="M0 0 C1.12535156 0.00580078 1.12535156 0.00580078 2.2734375 0.01171875 C3.02367187 0.00785156 3.77390625 0.00398437 4.546875 0 C10.14682697 0.01010822 10.14682697 0.01010822 11.2734375 1.13671875 C11.42998777 2.62310867 11.52410693 4.11621002 11.58984375 5.609375 C11.63173828 6.50849609 11.67363281 7.40761719 11.71679688 8.33398438 C11.75611328 9.27951172 11.79542969 10.22503906 11.8359375 11.19921875 C11.87912109 12.14861328 11.92230469 13.09800781 11.96679688 14.07617188 C12.07323026 16.42953228 12.17524758 18.78300229 12.2734375 21.13671875 C12.84868164 20.81074707 13.42392578 20.48477539 14.01660156 20.14892578 C16.38571733 19.08636044 17.81368229 18.90248003 20.3828125 18.94140625 C21.13691406 18.94785156 21.89101563 18.95429688 22.66796875 18.9609375 C23.83392578 18.98607422 23.83392578 18.98607422 25.0234375 19.01171875 C26.21259766 19.02525391 26.21259766 19.02525391 27.42578125 19.0390625 C29.37513031 19.06254863 31.32432325 19.09841738 33.2734375 19.13671875 C33.2734375 19.79671875 33.2734375 20.45671875 33.2734375 21.13671875 C33.88832031 21.22695312 34.50320313 21.3171875 35.13671875 21.41015625 C37.2734375 22.13671875 37.2734375 22.13671875 38.50390625 23.73828125 C40.63305476 28.23990952 41.76195352 32.12417575 42.2734375 37.13671875 C42.6034375 37.46671875 42.9334375 37.79671875 43.2734375 38.13671875 C43.95356778 48.16468615 42.96986842 57.55970703 36.2734375 65.51171875 C34.2734375 67.13671875 34.2734375 67.13671875 31.2734375 67.13671875 C31.2734375 67.79671875 31.2734375 68.45671875 31.2734375 69.13671875 C26.50289987 70.08182526 21.87008633 70.29206789 17.0234375 70.26171875 C16.27779541 70.25978516 15.53215332 70.25785156 14.76391602 70.25585938 C9.21320813 70.21253678 3.78383235 69.83645143 -1.7265625 69.13671875 C-1.7265625 68.47671875 -1.7265625 67.81671875 -1.7265625 67.13671875 C-3.3765625 67.13671875 -5.0265625 67.13671875 -6.7265625 67.13671875 C-6.74968885 58.54866155 -6.76747908 49.96061726 -6.77837467 41.37253666 C-6.78360286 37.38514675 -6.79069934 33.39777808 -6.80200195 29.41040039 C-6.81283311 25.56546761 -6.81883982 21.7205553 -6.82143974 17.87560844 C-6.82329358 16.40552892 -6.82691341 14.93545057 -6.83229256 13.46537971 C-6.83950605 11.41317408 -6.84055331 9.36105408 -6.84008789 7.30883789 C-6.8423085 6.13857559 -6.84452911 4.96831329 -6.84681702 3.7625885 C-6.62620192 -1.05474821 -4.25581513 0.00768198 0 0 Z M11.2734375 35.13671875 C11.2734375 42.06671875 11.2734375 48.99671875 11.2734375 56.13671875 C15.2334375 56.13671875 19.1934375 56.13671875 23.2734375 56.13671875 C24.43925668 53.80508039 24.40249359 52.41518393 24.40625 49.8203125 C24.40753906 48.97404297 24.40882813 48.12777344 24.41015625 47.25585938 C24.40628906 46.37091797 24.40242187 45.48597656 24.3984375 44.57421875 C24.40230469 43.68541016 24.40617188 42.79660156 24.41015625 41.88085938 C24.40886719 41.03587891 24.40757812 40.19089844 24.40625 39.3203125 C24.40512207 38.54228271 24.40399414 37.76425293 24.40283203 36.96264648 C24.47250351 35.11733339 24.47250351 35.11733339 23.2734375 34.13671875 C21.8178438 34.03813272 20.35735831 34.00699732 18.8984375 34.01171875 C17.71121094 34.00785156 17.71121094 34.00785156 16.5 34.00390625 C14.10000254 34.05054209 14.10000254 34.05054209 11.2734375 35.13671875 Z " fill="#FFFFFF" transform="translate(548.7265625,173.86328125)"/>
<path d="M0 0 C8.58 0 17.16 0 26 0 C26 0.66 26 1.32 26 2 C27.32 2.33 28.64 2.66 30 3 C30 3.66 30 4.32 30 5 C30.99 5.33 31.98 5.66 33 6 C33 6.66 33 7.32 33 8 C33.66 8 34.32 8 35 8 C36.53266582 11.06533164 36.10276471 14.26754272 36.0625 17.625 C36.05798828 18.33140625 36.05347656 19.0378125 36.04882812 19.765625 C36.03703875 21.51045275 36.01910324 23.255237 36 25 C35.01 25.33 34.02 25.66 33 26 C32.505 27.485 32.505 27.485 32 29 C31.34 29 30.68 29 30 29 C30 29.66 30 30.32 30 31 C27.0751367 31.84191782 24.49258344 32.11819313 21.453125 32.09765625 C20.60878906 32.09443359 19.76445312 32.09121094 18.89453125 32.08789062 C17.58548828 32.07532227 17.58548828 32.07532227 16.25 32.0625 C15.36183594 32.05798828 14.47367187 32.05347656 13.55859375 32.04882812 C11.37232671 32.037074 9.18619821 32.02064249 7 32 C7 32.99 7 33.98 7 35 C7.99 35 8.98 35 10 35 C10 35.66 10 36.32 10 37 C12.64624284 36.85978195 15.29184578 36.71310224 17.9375 36.5625 C18.69224609 36.52318359 19.44699219 36.48386719 20.22460938 36.44335938 C23.91944187 36.55961976 23.91944187 36.55961976 27 35 C28.99958364 34.95919217 31.00045254 34.95745644 33 35 C33 35.99 33 36.98 33 38 C33.66 38 34.32 38 35 38 C35 41.3 35 44.6 35 48 C28.27843395 51.36078302 21.25295814 51.16232525 13.875 51.125 C13.10285156 51.12886719 12.33070313 51.13273437 11.53515625 51.13671875 C7.24541548 51.12941084 3.22437713 50.85027399 -1 50 C-1 49.34 -1 48.68 -1 48 C-1.7425 47.95875 -2.485 47.9175 -3.25 47.875 C-7.16823889 46.62828763 -8.1165739 44.55758263 -10 41 C-10 39.68 -10 38.36 -10 37 C-10.66 37 -11.32 37 -12 37 C-12.08756305 33.29181703 -12.14058015 29.58390237 -12.1875 25.875 C-12.21263672 24.82828125 -12.23777344 23.7815625 -12.26367188 22.703125 C-12.31833491 16.94528536 -12.20676341 12.86485368 -9 8 C-8.34 8 -7.68 8 -7 8 C-6.773125 7.195625 -6.54625 6.39125 -6.3125 5.5625 C-5.879375 4.716875 -5.44625 3.87125 -5 3 C-2.375 2.1875 -2.375 2.1875 0 2 C0 1.34 0 0.68 0 0 Z M8 13 C7.34 14.98 6.68 16.96 6 19 C10.29 19 14.58 19 19 19 C18.5547002 14.36980013 18.5547002 14.36980013 17 13 C15.48071962 12.92820036 13.95832518 12.91607993 12.4375 12.9375 C11.19806641 12.95103516 11.19806641 12.95103516 9.93359375 12.96484375 C8.97646484 12.98224609 8.97646484 12.98224609 8 13 Z " fill="#FFFFFF" transform="translate(445,193)"/>
<path d="M0 0 C1.06992187 0.00644531 2.13984375 0.01289063 3.2421875 0.01953125 C4.35335938 0.03628906 5.46453125 0.05304688 6.609375 0.0703125 C7.73601562 0.07933594 8.86265625 0.08835938 10.0234375 0.09765625 C12.80229865 0.12120592 15.5807289 0.1540957 18.359375 0.1953125 C18.359375 0.8553125 18.359375 1.5153125 18.359375 2.1953125 C20.339375 2.5253125 22.319375 2.8553125 24.359375 3.1953125 C24.359375 3.8553125 24.359375 4.5153125 24.359375 5.1953125 C25.349375 5.5253125 26.339375 5.8553125 27.359375 6.1953125 C27.359375 7.1853125 27.359375 8.1753125 27.359375 9.1953125 C28.019375 9.1953125 28.679375 9.1953125 29.359375 9.1953125 C29.359375 14.4753125 29.359375 19.7553125 29.359375 25.1953125 C28.699375 25.1953125 28.039375 25.1953125 27.359375 25.1953125 C27.029375 26.5153125 26.699375 27.8353125 26.359375 29.1953125 C25.369375 29.1953125 24.379375 29.1953125 23.359375 29.1953125 C23.359375 29.8553125 23.359375 30.5153125 23.359375 31.1953125 C20.47672351 32.15619633 18.68275229 32.31202191 15.69140625 32.29296875 C14.79873047 32.28974609 13.90605469 32.28652344 12.98632812 32.28320312 C11.59317383 32.27063477 11.59317383 32.27063477 10.171875 32.2578125 C9.23150391 32.25330078 8.29113281 32.24878906 7.32226562 32.24414062 C5.00123788 32.23235876 2.68033856 32.21590808 0.359375 32.1953125 C1.88079115 34.33605869 1.88079115 34.33605869 4.359375 36.1953125 C7.08026118 36.51386953 9.34984674 36.62328945 12.046875 36.5078125 C12.73587891 36.49814453 13.42488281 36.48847656 14.13476562 36.47851562 C17.53617316 36.67184721 17.53617316 36.67184721 20.359375 35.1953125 C22.35895864 35.15450467 24.35982754 35.15276894 26.359375 35.1953125 C26.86497408 36.63085275 27.3636499 38.0688327 27.859375 39.5078125 C28.1378125 40.30832031 28.41625 41.10882813 28.703125 41.93359375 C29.359375 44.1953125 29.359375 44.1953125 29.359375 47.1953125 C26.884375 47.6903125 26.884375 47.6903125 24.359375 48.1953125 C24.359375 48.8553125 24.359375 49.5153125 24.359375 50.1953125 C18.79887375 51.13827772 13.43104316 51.34686789 7.796875 51.3203125 C6.97251953 51.32417969 6.14816406 51.32804687 5.29882812 51.33203125 C0.87236843 51.32495458 -3.28349307 51.08509957 -7.640625 50.1953125 C-7.640625 49.5353125 -7.640625 48.8753125 -7.640625 48.1953125 C-8.506875 48.1025 -8.506875 48.1025 -9.390625 48.0078125 C-13.58892992 46.49175794 -15.24192717 42.95099525 -17.24609375 39.15234375 C-19.18578736 34.50634184 -19.00730997 29.97056997 -18.890625 25.0078125 C-18.88546875 24.11900391 -18.8803125 23.23019531 -18.875 22.31445312 C-18.82830269 18.42982049 -18.70605432 14.95047046 -17.640625 11.1953125 C-16.980625 11.1953125 -16.320625 11.1953125 -15.640625 11.1953125 C-15.5478125 10.0815625 -15.5478125 10.0815625 -15.453125 8.9453125 C-14.2211677 4.77561085 -11.42230502 3.27591725 -7.82519531 1.09423828 C-5.08892094 -0.03170743 -2.95502059 -0.03143639 0 0 Z M1.359375 13.1953125 C1.029375 15.1753125 0.699375 17.1553125 0.359375 19.1953125 C4.649375 19.1953125 8.939375 19.1953125 13.359375 19.1953125 C12.57630546 15.44839803 12.57630546 15.44839803 11.359375 13.1953125 C8.059375 13.1953125 4.759375 13.1953125 1.359375 13.1953125 Z " fill="#FFFFFF" transform="translate(399.640625,192.8046875)"/>
<path d="M0 0 C1.11181641 0.00966797 2.22363281 0.01933594 3.36914062 0.02929688 C4.51962891 0.05443359 5.67011719 0.07957031 6.85546875 0.10546875 C8.02529297 0.11900391 9.19511719 0.13253906 10.40039062 0.14648438 C13.28172075 0.18176597 16.16210779 0.23106595 19.04296875 0.29296875 C19.04296875 0.95296875 19.04296875 1.61296875 19.04296875 2.29296875 C21.02296875 2.62296875 23.00296875 2.95296875 25.04296875 3.29296875 C25.04296875 3.95296875 25.04296875 4.61296875 25.04296875 5.29296875 C26.03296875 5.62296875 27.02296875 5.95296875 28.04296875 6.29296875 C28.04296875 7.28296875 28.04296875 8.27296875 28.04296875 9.29296875 C28.70296875 9.29296875 29.36296875 9.29296875 30.04296875 9.29296875 C30.04296875 14.57296875 30.04296875 19.85296875 30.04296875 25.29296875 C29.38296875 25.29296875 28.72296875 25.29296875 28.04296875 25.29296875 C28.04296875 26.28296875 28.04296875 27.27296875 28.04296875 28.29296875 C26.72296875 28.62296875 25.40296875 28.95296875 24.04296875 29.29296875 C24.04296875 29.95296875 24.04296875 30.61296875 24.04296875 31.29296875 C21.0459018 32.16259962 18.39340349 32.41059974 15.27734375 32.390625 C14.38789062 32.38740234 13.4984375 32.38417969 12.58203125 32.38085938 C11.20144531 32.36829102 11.20144531 32.36829102 9.79296875 32.35546875 C8.38917969 32.34870117 8.38917969 32.34870117 6.95703125 32.34179688 C4.65227834 32.33003793 2.34765648 32.31360301 0.04296875 32.29296875 C0.04296875 32.95296875 0.04296875 33.61296875 0.04296875 34.29296875 C3.86927346 36.83379576 7.81294709 36.55507578 12.23046875 36.48046875 C12.96716797 36.47982422 13.70386719 36.47917969 14.46289062 36.47851562 C18.0494075 36.7718293 18.0494075 36.7718293 21.04296875 35.29296875 C23.48046875 35.10546875 23.48046875 35.10546875 26.04296875 35.29296875 C28.04296875 37.29296875 28.04296875 37.29296875 28.16796875 40.41796875 C28.12671875 41.36671875 28.08546875 42.31546875 28.04296875 43.29296875 C28.70296875 43.29296875 29.36296875 43.29296875 30.04296875 43.29296875 C29.71296875 44.94296875 29.38296875 46.59296875 29.04296875 48.29296875 C27.72296875 48.29296875 26.40296875 48.29296875 25.04296875 48.29296875 C25.04296875 48.95296875 25.04296875 49.61296875 25.04296875 50.29296875 C19.4824675 51.23593397 14.11463691 51.44452414 8.48046875 51.41796875 C7.65611328 51.42183594 6.83175781 51.42570312 5.98242188 51.4296875 C1.55596218 51.42261083 -2.59989932 51.18275582 -6.95703125 50.29296875 C-6.95703125 49.63296875 -6.95703125 48.97296875 -6.95703125 48.29296875 C-8.27703125 47.96296875 -9.59703125 47.63296875 -10.95703125 47.29296875 C-10.95703125 46.63296875 -10.95703125 45.97296875 -10.95703125 45.29296875 C-11.94703125 44.96296875 -12.93703125 44.63296875 -13.95703125 44.29296875 C-18.22870006 38.21405544 -18.16535521 32.66437668 -18.20703125 25.48046875 C-18.22765625 24.60326172 -18.24828125 23.72605469 -18.26953125 22.82226562 C-18.31200745 15.72343147 -16.93371304 11.25799143 -12.95703125 5.29296875 C-12.29703125 5.29296875 -11.63703125 5.29296875 -10.95703125 5.29296875 C-10.95703125 4.63296875 -10.95703125 3.97296875 -10.95703125 3.29296875 C-7.25941105 0.50076697 -4.57766828 -0.07042567 0 0 Z M2.04296875 13.29296875 C2.04296875 13.95296875 2.04296875 14.61296875 2.04296875 15.29296875 C1.38296875 15.29296875 0.72296875 15.29296875 0.04296875 15.29296875 C-0.28703125 16.61296875 -0.61703125 17.93296875 -0.95703125 19.29296875 C3.99296875 19.29296875 8.94296875 19.29296875 14.04296875 19.29296875 C14.04296875 17.97296875 14.04296875 16.65296875 14.04296875 15.29296875 C13.38296875 15.29296875 12.72296875 15.29296875 12.04296875 15.29296875 C12.04296875 14.63296875 12.04296875 13.97296875 12.04296875 13.29296875 C8.74296875 13.29296875 5.44296875 13.29296875 2.04296875 13.29296875 Z " fill="#FFFFFF" transform="translate(723.95703125,192.70703125)"/>
<path d="M0 0 C4.04142215 -0.11662261 8.08240865 -0.1873935 12.125 -0.25 C13.26710938 -0.28351563 14.40921875 -0.31703125 15.5859375 -0.3515625 C26.19602501 -0.47493561 26.19602501 -0.47493561 31 4 C32.375 6.25 32.375 6.25 33 8 C33.66 8 34.32 8 35 8 C38.05806928 13.91334882 38.48913086 18.83344321 38.4375 25.4375 C38.4674707 26.79198242 38.4674707 26.79198242 38.49804688 28.17382812 C38.49273716 35.50654937 36.76761262 40.81305214 31.9375 46.375 C25.83049442 51.49700468 20.04036173 51.1597427 12.4375 51.125 C11.58736328 51.12886719 10.73722656 51.13273437 9.86132812 51.13671875 C9.03955078 51.13542969 8.21777344 51.13414062 7.37109375 51.1328125 C6.62786865 51.13168457 5.88464355 51.13055664 5.11889648 51.12939453 C2.96727379 50.99800151 1.06920646 50.58919579 -1 50 C-1 49.34 -1 48.68 -1 48 C-2.11375 47.9071875 -2.11375 47.9071875 -3.25 47.8125 C-7.39302192 46.58842534 -8.80284031 43.84816989 -11.0703125 40.34765625 C-12.43713888 36.89613249 -12.51216584 33.41607782 -12.6875 29.75 C-12.73455078 29.02425781 -12.78160156 28.29851562 -12.83007812 27.55078125 C-13.30449399 18.82464034 -12.51964611 12.04119078 -7 5 C-4.32273404 2.48022027 -3.70908301 2 0 2 C0 1.34 0 0.68 0 0 Z M9 13 C9 13.66 9 14.32 9 15 C8.01 15.33 7.02 15.66 6 16 C5.9730499 18.93756119 5.95318526 21.87487555 5.9375 24.8125 C5.92912109 25.64587891 5.92074219 26.47925781 5.91210938 27.33789062 C5.90888672 28.14033203 5.90566406 28.94277344 5.90234375 29.76953125 C5.89710693 30.50792236 5.89187012 31.24631348 5.88647461 32.00708008 C5.92476787 34.21057409 5.92476787 34.21057409 7 37 C8.62463842 37.05395478 10.24978541 37.09277195 11.875 37.125 C12.77992188 37.14820313 13.68484375 37.17140625 14.6171875 37.1953125 C17.18806994 37.24324836 17.18806994 37.24324836 19 35 C20.93230217 28.62340285 20.32020139 21.4359818 19 15 C18.01 15 17.02 15 16 15 C16 14.34 16 13.68 16 13 C13.69 13 11.38 13 9 13 Z " fill="#FFFFFF" transform="translate(608,193)"/>
<path d="M0 0 C1.79244141 0.01740234 1.79244141 0.01740234 3.62109375 0.03515625 C5.41740234 0.04869141 5.41740234 0.04869141 7.25 0.0625 C8.17683594 0.07410156 9.10367188 0.08570313 10.05859375 0.09765625 C10.38859375 1.74765625 10.71859375 3.39765625 11.05859375 5.09765625 C12.37859375 5.09765625 13.69859375 5.09765625 15.05859375 5.09765625 C15.38859375 4.10765625 15.71859375 3.11765625 16.05859375 2.09765625 C20.35915506 -0.3633586 24.79882106 -0.30259014 29.62109375 -0.33984375 C30.75321289 -0.38915039 30.75321289 -0.38915039 31.90820312 -0.43945312 C35.8204671 -0.47736934 37.60961466 -0.33964209 40.4609375 2.4375 C40.98816406 3.31535156 41.51539063 4.19320312 42.05859375 5.09765625 C42.71859375 6.08765625 43.37859375 7.07765625 44.05859375 8.09765625 C44.29910278 10.05290222 44.29910278 10.05290222 44.28564453 12.29370117 C44.28549347 13.13434616 44.28534241 13.97499115 44.28518677 14.84111023 C44.2748642 15.7443251 44.26454163 16.64753998 44.25390625 17.578125 C44.25107635 18.50611404 44.24824646 19.43410309 44.24533081 20.39021301 C44.23413211 23.35532504 44.2090281 26.32013546 44.18359375 29.28515625 C44.17356355 31.29491751 44.16443777 33.30468351 44.15625 35.31445312 C44.13419379 40.24230378 44.09966604 45.16992887 44.05859375 50.09765625 C41.24603094 50.12449937 38.43372134 50.14441813 35.62109375 50.16015625 C34.41743164 50.17272461 34.41743164 50.17272461 33.18945312 50.18554688 C31.14564154 50.19417055 29.10175473 50.14993775 27.05859375 50.09765625 C26.05859375 49.09765625 26.05859375 49.09765625 25.94506836 45.86303711 C25.94522744 44.42951499 25.95091968 42.99598713 25.9609375 41.5625 C25.96235245 40.80924942 25.9637674 40.05599884 25.96522522 39.27992249 C25.97083999 36.86496065 25.98339492 34.45009024 25.99609375 32.03515625 C26.00110685 30.40169404 26.00567009 28.76823039 26.00976562 27.13476562 C26.02081421 23.1223604 26.03808869 19.11002384 26.05859375 15.09765625 C22.75859375 15.42765625 19.45859375 15.75765625 16.05859375 16.09765625 C16.05859375 16.75765625 16.05859375 17.41765625 16.05859375 18.09765625 C15.06859375 18.09765625 14.07859375 18.09765625 13.05859375 18.09765625 C13.05859375 28.65765625 13.05859375 39.21765625 13.05859375 50.09765625 C7.44859375 50.09765625 1.83859375 50.09765625 -3.94140625 50.09765625 C-3.96604826 43.13761659 -3.98423847 36.17760209 -3.99633789 29.2175293 C-4.00137966 26.84773313 -4.0082129 24.4779401 -4.0168457 22.1081543 C-4.02891815 18.71011586 -4.03463596 15.3121184 -4.0390625 11.9140625 C-4.04422379 10.8474086 -4.04938507 9.7807547 -4.05470276 8.68177795 C-4.05477829 7.70083664 -4.05485382 6.71989532 -4.05493164 5.70922852 C-4.05715225 4.84096939 -4.05937286 3.97271027 -4.06166077 3.07814026 C-3.86522817 -0.15692835 -3.29375967 0.10935457 0 0 Z " fill="#FFFFFF" transform="translate(655.94140625,192.90234375)"/>
<path d="M0 0 C1.06992187 -0.04898438 2.13984375 -0.09796875 3.2421875 -0.1484375 C6.125 0.375 6.125 0.375 7.8828125 2.8984375 C8.29273438 3.71570313 8.70265625 4.53296875 9.125 5.375 C9.785 5.375 10.445 5.375 11.125 5.375 C11.125 4.715 11.125 4.055 11.125 3.375 C16.27255093 0.24206565 20.17750622 -0.00493835 26 0.1875 C26.78375 0.20103516 27.5675 0.21457031 28.375 0.22851562 C30.29196782 0.26358211 32.20857751 0.31737928 34.125 0.375 C34.125 1.035 34.125 1.695 34.125 2.375 C35.445 2.705 36.765 3.035 38.125 3.375 C38.125 4.035 38.125 4.695 38.125 5.375 C38.785 5.375 39.445 5.375 40.125 5.375 C41.04361784 8.13085352 41.24704322 9.7346069 41.23852539 12.57104492 C41.23844986 13.41168991 41.23837433 14.2523349 41.23829651 15.11845398 C41.23313522 16.02166885 41.22797394 16.92488373 41.22265625 17.85546875 C41.2212413 18.78345779 41.21982635 19.71144684 41.21836853 20.66755676 C41.21276937 23.63257058 41.20021704 26.59750899 41.1875 29.5625 C41.18248489 31.57226453 41.177922 33.58203025 41.17382812 35.59179688 C41.16280021 40.51956032 41.14553617 45.44726737 41.125 50.375 C35.515 50.375 29.905 50.375 24.125 50.375 C24.125 38.825 24.125 27.275 24.125 15.375 C20.495 15.705 16.865 16.035 13.125 16.375 C13.125 17.035 13.125 17.695 13.125 18.375 C12.135 18.375 11.145 18.375 10.125 18.375 C10.125 28.935 10.125 39.495 10.125 50.375 C4.515 50.375 -1.095 50.375 -6.875 50.375 C-6.89964201 43.41496034 -6.91783222 36.45494584 -6.92993164 29.49487305 C-6.93497341 27.12507688 -6.94180665 24.75528385 -6.95043945 22.38549805 C-6.9625119 18.98745961 -6.96822971 15.58946215 -6.97265625 12.19140625 C-6.97781754 11.12475235 -6.98297882 10.05809845 -6.98829651 8.9591217 C-6.98837204 7.97818039 -6.98844757 6.99723907 -6.98852539 5.98657227 C-6.990746 5.11831314 -6.99296661 4.25005402 -6.99525452 3.35548401 C-6.74099024 -0.83202054 -3.53296765 0.11014048 0 0 Z " fill="#FFFFFF" transform="translate(493.875,192.625)"/>
<path d="M0 0 C0.042721 1.66611905 0.04063832 3.33382885 0 5 C-0.33 5.33 -0.66 5.66 -1 6 C-1.23287008 7.68183948 -1.41264166 9.3712416 -1.5625 11.0625 C-1.706875 12.691875 -1.85125 14.32125 -2 16 C-6.29 16 -10.58 16 -15 16 C-15 16.66 -15 17.32 -15 18 C-16.32 18 -17.64 18 -19 18 C-18.99214478 19.40076782 -18.99214478 19.40076782 -18.98413086 20.82983398 C-18.9671238 24.28312796 -18.95456698 27.73637767 -18.94506836 31.18969727 C-18.94002879 32.68644918 -18.93319713 34.18319616 -18.92456055 35.67993164 C-18.91247841 37.82699807 -18.90676809 39.97399962 -18.90234375 42.12109375 C-18.89448853 44.06133423 -18.89448853 44.06133423 -18.88647461 46.04077148 C-19 49 -19 49 -20 50 C-22.86267567 50.07325168 -25.700719 50.09238205 -28.5625 50.0625 C-29.36880859 50.05798828 -30.17511719 50.05347656 -31.00585938 50.04882812 C-33.00393756 50.03700518 -35.00197783 50.01906914 -37 50 C-37.02526838 43.03996553 -37.04283222 36.0799428 -37.05493164 29.11987305 C-37.05997341 26.75007688 -37.06680665 24.38028385 -37.07543945 22.01049805 C-37.0875119 18.61245961 -37.09322971 15.21446215 -37.09765625 11.81640625 C-37.10281754 10.74975235 -37.10797882 9.68309845 -37.11329651 8.5841217 C-37.11337204 7.60318039 -37.11344757 6.62223907 -37.11352539 5.61157227 C-37.115746 4.74331314 -37.11796661 3.87505402 -37.12025452 2.98048401 C-37 1 -37 1 -36 0 C-33.98035801 -0.07244053 -31.95832876 -0.08377188 -29.9375 -0.0625 C-28.28041016 -0.04896484 -28.28041016 -0.04896484 -26.58984375 -0.03515625 C-25.73519531 -0.02355469 -24.88054687 -0.01195312 -24 0 C-24 0.66 -24 1.32 -24 2 C-23.34 2 -22.68 2 -22 2 C-22 2.99 -22 3.98 -22 5 C-21.01 5 -20.02 5 -19 5 C-19 4.34 -19 3.68 -19 3 C-17.02 2.67 -15.04 2.34 -13 2 C-13 1.34 -13 0.68 -13 0 C-8.34462607 -0.83796731 -4.62921525 -1.0161692 0 0 Z " fill="#FFFFFF" transform="translate(381,193)"/>
</svg>
