<?xml version="1.0" standalone="no"?>
<!DOCTYPE svg PUBLIC "-//W3C//DTD SVG 20010904//EN"
 "http://www.w3.org/TR/2001/REC-SVG-20010904/DTD/svg10.dtd">
<svg version="1.0" xmlns="http://www.w3.org/2000/svg"
 width="395.000000pt" height="120.000000pt" viewBox="0 0 395.000000 120.000000"
 preserveAspectRatio="xMidYMid meet">

<g transform="translate(0.000000,120.000000) scale(0.100000,-0.100000)"
fill="#000000" stroke="none">
<path d="M1575 1184 c-33 -7 -93 -16 -132 -20 -61 -6 -73 -10 -73 -25 0 -13
10 -20 35 -25 53 -10 60 -25 60 -138 l0 -101 -72 -6 c-49 -5 -93 -17 -135 -36
-116 -54 -160 -120 -166 -246 -4 -72 -2 -84 27 -142 35 -70 65 -97 127 -114
46 -12 107 1 170 38 48 28 54 27 54 -14 0 -41 9 -43 110 -19 103 24 128 35
133 60 3 20 -1 23 -32 26 l-36 3 0 388 c0 213 -2 386 -5 386 -3 -1 -32 -8 -65
-15z m-136 -398 c25 -26 26 -30 29 -177 3 -106 0 -154 -8 -165 -18 -20 -80
-17 -118 6 -91 56 -111 296 -29 356 31 22 93 12 126 -20z"/>
<path d="M110 1092 c-40 -19 -48 -48 -29 -94 14 -35 40 -47 92 -40 30 3 43 12
58 36 52 86 -23 147 -121 98z"/>
<path d="M3090 1097 c-31 -11 -35 -16 -38 -53 -5 -62 22 -89 84 -86 60 2 83
27 84 89 0 32 -5 45 -19 53 -25 13 -67 12 -111 -3z"/>
<path d="M556 864 c-21 -8 -69 -20 -105 -27 -55 -11 -67 -17 -69 -35 -2 -14 2
-22 11 -22 8 0 21 -8 30 -18 14 -16 17 -44 17 -183 0 -90 -4 -169 -8 -176 -4
-6 -20 -15 -35 -18 -19 -5 -27 -14 -27 -29 0 -21 3 -21 152 -19 145 2 153 4
156 23 3 14 -2 20 -17 20 -46 0 -51 20 -51 200 0 157 1 170 19 180 35 18 88
12 118 -14 l28 -24 3 -162 3 -161 -30 -12 c-19 -7 -31 -18 -31 -29 0 -16 13
-18 150 -18 136 0 150 2 150 18 0 9 -15 24 -33 32 l-32 15 -5 170 c-6 184 -16
225 -68 265 -34 28 -92 42 -128 31 -39 -11 -111 -48 -119 -61 -13 -22 -25 -8
-25 30 0 44 1 44 -54 24z"/>
<path d="M3209 870 c-14 -8 -175 -40 -200 -40 -19 0 -8 -40 14 -51 12 -7 25
-17 29 -23 4 -6 8 -86 8 -178 0 -177 -5 -198 -51 -198 -14 0 -19 -7 -19 -26 0
-25 2 -26 38 -20 20 3 90 6 155 6 109 0 117 1 117 19 0 13 -9 21 -30 26 -16 4
-31 7 -32 8 -1 1 -5 111 -8 244 -4 218 -7 241 -21 233z"/>
<path d="M123 846 c-113 -22 -128 -37 -73 -68 l30 -17 -2 -183 -3 -183 -32
-10 c-24 -6 -33 -15 -33 -30 0 -21 3 -21 147 -17 82 2 154 5 161 7 20 7 14 35
-8 35 -11 0 -29 9 -40 20 -19 19 -20 33 -20 245 0 174 -3 225 -12 223 -7 0
-59 -10 -115 -22z"/>
<path d="M2660 852 c-73 -27 -106 -49 -144 -94 -72 -83 -82 -197 -30 -306 58
-120 206 -164 340 -100 59 27 114 83 114 114 l0 26 -35 -22 c-21 -13 -59 -24
-93 -27 -120 -10 -195 70 -196 212 -1 80 22 131 67 153 37 18 70 6 128 -46 57
-51 67 -50 107 8 27 40 25 48 -18 78 -28 18 -46 22 -114 21 -49 0 -99 -7 -126
-17z"/>
<path d="M3570 861 c-125 -39 -199 -134 -200 -256 0 -124 45 -206 137 -252 50
-24 70 -28 138 -27 57 0 96 7 137 23 223 87 222 427 -3 506 -43 16 -166 19
-209 6z m130 -69 c39 -39 60 -118 60 -221 0 -98 -13 -154 -41 -182 -44 -44
-116 -4 -145 84 -19 54 -26 227 -12 277 20 71 88 91 138 42z"/>
<path d="M1838 853 c-49 -2 -88 -8 -88 -13 0 -4 -3 -15 -6 -23 -4 -11 4 -17
26 -22 20 -4 34 -15 41 -32 5 -13 9 -92 9 -174 0 -104 4 -159 14 -182 39 -93
152 -108 261 -34 43 29 55 24 55 -25 0 -17 5 -28 13 -28 19 0 167 38 200 51
34 14 37 49 5 49 -52 1 -53 4 -53 229 l0 211 -120 -6 c-140 -7 -145 -8 -145
-32 0 -13 11 -21 43 -28 l42 -9 8 -105 c5 -58 6 -133 2 -166 -5 -53 -10 -63
-31 -73 -39 -17 -70 -13 -101 13 l-28 24 1 191 1 191 -31 -2 c-17 -1 -70 -4
-118 -5z"/>
<path d="M0 275 l0 -25 1965 0 1965 0 0 25 0 25 -1965 0 -1965 0 0 -25z"/>
<path d="M1078 169 c-11 -6 -18 -22 -18 -40 0 -24 7 -32 35 -46 45 -22 43 -48
-3 -48 -24 0 -32 -4 -30 -15 6 -31 80 -24 98 10 16 30 4 54 -36 73 -42 21 -40
41 4 45 34 3 42 16 16 26 -22 9 -46 7 -66 -5z"/>
<path d="M1333 173 c-57 -11 -83 -101 -40 -140 40 -38 107 -42 107 -7 0 11 -6
13 -20 9 -32 -10 -70 20 -70 55 0 40 26 63 62 56 21 -4 28 -2 28 9 0 8 -4 15
-9 15 -5 0 -15 2 -23 4 -7 2 -23 1 -35 -1z"/>
<path d="M3011 161 c-12 -12 -21 -25 -21 -29 0 -15 25 -43 50 -55 37 -18 32
-42 -8 -42 -24 0 -32 -4 -30 -15 7 -33 84 -23 97 12 12 34 3 53 -36 72 -39 19
-39 39 1 44 34 4 29 26 -7 30 -16 2 -34 -5 -46 -17z"/>
<path d="M3312 164 c-32 -22 -25 -53 18 -82 44 -29 45 -47 2 -47 -41 0 -41
-28 0 -33 42 -5 68 14 68 49 0 23 -7 34 -35 50 -45 27 -47 53 -5 47 24 -4 30
-1 28 11 -4 22 -48 25 -76 5z"/>
<path d="M780 85 c0 -69 3 -85 15 -85 12 0 15 16 15 85 0 69 -3 85 -15 85 -12
0 -15 -16 -15 -85z"/>
<path d="M840 160 c0 -5 11 -10 25 -10 24 0 25 -2 25 -75 0 -60 3 -75 15 -75
12 0 15 15 15 75 0 73 1 75 25 75 14 0 25 5 25 10 0 6 -28 10 -65 10 -37 0
-65 -4 -65 -10z"/>
<path d="M1200 85 c0 -78 2 -85 20 -85 18 0 20 7 20 85 0 78 -2 85 -20 85 -18
0 -20 -7 -20 -85z"/>
<path d="M1430 85 c0 -69 3 -85 15 -85 11 0 15 11 15 40 0 39 1 40 35 40 34 0
35 -1 35 -40 0 -29 4 -40 15 -40 12 0 15 16 15 85 0 69 -3 85 -15 85 -10 0
-15 -10 -15 -30 0 -28 -3 -30 -35 -30 -32 0 -35 2 -35 30 0 20 -5 30 -15 30
-12 0 -15 -16 -15 -85z"/>
<path d="M1600 85 l0 -85 50 0 c38 0 50 4 50 15 0 10 -10 15 -30 15 -25 0 -30
4 -30 25 0 21 5 25 30 25 20 0 30 5 30 15 0 10 -10 15 -30 15 -23 0 -30 4 -30
20 0 16 7 20 30 20 17 0 30 5 30 10 0 6 -22 10 -50 10 l-50 0 0 -85z"/>
<path d="M1740 85 c0 -69 3 -85 15 -85 10 0 15 11 15 35 0 25 4 35 16 35 8 0
22 -16 30 -35 9 -23 21 -35 34 -35 19 0 19 1 1 43 -15 35 -16 46 -6 62 9 13
10 28 4 43 -7 19 -16 22 -59 22 l-50 0 0 -85z m69 56 c19 -12 6 -41 -19 -41
-15 0 -20 7 -20 25 0 26 14 31 39 16z"/>
<path d="M1890 85 c0 -69 3 -85 15 -85 11 0 15 11 15 40 0 39 1 40 35 40 34 0
35 -1 35 -41 0 -33 3 -40 18 -37 14 3 17 16 20 86 3 77 2 82 -18 82 -16 0 -20
-6 -20 -30 0 -28 -3 -30 -35 -30 -32 0 -35 2 -35 30 0 20 -5 30 -15 30 -12 0
-15 -16 -15 -85z"/>
<path d="M2062 88 l3 -83 53 -3 c42 -2 52 0 52 12 0 12 -10 16 -35 16 -31 0
-35 3 -35 25 0 21 5 25 30 25 20 0 30 5 30 15 0 10 -10 15 -30 15 -23 0 -30 4
-30 20 0 16 7 20 35 20 19 0 35 5 35 10 0 6 -25 10 -55 10 l-56 0 3 -82z"/>
<path d="M2200 85 c0 -78 2 -85 20 -85 18 0 20 7 20 85 0 78 -2 85 -20 85 -18
0 -20 -7 -20 -85z"/>
<path d="M2260 160 c0 -5 11 -10 25 -10 24 0 25 -2 25 -75 0 -60 3 -75 15 -75
12 0 15 15 15 75 0 73 1 75 25 75 14 0 25 5 25 10 0 6 -28 10 -65 10 -37 0
-65 -4 -65 -10z"/>
<path d="M2482 88 c3 -69 6 -83 21 -86 15 -3 17 5 18 60 l1 63 21 -62 c14 -43
26 -63 37 -63 11 0 23 20 37 62 l21 63 1 -62 c1 -56 3 -63 21 -63 18 0 20 7
20 86 l0 85 -32 -3 c-29 -3 -34 -8 -47 -50 -8 -27 -17 -48 -21 -48 -4 0 -13
21 -21 48 -13 42 -18 47 -47 50 l-33 3 3 -83z"/>
<path d="M2720 85 c0 -69 3 -85 15 -85 12 0 15 16 15 85 0 69 -3 85 -15 85
-12 0 -15 -16 -15 -85z"/>
<path d="M2780 160 c0 -5 9 -10 20 -10 17 0 19 -8 22 -72 2 -60 6 -73 21 -76
15 -3 17 6 17 72 0 74 1 76 25 76 14 0 25 5 25 10 0 6 -28 10 -65 10 -37 0
-65 -4 -65 -10z"/>
<path d="M3150 121 c19 -31 30 -62 30 -85 0 -30 3 -37 18 -34 12 2 18 15 20
42 2 21 14 56 28 77 29 46 29 49 7 49 -10 0 -26 -14 -36 -32 l-18 -32 -19 32
c-12 19 -28 32 -40 32 -18 0 -18 -3 10 -49z"/>
<path d="M3420 160 c0 -5 9 -10 20 -10 17 0 19 -8 22 -72 2 -60 6 -73 21 -76
15 -3 17 6 17 72 0 74 1 76 25 76 14 0 25 5 25 10 0 6 -28 10 -65 10 -37 0
-65 -4 -65 -10z"/>
<path d="M3570 85 l0 -85 50 0 c38 0 50 4 50 15 0 10 -10 15 -30 15 -25 0 -30
4 -30 25 0 21 5 25 30 25 20 0 30 5 30 15 0 10 -10 15 -30 15 -23 0 -30 4 -30
20 0 16 7 20 30 20 17 0 30 5 30 10 0 6 -22 10 -50 10 l-50 0 0 -85z"/>
<path d="M3710 86 c0 -70 3 -86 15 -86 12 0 15 14 16 63 l0 62 24 -60 c12 -33
29 -61 37 -63 9 -2 21 19 35 60 l21 63 1 -60 c1 -53 3 -61 21 -62 19 -2 20 4
20 83 l0 84 -29 0 c-27 0 -31 -5 -48 -57 l-19 -56 -21 54 c-16 45 -25 55 -47
57 l-26 3 0 -85z"/>
</g>
</svg>
