<?xml version="1.0" encoding="UTF-8"?>
<svg version="1.1" xmlns="http://www.w3.org/2000/svg" width="1472" height="794">
<path d="M0 0 C13.16182054 12.06500216 21.15162127 28.35020377 21.97265625 46.21875 C22.01723599 48.24973156 22.04719561 50.28108689 22.0625 52.3125 C22.07265137 53.26680908 22.08280273 54.22111816 22.09326172 55.2043457 C21.9212824 69.16979275 16.5467724 80.08380136 7.05859375 90.1484375 C-7.30848071 104.03122855 -25.41814991 107.86253067 -44.75 107.8125 C-46.60625 107.83666992 -46.60625 107.83666992 -48.5 107.86132812 C-56.48428167 107.86553038 -63.77712024 107.05586426 -71.375 104.5 C-73.13343742 102.74156258 -72.54659859 100.22742669 -72.5859375 97.83984375 C-73.09883244 74.67725483 -73.92178867 53.52136914 -90.375 35.5 C-107.13734011 20.40703347 -125.87435598 17.45868672 -147.65576172 18.3359375 C-168.09478898 19.5691056 -188.09778968 27.59968562 -202.375 42.5 C-215.80213958 58.54639678 -219.91706762 78.08660046 -218.375 98.5 C-216.09326186 120.24275634 -205.54192626 137.9795898 -188.76318359 151.83056641 C-176.41745664 161.70925057 -162.71444631 169.23724593 -148.3203125 175.69140625 C-147.4673912 176.07423264 -146.61446991 176.45705902 -145.73570251 176.85148621 C-135.98256923 181.18202335 -126.07524606 185.11943172 -116.15240479 189.04135132 C-110.64823512 191.21765777 -105.15066292 193.4105269 -99.65234375 195.6015625 C-98.57968262 196.02863998 -97.50702148 196.45571747 -96.40185547 196.89573669 C-20.67190044 227.06975677 -20.67190044 227.06975677 7.625 251.5 C8.47578125 252.21671875 9.3265625 252.9334375 10.203125 253.671875 C19.48610149 261.70193442 26.95271978 271.23036064 33.625 281.5 C34.27339844 282.49 34.92179687 283.48 35.58984375 284.5 C54.35002316 315.03480257 55.82538803 354.84829429 48.0390625 389.07568359 C41.74800981 414.53600102 28.86212572 435.85015291 10.625 454.5 C9.69288902 455.49243754 8.76191418 456.48594328 7.83203125 457.48046875 C0.18994682 465.52716473 -8.28962117 472.15357783 -17.375 478.5 C-18.38691406 479.2115625 -19.39882813 479.923125 -20.44140625 480.65625 C-25.22369458 483.79217678 -25.22369458 483.79217678 -27.375 484.5 C-31.66600337 483.40427426 -35.14153783 480.79621433 -38.75 478.3125 C-43.6179426 475.00212268 -48.51677216 471.75197309 -53.47265625 468.57421875 C-55.04297607 467.56427856 -55.04297607 467.56427856 -56.64501953 466.53393555 C-58.74552395 465.18513777 -60.84934264 463.84148657 -62.95654297 462.50317383 C-63.91834473 461.88337646 -64.88014648 461.2635791 -65.87109375 460.625 C-66.73919678 460.07070313 -67.6072998 459.51640625 -68.50170898 458.9453125 C-69.11989502 458.46835937 -69.73808105 457.99140625 -70.375 457.5 C-70.375 456.84 -70.375 456.18 -70.375 455.5 C-68.94779591 454.23071202 -67.45516224 453.03461407 -65.9375 451.875 C-65.02097656 451.153125 -64.10445312 450.43125 -63.16015625 449.6875 C-61.46074193 448.35275663 -59.76044537 447.01913432 -58.05859375 445.6875 C-43.04976048 433.2293629 -33.95640817 414.72439763 -31.6875 395.5 C-29.98226533 373.2253721 -34.62837519 352.76812338 -48.5 334.875 C-58.64339336 323.11207325 -70.97140065 315.08745799 -84.375 307.5 C-85.50977783 306.8512793 -85.50977783 306.8512793 -86.66748047 306.18945312 C-110.65104203 292.63020259 -136.71036661 282.88013715 -162.3125 272.875 C-205.79709296 255.87892195 -205.79709296 255.87892195 -225.375 243.5 C-226.64802979 242.70770996 -226.64802979 242.70770996 -227.94677734 241.89941406 C-240.20590946 234.23979681 -251.80809362 226.38663344 -262.375 216.5 C-263.03886719 215.90445313 -263.70273437 215.30890625 -264.38671875 214.6953125 C-274.10800474 205.5858557 -281.84550077 194.01671055 -288.375 182.5 C-288.90738281 181.58347656 -289.43976563 180.66695312 -289.98828125 179.72265625 C-294.98398052 170.51869352 -297.81816483 160.60530542 -300.375 150.5 C-300.55724121 149.78618164 -300.73948242 149.07236328 -300.92724609 148.33691406 C-306.36638894 125.63864035 -305.70484414 97.13728241 -300.375 74.5 C-300.21402832 73.79149902 -300.05305664 73.08299805 -299.88720703 72.35302734 C-294.0243538 47.51052435 -280.32331121 26.3475841 -262.375 8.5 C-261.56675781 7.69175781 -260.75851562 6.88351563 -259.92578125 6.05078125 C-201.54382326 -49.24320541 -73.30810284 -54.36480261 0 0 Z " fill="#FFFFFF" transform="translate(713.375,36.5)"/>
<path d="M0 0 C2.78289734 1.32610263 5.33237597 2.81339397 7.93774414 4.46118164 C8.9393457 5.09145264 9.94094727 5.72172363 10.97290039 6.37109375 C12.02348633 7.03761963 13.07407227 7.70414551 14.15649414 8.39086914 C16.3125417 9.74926342 18.46879024 11.10733877 20.62524414 12.46508789 C21.66165039 13.11912598 22.69805664 13.77316406 23.76586914 14.44702148 C27.38197468 16.72235816 31.01385767 18.97081977 34.65649414 21.20336914 C35.64649414 21.81051758 36.63649414 22.41766602 37.65649414 23.04321289 C38.64649414 23.64842773 38.64649414 23.64842773 39.65649414 24.26586914 C36.50879929 27.71592876 32.9889028 30.0506376 29.03149414 32.45336914 C13.84512089 42.04175209 2.81338421 54.42588258 -1.34350586 72.26586914 C-5.12228383 93.73851964 -1.51132417 116.39458396 10.70336914 134.63696289 C14.04966323 139.14107473 17.78107384 143.21588036 21.65649414 147.26586914 C22.19661133 147.86915039 22.73672852 148.47243164 23.29321289 149.09399414 C47.27167921 174.9448344 88.1276357 187.33000634 120.20001221 199.60043335 C146.77968178 209.77923 172.00559086 219.93164263 195.71899414 235.89086914 C196.42796844 236.36665405 197.13694275 236.84243896 197.86740112 237.3326416 C227.32116108 257.26384153 250.05405709 284.85646632 256.94580078 320.46582031 C264.13766127 360.87869672 258.3970803 405.31404814 234.76586914 439.56665039 C208.17854989 476.55675106 170.527492 496.03920832 126.65649414 505.26586914 C125.45041504 505.52110352 125.45041504 505.52110352 124.2199707 505.78149414 C74.43785076 515.9796856 11.18876927 513.04455114 -32.34350586 484.32836914 C-38.46682255 480.13236257 -44.08023981 475.5104047 -49.34350586 470.26586914 C-50.02670898 469.60586914 -50.70991211 468.94586914 -51.41381836 468.26586914 C-61.28821471 458.04296469 -67.40987404 445.06092355 -70.34350586 431.26586914 C-70.62774414 429.94135742 -70.62774414 429.94135742 -70.91772461 428.59008789 C-73.25732127 410.32406255 -72.34222793 393.27202472 -60.89428711 378.28149414 C-54.11393052 370.26551361 -46.22589466 364.74324269 -36.34350586 361.26586914 C-35.25424805 360.87399414 -34.16499023 360.48211914 -33.04272461 360.07836914 C-15.79409964 354.83274718 3.09905016 356.39199104 20.65649414 359.26586914 C20.67107666 360.27262695 20.68565918 361.27938477 20.70068359 362.31665039 C20.7596622 366.13402875 20.83686449 369.95087671 20.91894531 373.76782227 C20.95173549 375.40445197 20.97990189 377.04118235 21.00292969 378.67797852 C21.29367321 398.81970019 23.41552486 419.79068252 37.65649414 435.26586914 C38.15407227 435.8652832 38.65165039 436.46469727 39.16430664 437.08227539 C49.26680283 448.42854624 64.98739584 453.62746255 79.65649414 455.26586914 C104.50759406 456.5814096 128.54074001 452.78846247 147.84399414 435.89086914 C149.4645221 434.36640992 151.06990139 432.82561599 152.65649414 431.26586914 C153.28426758 430.65098633 153.91204102 430.03610352 154.55883789 429.40258789 C170.38741991 412.64080149 174.21331233 390.58238524 173.92993164 368.34790039 C173.30783599 348.38232565 163.19425157 334.25158076 149.20727539 320.93383789 C143.62012248 316.06591031 137.52332753 312.13414486 131.21899414 308.26586914 C130.47593018 307.80374023 129.73286621 307.34161133 128.96728516 306.86547852 C114.67179229 298.34562991 98.83585211 292.3784741 83.34063721 286.4354248 C79.78250703 285.07001388 76.22985203 283.69059786 72.67672729 282.31222534 C70.0050545 281.27594981 67.33274315 280.24133347 64.66040039 279.20678711 C-10.72501669 249.99224309 -10.72501669 249.99224309 -37.34350586 227.26586914 C-38.16206055 226.56977539 -38.98061523 225.87368164 -39.82397461 225.15649414 C-64.96357604 203.17395894 -81.90177538 172.90951367 -84.34350586 139.26586914 C-84.53156927 134.26615247 -84.5890978 129.26871235 -84.59350586 124.26586914 C-84.5941806 123.57645233 -84.59485535 122.88703552 -84.59555054 122.17672729 C-84.57908817 111.57696478 -84.04468989 101.5695792 -81.34350586 91.26586914 C-81.1772168 90.61199219 -81.01092773 89.95811523 -80.83959961 89.28442383 C-71.16972736 52.12704433 -44.65000226 23.92826056 -12.40991211 4.61352539 C-11.05510753 3.82982401 -9.69969253 3.04717638 -8.34350586 2.26586914 C-7.2800293 1.62520508 -6.21655273 0.98454102 -5.12084961 0.32446289 C-2.34350586 -0.73413086 -2.34350586 -0.73413086 0 0 Z " fill="#FFFFFF" transform="translate(473.343505859375,283.734130859375)"/>
<path d="M0 0 C20.46 0 40.92 0 62 0 C62 124.08 62 248.16 62 376 C41.54 376 21.08 376 0 376 C-0.33 367.75 -0.66 359.5 -1 351 C-2.52625 352.629375 -4.0525 354.25875 -5.625 355.9375 C-23.5618517 374.28760538 -48.58108761 381.73477047 -73.75 382.3125 C-101.11591843 382.1745432 -124.98860436 372.65386518 -144.6875 353.625 C-149.44669732 348.75870401 -153.38865343 343.75887063 -157 338 C-157.57234375 337.12214844 -158.1446875 336.24429687 -158.734375 335.33984375 C-182.12346642 297.72066353 -182.86888726 245.01830359 -173.30639648 202.97094727 C-167.13472568 177.70726761 -155.8866627 156.00060076 -138 137 C-137.39929687 136.32324219 -136.79859375 135.64648438 -136.1796875 134.94921875 C-127.51931199 125.59526338 -115.8281831 118.5560409 -104 114 C-103.14019531 113.64421875 -102.28039063 113.2884375 -101.39453125 112.921875 C-76.8582023 103.64721187 -46.91674656 104.49278177 -22.88720703 114.91650391 C-14.73299561 118.65486177 -7.52087471 122.98608353 0 128 C0 85.76 0 43.52 0 0 Z M-93.25 173.25 C-104.46809896 186.65315037 -109.57908852 203.98395311 -112 221 C-112.18433594 222.29292969 -112.36867188 223.58585937 -112.55859375 224.91796875 C-113.33012495 232.20448 -113.24345798 239.55543637 -113.25 246.875 C-113.25100708 247.65490295 -113.25201416 248.43480591 -113.25305176 249.23834229 C-113.23390687 271.15304011 -111.51946337 297.57264327 -95.6875 314.4765625 C-86.00618496 323.21663857 -74.76006653 326.40616591 -61.85546875 326.2109375 C-39.79200415 324.58107828 -22.43466488 312.92777933 -7 298 C-6.42963642 297.54293828 -5.85927284 297.08587656 -5.27162552 296.61496449 C-1.56440368 293.42331419 0.43052771 291.08073065 0.92926025 286.12541199 C0.9886959 284.23437449 1.01023781 282.34189981 1.00097656 280.44995117 C1.02288055 279.41160629 1.04478455 278.37326141 1.06735229 277.30345154 C1.12857443 273.88265288 1.1375488 270.46428156 1.140625 267.04296875 C1.16059083 264.65553291 1.1817474 262.26810677 1.20404053 259.88069153 C1.2414043 254.87977207 1.25042237 249.87970446 1.2421875 244.87866211 C1.23588842 238.48479087 1.3210479 232.09578398 1.43039322 225.7029829 C1.50089542 220.77236866 1.5117295 215.84292066 1.50597382 210.91185951 C1.51236726 208.55592242 1.53959231 206.19994256 1.58844757 203.8445034 C2.41938531 190.72723369 2.41938531 190.72723369 -2.84584045 179.36997986 C-5.97863628 176.68583237 -9.31809372 174.83823003 -13 173 C-14.43463083 172.09063623 -15.86335156 171.17160327 -17.27734375 170.23046875 C-18.48973478 169.53593157 -19.70972452 168.85446422 -20.9375 168.1875 C-21.59790283 167.82205078 -22.25830566 167.45660156 -22.9387207 167.08007812 C-46.34794945 154.49681445 -73.86316348 152.72492119 -93.25 173.25 Z " fill="#FFFFFF" transform="translate(1410,197)"/>
<path d="M0 0 C15.36849212 14.20012722 20.93088761 35.19419236 21.98724365 55.43795013 C22.245036 63.79666116 22.23707876 72.15726275 22.22372246 80.51900625 C22.22190854 84.15506113 22.23946207 87.79102003 22.25549316 91.42703247 C22.29616393 101.41196006 22.30787005 111.39687766 22.31902313 121.38187408 C22.32957792 130.56540572 22.34652476 139.74881108 22.38711882 148.9322654 C22.40529514 153.23313194 22.40943417 157.53369616 22.40218353 161.83459163 C22.40101928 163.86862126 22.40671552 165.90249823 22.4153595 167.93650818 C22.42577909 170.39675235 22.42597047 172.85707442 22.41300964 175.31730652 C22.48600319 185.19043366 22.86782834 195.59052045 29.81640625 203.1640625 C34.33834376 205.95055372 39.04199419 205.19055516 44.12890625 204.7890625 C44.96486328 204.73234375 45.80082031 204.675625 46.66210938 204.6171875 C48.71427553 204.47646754 50.76546743 204.3216632 52.81640625 204.1640625 C54.26983182 211.76329527 55.45457325 219.36593245 56.44140625 227.0390625 C56.6425 228.54726563 56.6425 228.54726563 56.84765625 230.0859375 C56.97398437 231.05789063 57.1003125 232.02984375 57.23046875 233.03125 C57.34342285 233.89862793 57.45637695 234.76600586 57.57275391 235.65966797 C57.81778312 238.17821473 57.85890076 240.63535574 57.81640625 243.1640625 C46.65798155 249.39781931 34.70298599 253.64589583 21.81640625 254.1640625 C20.8728125 254.20402344 19.92921875 254.24398438 18.95703125 254.28515625 C5.1391101 254.58325861 -6.67868439 251.42262668 -17.18359375 242.1640625 C-21.9016701 237.53500646 -25.42117813 232.16559377 -28.18359375 226.1640625 C-28.18359375 225.5040625 -28.18359375 224.8440625 -28.18359375 224.1640625 C-31.52029571 226.37101498 -34.82911652 228.60837082 -38.109375 230.8984375 C-62.81910178 247.98672177 -89.09331372 257.76581171 -119.5703125 252.91796875 C-138.88046298 248.88893195 -156.27058184 239.19425031 -168.18359375 223.1640625 C-181.45728762 202.85165757 -184.7250083 180.89354793 -180.18359375 157.1640625 C-174.94963914 136.35538466 -162.11435582 119.63229547 -144.12109375 108.1640625 C-116.38753894 91.6893132 -85.4470239 86.60320732 -53.55859375 85.6015625 C-52.26824219 85.55837891 -50.97789062 85.51519531 -49.6484375 85.47070312 C-46.49357442 85.36554102 -43.3386448 85.26339646 -40.18359375 85.1640625 C-40.22827405 80.94986259 -40.29863771 76.73704016 -40.39111328 72.52368164 C-40.41904616 71.09541264 -40.4403959 69.666997 -40.45458984 68.23852539 C-40.56129447 58.09802885 -41.19474102 48.20701307 -47.43359375 39.7265625 C-57.43692721 30.4052745 -70.01087676 30.64054547 -82.89453125 30.8515625 C-110.47626593 31.85362371 -136.04947134 45.0970013 -160.18359375 57.1640625 C-160.18359375 38.3540625 -160.18359375 19.5440625 -160.18359375 0.1640625 C-135.46859988 -9.25117326 -135.46859988 -9.25117326 -127.62109375 -11.5859375 C-126.67186035 -11.86977295 -125.72262695 -12.1536084 -124.74462891 -12.44604492 C-84.82577204 -24.08267422 -33.8479413 -28.45891308 0 0 Z M-110.30859375 147.0390625 C-116.83457267 153.2695254 -120.24818795 161.33835835 -120.49609375 170.2890625 C-120.37936516 179.05537956 -117.22117244 186.02566667 -111.25390625 192.40625 C-102.54670338 199.7991581 -93.1837438 200.75013607 -82.18359375 200.1640625 C-68.04448118 198.46464993 -50.31866522 190.29913397 -40.18359375 180.1640625 C-39.89127836 177.89978876 -39.89127836 177.89978876 -39.95654297 175.25537109 C-39.95669403 174.23446381 -39.95684509 173.21355652 -39.95700073 172.16171265 C-39.9673233 171.05647247 -39.97764587 169.9512323 -39.98828125 168.8125 C-39.99111115 167.6833316 -39.99394104 166.55416321 -39.99685669 165.39077759 C-40.00807913 161.77343279 -40.03318753 158.15633284 -40.05859375 154.5390625 C-40.06862088 152.0911494 -40.07774719 149.64323243 -40.0859375 147.1953125 C-40.10802518 141.18481186 -40.14152301 135.17445467 -40.18359375 129.1640625 C-64.27832657 126.14550227 -91.18719779 131.47147862 -110.30859375 147.0390625 Z " fill="#FFFFFF" transform="translate(964.18359375,324.8359375)"/>
<path d="M0 0 C20.46 0 40.92 0 62 0 C62.029729 8.26659668 62.029729 8.26659668 62.06005859 16.70019531 C62.12699102 34.91687678 62.20453179 53.1335017 62.28752708 71.35011673 C62.33758413 82.39387893 62.38402772 93.43763396 62.421875 104.48144531 C62.45488359 114.11062816 62.49476348 123.73975424 62.54279006 133.36887431 C62.56796706 138.46431005 62.58977406 143.55970855 62.60334396 148.65518951 C62.6162445 153.45847352 62.63838386 158.26162928 62.66738319 163.06484222 C62.67639685 164.82070014 62.68213454 166.57657867 62.68421364 168.3324585 C62.67590561 186.24873766 62.67590561 186.24873766 68.09765625 203.16015625 C69 205 69 205 70 208 C72.29534258 209.13545562 72.29534258 209.13545562 75 210 C75.70640625 210.34160156 76.4128125 210.68320312 77.140625 211.03515625 C88.98473074 215.03173291 102.96653941 211.66933741 113.890625 206.6796875 C120.59877167 203.2506628 126.28560697 198.87347901 132 194 C132.68835938 193.44570313 133.37671875 192.89140625 134.0859375 192.3203125 C139.26873624 188.03887007 143.61768486 183.14008626 147.63684082 177.75230122 C149 176 149 176 150.95593262 173.85428905 C157.7260435 165.82937991 158.13435493 158.64072689 158 148.60473633 C158.00762004 146.97749916 158.01875056 145.35027527 158.03309631 143.7230835 C158.0619408 139.33701002 158.04210619 134.95238734 158.0130806 130.56636643 C157.9910982 125.97122057 158.01450541 121.37630303 158.03295898 116.78117371 C158.06102119 108.09381332 158.04866153 99.40700665 158.02153492 90.71966237 C157.9926201 80.8235081 158.00913899 70.92758962 158.02934647 61.03143275 C158.06987681 40.68738292 158.04777078 20.34404734 158 0 C178.13 0 198.26 0 219 0 C219 86.79 219 173.58 219 263 C198.87 263 178.74 263 158 263 C157.67 253.43 157.34 243.86 157 234 C153.7 237.3 150.4 240.6 147 244 C144.65880083 245.9838977 142.40803541 247.83736252 139.9375 249.625 C139.31246582 250.07883057 138.68743164 250.53266113 138.04345703 251.00024414 C116.56379666 266.06359203 89.53325879 272.24590201 63.62866211 268.17724609 C44.16365536 264.63384167 26.89411166 255.19631533 15.125 239.0625 C2.08706774 218.91873604 -0.324774 197.9851038 -0.22705078 174.60205078 C-0.22648544 172.68868007 -0.22680562 170.77530893 -0.22793579 168.86193848 C-0.22850551 163.71000046 -0.21681338 158.55815711 -0.20278788 153.40624094 C-0.19021652 148.00641781 -0.189105 142.6065921 -0.18673706 137.20675659 C-0.18054101 127.00032031 -0.16415576 116.79392729 -0.14403808 106.58750999 C-0.12162047 94.9598431 -0.11067095 83.33217405 -0.10064721 71.7044909 C-0.07978772 47.80296449 -0.04313511 23.90149731 0 0 Z " fill="#FFFFFF" transform="translate(131,125)"/>
<path d="M0 0 C9.03153001 -0.18769683 16.96150764 0.97468064 26.1328125 2.12109375 C26.1328125 22.25109375 26.1328125 42.38109375 26.1328125 63.12109375 C19.72885613 61.69799233 13.39908941 60.19640357 7.08398438 58.4453125 C-5.29462396 55.20764306 -18.75426472 58.03073749 -29.8671875 64.12109375 C-31.13949219 64.80945313 -31.13949219 64.80945313 -32.4375 65.51171875 C-45.21625478 73.01150076 -53.96987861 83.81474918 -61.8671875 96.12109375 C-62.5271875 97.11109375 -63.1871875 98.10109375 -63.8671875 99.12109375 C-64.18113425 102.26870282 -64.18113425 102.26870282 -64.1456604 105.93571472 C-64.1514528 106.6324819 -64.1572452 107.32924907 -64.16321313 108.04713041 C-64.18024922 110.38717974 -64.18309269 112.72703228 -64.18603516 115.06713867 C-64.19533086 116.74244167 -64.20549899 118.41774002 -64.21647644 120.09303284 C-64.24383094 124.6464191 -64.25894196 129.19977434 -64.27190447 133.75322127 C-64.2875112 138.50985899 -64.31430922 143.26643312 -64.3399353 148.02302551 C-64.38676669 157.03272382 -64.42348967 166.04243403 -64.45660818 175.05219203 C-64.49479879 185.30845396 -64.54421694 195.56465208 -64.59459233 205.82086027 C-64.69797705 226.92089691 -64.78573387 248.02096026 -64.8671875 269.12109375 C-85.3271875 269.12109375 -105.7871875 269.12109375 -126.8671875 269.12109375 C-126.8671875 182.00109375 -126.8671875 94.88109375 -126.8671875 5.12109375 C-106.4071875 5.12109375 -85.9471875 5.12109375 -64.8671875 5.12109375 C-64.3721875 17.49609375 -64.3721875 17.49609375 -63.8671875 30.12109375 C-62.3409375 28.49171875 -60.8146875 26.86234375 -59.2421875 25.18359375 C-43.62164964 9.20316861 -22.12749572 0.93454001 0 0 Z " fill="#FFFFFF" transform="translate(1187.8671875,303.87890625)"/>
<path d="M0 0 C20.13 0 40.26 0 61 0 C61 86.79 61 173.58 61 263 C40.87 263 20.74 263 0 263 C0 176.21 0 89.42 0 0 Z " fill="#FFFFFF" transform="translate(0,125)"/>
<path d="M0 0 C20.13 0 40.26 0 61 0 C61 20.13 61 40.26 61 61 C40.87 61 20.74 61 0 61 C0 40.87 0 20.74 0 0 Z " fill="#FFFFFF" transform="translate(0,35)"/>
</svg>
