<?xml version="1.0" encoding="UTF-8"?>
<svg version="1.1" xmlns="http://www.w3.org/2000/svg" width="877" height="247">
<path d="M0 0 C0.36738281 0.96873047 0.36738281 0.96873047 0.7421875 1.95703125 C6.36532402 16.13121332 13.32110466 30.15677208 23 42 C23.44069824 42.54462891 23.88139648 43.08925781 24.33544922 43.65039062 C39.97967061 62.87058542 59.22941556 77.28923564 81 89 C81.68481445 89.37044434 82.36962891 89.74088867 83.07519531 90.12255859 C98.59413678 98.35361941 115.37320779 103.51244057 132 109 C132 113.95 132 118.9 132 124 C92.65049427 136.67928518 50.64763713 132.52473386 13.93701172 113.95654297 C4.76695096 109.21031594 -3.24673753 103.87249185 -11 97 C-11.75410156 96.38898438 -12.50820313 95.77796875 -13.28515625 95.1484375 C-15.63881907 93.19742952 -17.80252207 91.12600287 -20 89 C-21.393396 87.75089844 -21.393396 87.75089844 -22.81494141 86.4765625 C-30.19447919 79.1331555 -32.00770405 72.4627633 -32.1796875 62.13671875 C-32.17639293 58.54248142 -32.11151182 54.95928919 -31.99462891 51.36694336 C-31.87468237 47.67773068 -31.83066743 43.9936774 -31.80078125 40.30273438 C-31.76477633 37.93482553 -31.72455831 35.56697618 -31.6796875 33.19921875 C-31.66066376 32.108405 -31.64164001 31.01759125 -31.62203979 29.89372253 C-31.296904 20.35243026 -29.66620327 12.74302045 -22.93359375 5.73046875 C-15.89618417 -0.5676574 -9.19878396 -0.50481131 0 0 Z " fill="#FFFFFF" transform="translate(745,0)"/>
<path d="M0 0 C12.24823067 -0.092796 24.49637731 -0.16381396 36.74488831 -0.20724869 C42.43275393 -0.22809819 48.12037854 -0.25636804 53.80810547 -0.30175781 C59.29999146 -0.34530904 64.79164602 -0.36915694 70.28369141 -0.37950897 C72.3760136 -0.38688365 74.46832354 -0.40128468 76.56054688 -0.42292023 C79.49767143 -0.45207715 82.4338471 -0.45595082 85.37109375 -0.45410156 C86.2306517 -0.46848267 87.09020966 -0.48286377 87.97581482 -0.49768066 C94.84193497 -0.45108991 100.04915378 1.41415392 105.2421875 5.96484375 C105.78101563 6.61582031 106.31984375 7.26679687 106.875 7.9375 C107.42929687 8.58589844 107.98359375 9.23429688 108.5546875 9.90234375 C112.02250316 14.93536269 112.28104012 19.58076107 112.22705078 25.55395508 C112.22734283 26.40324585 112.22763489 27.25253662 112.22793579 28.12756348 C112.22654634 30.92499125 112.21100323 33.7221502 112.1953125 36.51953125 C112.191581 38.46294509 112.18873468 40.40636082 112.18673706 42.34977722 C112.17911137 47.45764384 112.15947197 52.56539621 112.1373291 57.67321777 C112.11684778 62.88824925 112.10773045 68.10329924 112.09765625 73.31835938 C112.07622512 83.54562304 112.04210197 93.77280201 112 104 C109.13835465 103.06313855 106.27818849 102.12211829 103.41870117 101.17871094 C102.61631767 100.9164975 101.81393417 100.65428406 100.98723602 100.38412476 C94.17503731 98.13078476 87.75622583 95.41929665 81.3125 92.25 C80.24797607 91.73123291 79.18345215 91.21246582 78.08666992 90.67797852 C69.53680408 86.42936787 61.64730518 81.69953386 54 76 C53.15018555 75.38487549 53.15018555 75.38487549 52.28320312 74.75732422 C28.53086147 57.50414692 6.26220821 32.53519095 0 3 C0 2.01 0 1.02 0 0 Z " fill="#FFFFFF" transform="translate(765,0)"/>
<path d="M0 0 C10.23 0 20.46 0 31 0 C35.5003887 10.12587457 35.5003887 10.12587457 36.89111328 13.8737793 C37.36147507 15.1350489 37.36147507 15.1350489 37.84133911 16.42179871 C38.16440033 17.29709732 38.48746155 18.17239594 38.8203125 19.07421875 C39.16504608 20.00168411 39.50977966 20.92914948 39.86495972 21.88471985 C40.58726527 23.82962885 41.30820571 25.77504534 42.02783203 27.72094727 C43.12620164 30.69074904 44.22874945 33.65897315 45.33203125 36.62695312 C46.03670129 38.52595153 46.74113654 40.42503708 47.4453125 42.32421875 C47.77242218 43.20559006 48.09953186 44.08696136 48.43655396 44.99504089 C50.0306733 49.30829597 51.5794402 53.62551405 53 58 C53.28085449 57.20231201 53.56170898 56.40462402 53.85107422 55.58276367 C60.40402326 36.99126301 67.11105402 18.47036241 74 0 C84.23 0 94.46 0 105 0 C105 28.38 105 56.76 105 86 C98.07 86 91.14 86 84 86 C83.67 66.53 83.34 47.06 83 27 C77.62951525 41.55273983 77.62951525 41.55273983 72.26098633 56.10620117 C68.57307438 66.09727134 64.8605079 76.07408491 61 86 C55.06 86 49.12 86 43 86 C34.89877657 66.16026916 27.49534753 46.07682375 20 26 C20 45.8 20 65.6 20 86 C13.4 86 6.8 86 0 86 C0 57.62 0 29.24 0 0 Z " fill="#FFFFFF" transform="translate(4,77)"/>
<path d="M0 0 C3.45114608 1.66365985 6.34497661 3.66636397 9.4375 5.9375 C43.87923784 30.18831252 88.27226411 41.94219813 130 35 C139.76150364 33.18415977 149.06838754 30.48713586 158.33984375 26.953125 C161 26 161 26 163 26 C163.10890711 29.00099588 163.18773555 31.99796378 163.25 35 C163.28351563 35.83917969 163.31703125 36.67835938 163.3515625 37.54296875 C163.46255015 44.70167234 161.71965705 49.64496456 157.2109375 55.20703125 C156.30214844 56.00173828 156.30214844 56.00173828 155.375 56.8125 C154.78460937 57.35519531 154.19421875 57.89789063 153.5859375 58.45703125 C145.99487537 62.98644143 137.82667612 63.43804396 129.19140625 63.38818359 C127.48692825 63.39606903 127.48692825 63.39606903 125.74801636 63.40411377 C122.01936802 63.41723805 118.29115213 63.40860222 114.5625 63.3984375 C111.95515868 63.4004604 109.34781791 63.40337364 106.74047852 63.40713501 C101.28689962 63.41257424 95.83344308 63.40544941 90.37988281 63.39111328 C84.09841764 63.3747902 77.81724473 63.38008002 71.53578663 63.3965925 C65.46277343 63.4119106 59.38988855 63.4102083 53.31686401 63.4014473 C50.74616454 63.39945282 48.17545755 63.40187797 45.60476685 63.40888596 C42.00584445 63.41654504 38.40747519 63.40483312 34.80859375 63.38818359 C33.23100784 63.39729263 33.23100784 63.39729263 31.62155151 63.40658569 C21.92602789 63.323919 13.82249997 61.72699997 6.69140625 54.8984375 C0.33686492 47.76608857 -0.15180169 40.68055348 -0.09765625 31.54296875 C-0.0962413 30.64000565 -0.09482635 29.73704254 -0.09336853 28.80671692 C-0.08778823 25.93361037 -0.07523934 23.06058284 -0.0625 20.1875 C-0.05748245 18.23502717 -0.05291999 16.28255311 -0.04882812 14.33007812 C-0.03782525 9.55335515 -0.02057418 4.77669096 0 0 Z " fill="#FFFFFF" transform="translate(714,100)"/>
<path d="M0 0 C0 6.27 0 12.54 0 19 C-1.4025 18.54625 -2.805 18.0925 -4.25 17.625 C-16.24435342 14.04028531 -29.65381309 11.50224284 -41.39453125 17.15234375 C-47.7803182 20.9753439 -51.33887749 25.81301101 -53.60546875 32.890625 C-55.22548065 41.55207478 -54.66449009 50.4047241 -50 58 C-46.05915722 62.7090577 -41.02727001 65.80064442 -35 67 C-29.46107407 67.38494466 -24.39805975 67.34951494 -19 66 C-18.67 60.72 -18.34 55.44 -18 50 C-23.94 50 -29.88 50 -36 50 C-36 44.72 -36 39.44 -36 34 C-22.8 34 -9.6 34 4 34 C4 48.52 4 63.04 4 78 C-15.11203954 85.96334981 -34.8842452 88.32538764 -54.6953125 81.00390625 C-64.02682233 76.88034916 -70.91790107 69.82015417 -75.0703125 60.52734375 C-79.72703228 47.86810972 -79.38034127 33.79932016 -73.86328125 21.45703125 C-68.02360879 10.45928849 -59.45393216 3.06633989 -47.69140625 -1.22265625 C-32.1464653 -5.71241423 -15.28537001 -5.09512334 0 0 Z " fill="#FFFFFF" transform="translate(193,79)"/>
<path d="M0 0 C10.4878125 -0.12375 10.4878125 -0.12375 21.1875 -0.25 C23.36625732 -0.28641602 25.54501465 -0.32283203 27.78979492 -0.36035156 C52.13899058 -0.6008131 52.13899058 -0.6008131 62 8 C66.72423486 13.5905702 66.65141837 20.41545239 66.44921875 27.4296875 C65.64102155 33.85309829 62.76292015 37.58336208 58.0625 41.8125 C55.13344601 43.90468142 52.22994842 45.43219472 49 47 C49.6290625 47.58265625 50.258125 48.1653125 50.90625 48.765625 C57.41719068 55.00200794 62.17803453 61.38021502 67 69 C67.90169164 70.3455139 68.80818852 71.6878165 69.71875 73.02734375 C70.18023438 73.70772705 70.64171875 74.38811035 71.1171875 75.08911133 C72.02639472 76.42771991 72.93779214 77.76484397 73.8515625 79.1003418 C77 83.7765883 77 83.7765883 77 86 C55.84966536 87.77827955 55.84966536 87.77827955 49.9765625 84.11328125 C47.90170523 81.18484345 46.48301629 78.26921079 45 75 C43.74819406 72.86864378 42.43621803 70.78428043 41.10888672 68.69921875 C40.221871 67.30447179 39.35027236 65.89976497 38.49658203 64.484375 C35.38512295 59.17929367 35.38512295 59.17929367 31 55 C27.7 54.34 24.4 53.68 21 53 C21 63.89 21 74.78 21 86 C14.07 86 7.14 86 0 86 C0 57.62 0 29.24 0 0 Z M21 15 C21 22.59 21 30.18 21 38 C32.30892713 38.1973673 32.30892713 38.1973673 41.375 33.3125 C43.69329554 30.01338712 44.19136927 27.00280728 44 23 C42.67893327 19.50305865 41.52469772 18.32052019 38.33984375 16.375 C32.63366997 14.02579161 27.11141525 14.82703542 21 15 Z " fill="#FFFFFF" transform="translate(539,77)"/>
<path d="M0 0 C7.26 0 14.52 0 22 0 C22.0093457 1.68480469 22.01869141 3.36960937 22.02832031 5.10546875 C22.06396776 10.69757293 22.11784124 16.28930696 22.18390274 21.88113403 C22.22326475 25.26859356 22.25550766 28.65579755 22.27099609 32.04345703 C22.29247832 35.94606166 22.33916004 39.84768949 22.390625 43.75 C22.39185364 44.95551514 22.39308228 46.16103027 22.39434814 47.40307617 C22.51501165 54.38257861 23.21172786 59.07786108 27 65 C30.69415827 68.09510557 34.23223918 68.75757148 39 69 C43.44163697 68.53468565 46.33227703 67.5225658 49.875 64.75 C53.37022286 60.22677042 54.24235534 55.81315664 54.31884766 50.17822266 C54.33871735 49.05751373 54.35858704 47.93680481 54.37905884 46.78213501 C54.39061005 45.58817108 54.40216125 44.39420715 54.4140625 43.1640625 C54.43342865 41.92957367 54.4527948 40.69508484 54.4727478 39.42318726 C54.53240097 35.49052788 54.57887263 31.557839 54.625 27.625 C54.66212543 24.95439547 54.70224525 22.28384636 54.7421875 19.61328125 C54.83809109 13.07561979 54.92217538 6.53790066 55 0 C61.93 0 68.86 0 76 0 C76.09084803 7.63298191 76.1640287 15.26575844 76.20724869 22.8991518 C76.22800619 26.44477451 76.25610231 29.99000394 76.30175781 33.53540039 C76.35406955 37.62389616 76.37304276 41.71198745 76.390625 45.80078125 C76.41127014 47.05643387 76.43191528 48.31208649 76.45318604 49.60578918 C76.45599783 60.77775061 74.02390471 70.82715971 66 79 C55.60739241 87.7480631 41.91493401 88.02320628 29 87 C20.46074023 85.78155628 13.06772557 82.48606933 7.21484375 76.03125 C0.08951945 66.36741949 -0.444582 54.96126458 -0.29296875 43.359375 C-0.28872391 42.11117981 -0.28447906 40.86298462 -0.28010559 39.57696533 C-0.26346429 35.63441354 -0.22583888 31.69239435 -0.1875 27.75 C-0.17071983 25.05860676 -0.15854278 22.36719926 -0.14648438 19.67578125 C-0.1136084 13.11698582 -0.06192735 6.55858285 0 0 Z " fill="#FFFFFF" transform="translate(446,77)"/>
<path d="M0 0 C6.93 0 13.86 0 21 0 C21.01458252 1.58868896 21.02916504 3.17737793 21.04418945 4.81420898 C21.10237053 10.73533089 21.17960276 16.6560804 21.26245117 22.5769043 C21.29560736 25.13445978 21.32366795 27.6920868 21.34643555 30.24975586 C21.38015215 33.93634386 21.43247855 37.62228179 21.48828125 41.30859375 C21.49467117 42.44332626 21.5010611 43.57805878 21.50764465 44.74717712 C21.64558813 52.27665916 22.43085999 58.99214158 26.5625 65.4375 C31.11842656 68.35796574 36.14425886 69.4263626 41.51171875 68.625 C45.1021402 67.58051376 47.5733099 66.36104547 50.4375 63.9375 C54.50147496 56.29722707 54.32220913 47.32754738 54.4140625 38.8671875 C54.43342865 37.74933868 54.4527948 36.63148987 54.4727478 35.47976685 C54.53204289 31.94491972 54.57872733 28.41003913 54.625 24.875 C54.66322591 22.46352826 54.70228025 20.0520695 54.7421875 17.640625 C54.83770284 11.76052336 54.92191687 5.88035791 55 0 C61.93 0 68.86 0 76 0 C76.09100804 7.33769785 76.16411821 14.6750782 76.20724869 22.0132246 C76.22796765 25.42203727 76.2559899 28.83043799 76.30175781 32.23901367 C76.35424748 36.1736121 76.3730748 40.10805409 76.390625 44.04296875 C76.41127014 45.24455124 76.43191528 46.44613373 76.45318604 47.68412781 C76.45635701 59.86134691 74.07033885 70.19052439 65.359375 78.97265625 C62.09574443 81.77700106 59.07084817 83.6270865 55 85 C54.38382812 85.22171875 53.76765625 85.4434375 53.1328125 85.671875 C41.29508315 89.08040407 26.02004394 88.36601865 15 83 C7.53570626 78.17212596 2.54916637 71.42178607 0.45240784 62.73005676 C-0.04228805 59.74481258 -0.11989592 56.95056075 -0.11352539 53.92456055 C-0.11344986 52.72369308 -0.11337433 51.52282562 -0.11329651 50.28556824 C-0.10813522 48.99894791 -0.10297394 47.71232758 -0.09765625 46.38671875 C-0.09578956 45.04865064 -0.09436684 43.71058185 -0.09336853 42.37251282 C-0.08956314 38.8626413 -0.07974988 35.35281161 -0.06866455 31.84295654 C-0.05840777 28.25663824 -0.05386179 24.67031314 -0.04882812 21.08398438 C-0.03812572 14.05597074 -0.02054506 7.02799169 0 0 Z " fill="#FFFFFF" transform="translate(281,77)"/>
<path d="M0 0 C17.82 0 35.64 0 54 0 C54 5.28 54 10.56 54 16 C43.44 16 32.88 16 22 16 C22 21.94 22 27.88 22 34 C31.9 34 41.8 34 52 34 C52 39.61 52 45.22 52 51 C42.1 51 32.2 51 22 51 C22 56.94 22 62.88 22 69 C33.22 69 44.44 69 56 69 C56 74.61 56 80.22 56 86 C37.52 86 19.04 86 0 86 C0 57.62 0 29.24 0 0 Z " fill="#FFFFFF" transform="translate(621,77)"/>
<path d="M0 0 C17.49 0 34.98 0 53 0 C53 5.28 53 10.56 53 16 C42.44 16 31.88 16 21 16 C21 22.6 21 29.2 21 36 C30.9 36 40.8 36 51 36 C51 41.61 51 47.22 51 53 C41.1 53 31.2 53 21 53 C21 63.89 21 74.78 21 86 C14.07 86 7.14 86 0 86 C0 57.62 0 29.24 0 0 Z " fill="#FFFFFF" transform="translate(217,77)"/>
<path d="M0 0 C24.09 0 48.18 0 73 0 C73 5.28 73 10.56 73 16 C64.42 16 55.84 16 47 16 C47 39.1 47 62.2 47 86 C40.07 86 33.14 86 26 86 C26 62.9 26 39.8 26 16 C17.42 16 8.84 16 0 16 C0 10.72 0 5.44 0 0 Z " fill="#FFFFFF" transform="translate(365,77)"/>
<path d="M0 0 C0.99 0.7115625 0.99 0.7115625 2 1.4375 C2.33 0.4475 2.66 -0.5425 3 -1.5625 C4.65 -1.5625 6.3 -1.5625 8 -1.5625 C8.05871491 2.72910791 8.09383483 7.02061058 8.125 11.3125 C8.14175781 12.51648438 8.15851562 13.72046875 8.17578125 14.9609375 C8.27014657 32.32415613 8.27014657 32.32415613 3.8125 38.4375 C-1.79935265 42.42815077 -6.98647874 42.8390377 -13.6328125 41.98046875 C-18.07528108 40.96148668 -20.91570285 38.6663701 -23.875 35.3125 C-25 33.4375 -25 33.4375 -25 31.4375 C-22.25 31.1875 -22.25 31.1875 -19 31.4375 C-16.8125 33.375 -16.8125 33.375 -15 35.4375 C-10.02284065 37.09655312 -6.38627021 37.10496343 -1.625 34.8125 C1.26258575 32.63085338 1.26258575 32.63085338 1.875 29.1875 C1.91625 28.28 1.9575 27.3725 2 26.4375 C0.329375 27.4584375 0.329375 27.4584375 -1.375 28.5 C-6.38720255 30.97505223 -10.6723285 31.09211017 -16 29.4375 C-20.16086805 26.93178388 -23.19928847 23.99423011 -25 19.4375 C-25.7500384 13.53460037 -25.45404174 8.43990527 -22 3.4375 C-15.50275167 -2.88414702 -7.97882114 -4.15563601 0 0 Z M-18.875 8.1875 C-20.56437273 11.56624546 -20.66043605 14.78695788 -20 18.4375 C-17.90637823 21.87702148 -15.88092169 24.21778175 -12 25.4375 C-7.75580734 25.90907696 -5.51752778 25.70114623 -1.6875 23.75 C1.21970726 21.24844957 2.23769819 20.16430887 3 16.4375 C3 11.22030912 2.88196828 9.4244645 -0.625 5.5 C-8.30055218 0.80938478 -12.57611711 2.30854264 -18.875 8.1875 Z " fill="#FFFFFF" transform="translate(869,204.5625)"/>
<path d="M0 0 C1.16015625 0.23976562 1.16015625 0.23976562 2.34375 0.484375 C4.73594873 1.3337789 5.86401681 2.34135294 7.5 4.25 C8.180625 3.610625 8.86125 2.97125 9.5625 2.3125 C13.05005359 -0.13620784 15.26556351 -0.59877013 19.5 -0.75 C22.84621742 0.0281901 24.28218313 1.0382336 26.75 3.4375 C30.38545873 9.28020153 29.62853813 16.50748932 29.5625 23.1875 C29.55798828 24.06212891 29.55347656 24.93675781 29.54882812 25.83789062 C29.53714834 27.97529047 29.51921689 30.11265463 29.5 32.25 C27.85 32.25 26.2 32.25 24.5 32.25 C24.45101562 31.0434375 24.40203125 29.836875 24.3515625 28.59375 C24.27646468 26.97914694 24.20091997 25.36456461 24.125 23.75 C24.0940625 22.95851562 24.063125 22.16703125 24.03125 21.3515625 C23.77143777 16.06871388 22.93666294 11.34256131 21.5 6.25 C17.18066349 5.24550314 14.38779613 4.91732232 10.5 7.25 C9.46853769 10.21009683 9.31656757 13.11898845 9.18359375 16.234375 C9.14169922 17.16894531 9.09980469 18.10351562 9.05664062 19.06640625 C9.01732422 20.03449219 8.97800781 21.00257813 8.9375 22 C8.89431641 22.98355469 8.85113281 23.96710938 8.80664062 24.98046875 C8.70077948 27.40351275 8.59869829 29.8266554 8.5 32.25 C6.85 32.25 5.2 32.25 3.5 32.25 C3.48018066 31.64003174 3.46036133 31.03006348 3.43994141 30.40161133 C3.34432124 27.62149467 3.23479295 24.84209154 3.125 22.0625 C3.0940625 21.10279297 3.063125 20.14308594 3.03125 19.15429688 C2.99257813 18.22294922 2.95390625 17.29160156 2.9140625 16.33203125 C2.86693115 15.05162964 2.86693115 15.05162964 2.81884766 13.74536133 C2.46107991 10.94540408 1.75806673 8.77464504 0.5 6.25 C-1.80371421 5.07221688 -1.80371421 5.07221688 -4.5 5.25 C-8.30596312 6.93170464 -9.9607147 8.43461916 -11.5 12.25 C-11.86097744 14.56392665 -11.86097744 14.56392665 -11.9140625 17.015625 C-11.95273437 17.90507812 -11.99140625 18.79453125 -12.03125 19.7109375 C-12.0621875 20.63132813 -12.093125 21.55171875 -12.125 22.5 C-12.18300781 23.90378906 -12.18300781 23.90378906 -12.2421875 25.3359375 C-12.33624844 27.64043054 -12.42189399 29.94492013 -12.5 32.25 C-14.15 32.25 -15.8 32.25 -17.5 32.25 C-17.5 21.69 -17.5 11.13 -17.5 0.25 C-15.85 0.25 -14.2 0.25 -12.5 0.25 C-12.17 1.24 -11.84 2.23 -11.5 3.25 C-10.901875 2.775625 -10.30375 2.30125 -9.6875 1.8125 C-6.19963932 -0.67882905 -4.05812635 -0.8927878 0 0 Z " fill="#FFFFFF" transform="translate(698.5,202.75)"/>
<path d="M0 0 C3.97171384 3.04216379 6.25600946 6.31876224 8 11 C8.71257116 17.31134455 7.67614732 21.77478432 4 27 C0.21991893 30.78008107 -2.89576902 31.27901132 -8.0625 31.4375 C-13.151807 31.43095006 -14.29363091 30.82382145 -19 28 C-19.33 32.62 -19.66 37.24 -20 42 C-21.65 42 -23.3 42 -25 42 C-25 27.81 -25 13.62 -25 -1 C-23.35 -1 -21.7 -1 -20 -1 C-19.67 -0.01 -19.34 0.98 -19 2 C-18.2575 1.525625 -17.515 1.05125 -16.75 0.5625 C-10.95928518 -2.72767887 -6.21295156 -2.03736399 0 0 Z M-18.3125 8.1875 C-20.55382513 11.92304188 -20.6987087 14.74736554 -20 19 C-18.5987455 22.50313626 -17.37068221 23.74726213 -14.25 25.875 C-10.2620465 27.25544544 -8.05847606 27.10685711 -4 26 C-1.04507031 24.16137708 0.60012663 22.67251431 2.375 19.6875 C3.48573543 14.91133764 2.83117971 11.33582453 0.25 7.1875 C-6.13876127 0.97620432 -12.25389693 2.45638899 -18.3125 8.1875 Z " fill="#FFFFFF" transform="translate(619,204)"/>
<path d="M0 0 C3.84530525 3.98008915 5.84864847 7.58991067 6.03125 13.1640625 C5.54382328 18.63088762 3.98694582 22.72839416 -0.23046875 26.3359375 C-4.0553602 29.02149958 -5.85904796 29.57339413 -10.48046875 29.6484375 C-11.42535156 29.67421875 -12.37023438 29.7 -13.34375 29.7265625 C-16.16796875 29.3984375 -16.16796875 29.3984375 -21.16796875 26.3984375 C-21.49796875 31.0184375 -21.82796875 35.6384375 -22.16796875 40.3984375 C-23.81796875 40.3984375 -25.46796875 40.3984375 -27.16796875 40.3984375 C-27.16796875 26.2084375 -27.16796875 12.0184375 -27.16796875 -2.6015625 C-25.51796875 -2.6015625 -23.86796875 -2.6015625 -22.16796875 -2.6015625 C-21.83796875 -1.6115625 -21.50796875 -0.6215625 -21.16796875 0.3984375 C-20.61109375 -0.0759375 -20.05421875 -0.5503125 -19.48046875 -1.0390625 C-13.59482991 -5.0158455 -5.60728073 -4.1423155 0 0 Z M-19.16796875 4.3984375 C-22.38366543 8.04289373 -22.69135142 11.55227908 -22.51953125 16.24609375 C-21.97785519 19.56235494 -20.64342085 21.19060185 -18.16796875 23.3984375 C-15.08102054 25.23392022 -13.28388931 25.40050751 -9.66796875 25.3359375 C-5.38695808 24.18923821 -3.84048296 22.91088475 -1.16796875 19.3984375 C0.74520529 15.0937959 1.06987504 13.19125012 -0.29296875 8.6484375 C-2.53485132 4.7477619 -2.53485132 4.7477619 -6.16796875 2.3984375 C-11.52777675 1.00885765 -14.56544718 1.26035461 -19.16796875 4.3984375 Z " fill="#FFFFFF" transform="translate(72.16796875,205.6015625)"/>
<path d="M0 0 C1.65 0 3.3 0 5 0 C11.51936219 13.6332574 11.51936219 13.6332574 13 20 C13.66 20 14.32 20 15 20 C15.09152344 19.33613281 15.18304688 18.67226562 15.27734375 17.98828125 C16.21363279 14.11659955 17.83481743 10.76260551 19.5625 7.1875 C19.89185547 6.49462891 20.22121094 5.80175781 20.56054688 5.08789062 C21.36872251 3.38955052 22.18368377 1.69444231 23 0 C23.66 0 24.32 0 25 0 C26.33934716 2.95564708 27.67044247 5.9149378 29 8.875 C29.3815625 9.71675781 29.763125 10.55851563 30.15625 11.42578125 C30.5171875 12.23144531 30.878125 13.03710938 31.25 13.8671875 C31.58515625 14.61081543 31.9203125 15.35444336 32.265625 16.12060547 C33 18 33 18 33 20 C33.66 20 34.32 20 35 20 C35.391875 18.741875 35.78375 17.48375 36.1875 16.1875 C38.03884094 10.59787448 40.48545526 5.31731793 43 0 C44.65 0 46.3 0 48 0 C47.35057577 4.13545275 45.99296423 7.58404788 44.27734375 11.39453125 C43.73916016 12.59658203 43.20097656 13.79863281 42.64648438 15.03710938 C42.07693432 16.29562334 41.50727145 17.55408625 40.9375 18.8125 C40.36346104 20.09028319 39.78988839 21.36827597 39.21679688 22.64648438 C37.8157713 25.76641527 36.41002202 28.88412718 35 32 C34.34 32 33.68 32 33 32 C31.66065284 29.04435292 30.32955753 26.0850622 29 23.125 C28.6184375 22.28324219 28.236875 21.44148438 27.84375 20.57421875 C27.4828125 19.76855469 27.121875 18.96289062 26.75 18.1328125 C26.41484375 17.38918457 26.0796875 16.64555664 25.734375 15.87939453 C25 14 25 14 25 12 C24.34 12 23.68 12 23 12 C22.608125 13.258125 22.21625 14.51625 21.8125 15.8125 C19.96115906 21.40212552 17.51454474 26.68268207 15 32 C14.34 32 13.68 32 13 32 C11.30269878 28.24929636 9.6122568 24.4955841 7.92797852 20.73901367 C7.35463912 19.46278766 6.77946632 18.18738359 6.20239258 16.9128418 C5.37093679 15.07560429 4.5467168 13.23509763 3.72265625 11.39453125 C3.22515869 10.28956299 2.72766113 9.18459473 2.21508789 8.04614258 C1.13238081 5.33186968 0.45184396 2.87728614 0 0 Z " fill="#FFFFFF" transform="translate(367,203)"/>
<path d="M0 0 C4.35485948 4.75075579 5.0625 7.73309442 5.0625 14.25 C-3.8475 14.25 -12.7575 14.25 -21.9375 14.25 C-19.67968208 20.84757251 -19.67968208 20.84757251 -16.75 23.25 C-12.96203328 24.59683261 -9.70047843 24.55286422 -5.9375 23.25 C-4.25134218 21.60305515 -2.58179829 19.93873879 -0.9375 18.25 C1.875 18.4375 1.875 18.4375 4.0625 19.25 C2.70967831 23.67741644 0.82951112 25.61309221 -2.9375 28.25 C-5.61405801 29.58827901 -7.76184052 29.45578556 -10.75 29.5 C-11.78769531 29.52578125 -12.82539063 29.5515625 -13.89453125 29.578125 C-18.60425094 29.07027333 -21.10933594 27.19318685 -24.1875 23.6875 C-27.8822747 18.54120666 -27.5204028 13.43524642 -26.9375 7.25 C-24.79253227 2.80117804 -22.05615948 -0.03771205 -17.9375 -2.75 C-11.6806079 -4.47819316 -5.53519122 -3.29756072 0 0 Z M-18.9375 4.25 C-19.5975 5.9 -20.2575 7.55 -20.9375 9.25 C-14.3375 9.25 -7.7375 9.25 -0.9375 9.25 C-2.38862932 4.20272527 -2.38862932 4.20272527 -5.8125 2.4375 C-11.11239283 0.42354072 -14.27267977 1.30913507 -18.9375 4.25 Z " fill="#FFFFFF" transform="translate(328.9375,205.75)"/>
<path d="M0 0 C0.33 -0.99 0.66 -1.98 1 -3 C2.65 -3 4.3 -3 6 -3 C6 7.56 6 18.12 6 29 C4.35 29 2.7 29 1 29 C0.67 28.01 0.34 27.02 0 26 C-1.05767578 26.72316406 -1.05767578 26.72316406 -2.13671875 27.4609375 C-6.96154666 30.05436478 -11.67585873 29.97115643 -17 29 C-21.19257404 26.65031565 -23.99669054 23.63037787 -26.5 19.5625 C-27.75444816 13.13345319 -27.44721157 8.47705191 -24.26953125 2.76171875 C-21.76750286 -0.71032681 -18.61176434 -2.39014322 -14.6875 -3.875 C-9.34795501 -4.12335093 -4.43620577 -2.95747051 0 0 Z M-19.8125 5.75 C-21.48307261 8.91529548 -21.87671301 11.42467732 -22 15 C-20.71567864 18.85296407 -19.32079615 20.70904535 -16.3125 23.4375 C-12.66491956 25.15805681 -10.78344239 25.40198366 -6.8984375 24.6875 C-3.12746325 23.3218797 -0.75566497 20.51132994 1 17 C1.5942562 11.99126915 1.5856391 9.11489182 -1.5625 5.0625 C-3.95903667 2.59829641 -5.10084633 1.96758511 -8.5 0.875 C-13.3382631 1.04779511 -16.33480026 2.39222094 -19.8125 5.75 Z " fill="#FFFFFF" transform="translate(200,206)"/>
<path d="M0 0 C3.97171384 3.04216379 6.25600946 6.31876224 8 11 C8.71330292 17.3178259 7.6703955 21.76650232 4 27 C0.16354896 30.93482158 -3.20345748 31.30717934 -8.5 31.5 C-13.79654252 31.30717934 -17.16354896 30.93482158 -21 27 C-24.05040913 22.65052073 -25.69856691 18.36239967 -25.3828125 13.015625 C-24.37163202 7.69145022 -22.2167249 4.00962279 -18.0625 0.5625 C-11.82127344 -2.62179926 -6.53714501 -2.17545847 0 0 Z M-16 6 C-18.55669154 9.02766104 -19.8474933 11.08495982 -20.5 15 C-19.8474933 18.91504018 -18.55669154 20.97233896 -16 24 C-12.74080547 26.19641371 -10.8731572 27.01781953 -6.9375 26.9375 C-2.82443389 25.62481933 -0.16699453 23.66713504 2.3125 20.125 C3.73120666 15.73990667 3.47082662 12.92354453 1.375 8.8125 C-1.22908715 5.72871258 -3.25351277 4.4348249 -7 3 C-10.84759538 3 -12.72281888 3.99356258 -16 6 Z " fill="#FFFFFF" transform="translate(25,204)"/>
<path d="M0 0 C3.71070819 3.40983996 5.30803817 6.7351349 6.08984375 11.7734375 C6.06565355 18.11126955 4.2589602 22.33318149 0.08984375 27.0234375 C-4.00546792 30.60683522 -8.78354222 30.1093285 -13.9609375 30.046875 C-18.00341674 29.6720756 -20.00924224 28.60182866 -22.91015625 25.7734375 C-26.57093906 20.95661802 -27.56853639 17.24724185 -27.29296875 11.203125 C-26.46207836 5.92951456 -24.15095406 2.77663573 -19.97265625 -0.6015625 C-13.55673534 -4.0059287 -6.24268391 -4.00859457 0 0 Z M-20.78515625 7.5234375 C-22.50790292 10.96893084 -22.74847229 14.07660118 -21.91015625 17.7734375 C-19.56317822 22.11784365 -17.11880167 24.38494433 -12.41015625 25.8984375 C-7.55819991 25.72515335 -4.5315505 24.39483175 -1.09765625 20.9609375 C0.46154916 18.08871701 0.96116662 16.05470432 1.08984375 12.7734375 C-0.050388 9.23271787 -1.11301026 6.62752249 -3.66015625 3.8984375 C-11.00469019 0.22617053 -15.12075917 2.23666689 -20.78515625 7.5234375 Z " fill="#FFFFFF" transform="translate(449.91015625,205.2265625)"/>
<path d="M0 0 C4.48942223 4.89755152 5.63532852 9.2747406 5.41015625 15.78515625 C4.68153511 20.95099824 2.29323699 24.05003144 -1.4375 27.6875 C-6.50987443 29.95195287 -11.46312552 30.0678406 -16.9375 29.25 C-22.00085839 26.68938733 -24.84681457 23.58718305 -27.25 18.4375 C-28.33306272 13.4160274 -27.82350677 9.25517321 -25.75 4.5625 C-22.9519661 0.99259468 -20.00482754 -2.15691423 -15.5546875 -3.43359375 C-10.04968673 -4.09912369 -4.73404238 -2.82028057 0 0 Z M-18.9375 4.25 C-21.95622504 7.26872504 -22.77104705 10.00544971 -22.9375 14.25 C-21.79726825 17.79071963 -20.73464599 20.39591501 -18.1875 23.125 C-15.03116797 24.70316602 -12.46131827 25.12635725 -8.9375 25.25 C-4.8251012 23.52853074 -2.22497334 21.06245557 0.0625 17.25 C0.79559049 12.1436839 0.79559049 12.1436839 -0.92578125 7.47265625 C-3.17312503 4.6269485 -5.46541059 2.37002884 -8.9375 1.25 C-13.35258647 1.25 -15.19486648 2.02034599 -18.9375 4.25 Z " fill="#FFFFFF" transform="translate(576.9375,205.75)"/>
<path d="M0 0 C1.65 0 3.3 0 5 0 C5.33 7.26 5.66 14.52 6 22 C9.65303397 18.39892012 9.65303397 18.39892012 13.26782227 14.75976562 C16.3178738 11.85983667 17.52307055 11.0420118 21.90234375 10.65625 C22.92457031 10.7696875 23.94679688 10.883125 25 11 C23.45573948 15.0352998 20.86022131 16.9494858 17.5 19.5625 C14.4053626 21.97713155 12.18385795 23.72421308 10 27 C10.4846875 27.42410156 10.969375 27.84820312 11.46875 28.28515625 C12.87629133 29.51675492 14.28244835 30.74993677 15.6875 31.984375 C17.21889332 33.31917053 18.76051586 34.64232759 20.3125 35.953125 C21.034375 36.56671875 21.75625 37.1803125 22.5 37.8125 C23.1703125 38.37582031 23.840625 38.93914062 24.53125 39.51953125 C26 41 26 41 26 43 C23.5 43.4375 23.5 43.4375 20 43 C17.07092046 40.94267032 14.57730057 38.47502674 12 36 C10.84287317 35.00957788 9.67733977 34.02880717 8.5 33.0625 C7.675 32.381875 6.85 31.70125 6 31 C5.67 34.96 5.34 38.92 5 43 C3.35 43 1.7 43 0 43 C0 28.81 0 14.62 0 0 Z " fill="#FFFFFF" transform="translate(490,192)"/>
<path d="M0 0 C3.42804303 2.75733896 5.25886369 4.68987307 6 9 C6.07991104 10.80581755 6.10769823 12.61431809 6.09765625 14.421875 C6.09443359 15.44667969 6.09121094 16.47148437 6.08789062 17.52734375 C6.07951172 18.59082031 6.07113281 19.65429688 6.0625 20.75 C6.05798828 21.82894531 6.05347656 22.90789062 6.04882812 24.01953125 C6.03705727 26.67974383 6.02061399 29.33984365 6 32 C4.35 32 2.7 32 1 32 C0.98018066 31.35450195 0.96036133 30.70900391 0.93994141 30.04394531 C0.84453672 27.11222779 0.73492029 24.18120768 0.625 21.25 C0.5940625 20.23421875 0.563125 19.2184375 0.53125 18.171875 C0.49257813 17.1921875 0.45390625 16.2125 0.4140625 15.203125 C0.36693115 13.85202637 0.36693115 13.85202637 0.31884766 12.47363281 C-0.01979572 9.84642404 -0.50664854 8.18662706 -2 6 C-5.49411688 5.07702573 -8.2353536 4.89804715 -11.8125 5.375 C-14.67176563 7.4990259 -15.06735088 9.57562913 -15.6640625 13.00390625 C-16.37205388 19.31820148 -16.70415551 25.65491431 -17 32 C-18.65 32 -20.3 32 -22 32 C-22 21.44 -22 10.88 -22 0 C-20.35 0 -18.7 0 -17 0 C-16.67 0.99 -16.34 1.98 -16 3 C-15.2575 2.525625 -14.515 2.05125 -13.75 1.5625 C-8.85131022 -1.22084646 -5.56073397 -1.36579431 0 0 Z " fill="#FFFFFF" transform="translate(284,203)"/>
<path d="M0 0 C0.7528125 0.12503906 1.505625 0.25007812 2.28125 0.37890625 C5.6490076 1.98570609 7.26829814 4.0002018 8.5 7.4375 C8.97482843 11.74248747 8.87689485 15.98831413 8.75 20.3125 C8.73195313 21.4778125 8.71390625 22.643125 8.6953125 23.84375 C8.6483382 26.70918249 8.58266293 29.57291168 8.5 32.4375 C6.85 32.4375 5.2 32.4375 3.5 32.4375 C3.4906543 31.76170898 3.48130859 31.08591797 3.47167969 30.38964844 C3.41792699 27.3215289 3.33429008 24.25492613 3.25 21.1875 C3.23582031 20.12402344 3.22164062 19.06054688 3.20703125 17.96484375 C3.17480469 16.94003906 3.14257812 15.91523438 3.109375 14.859375 C3.08842773 13.91674805 3.06748047 12.97412109 3.04589844 12.00292969 C2.34298762 8.69962606 1.1598313 7.46840567 -1.5 5.4375 C-5.49657009 5.36613268 -7.62911101 5.679388 -10.671875 8.328125 C-13.34124202 12.86833045 -13.17346495 17.06996895 -13.25 22.25 C-13.27964844 23.22904297 -13.30929687 24.20808594 -13.33984375 25.21679688 C-13.41029202 27.62377953 -13.46311025 30.0298079 -13.5 32.4375 C-15.15 32.4375 -16.8 32.4375 -18.5 32.4375 C-18.5 21.8775 -18.5 11.3175 -18.5 0.4375 C-16.85 0.4375 -15.2 0.4375 -13.5 0.4375 C-13.17 1.4275 -12.84 2.4175 -12.5 3.4375 C-11.9225 2.963125 -11.345 2.48875 -10.75 2 C-7.12482847 -0.51748023 -4.29951113 -0.8172016 0 0 Z " fill="#FFFFFF" transform="translate(823.5,202.5625)"/>
<path d="M0 0 C2.46394833 2.15595479 3.27100386 2.98155398 3.5 6.1875 C1.375 6.9375 1.375 6.9375 -1.5 7.1875 C-2.4075 6.5275 -3.315 5.8675 -4.25 5.1875 C-8.11935798 2.80635663 -10.01231113 2.77926832 -14.37890625 3.515625 C-17.81681419 4.60461242 -19.43709655 6.28654202 -21.5 9.1875 C-22.84418906 13.05204353 -22.5762231 14.922961 -21.4375 18.875 C-19.13130379 22.81785158 -17.85252068 23.87353149 -13.5 25.1875 C-7.72220381 25.45274813 -3.99102895 23.66804744 0.5 20.1875 C1.49 20.8475 2.48 21.5075 3.5 22.1875 C3.4375 23.9375 3.4375 23.9375 2.5 26.1875 C-2.82759614 30.5464423 -7.69464124 30.79950448 -14.46875 30.57421875 C-18.43979328 30.06760369 -20.60115996 28.93768158 -23.5 26.1875 C-24.263125 25.465625 -25.02625 24.74375 -25.8125 24 C-28.49981401 19.52114332 -29.04925575 15.13974963 -28.09375 10.00390625 C-26.48267646 4.93094253 -24.01668404 2.14071649 -19.5 -0.8125 C-12.66150345 -3.65112121 -6.51406488 -3.37335503 0 0 Z " fill="#FFFFFF" transform="translate(158.5,204.8125)"/>
<path d="M0 0 C7.59 0 15.18 0 23 0 C22.17127244 3.31491024 21.60003148 4.93342213 19.85546875 7.6796875 C19.42556641 8.36160156 18.99566406 9.04351562 18.55273438 9.74609375 C17.87694336 10.79990234 17.87694336 10.79990234 17.1875 11.875 C16.74857422 12.56980469 16.30964844 13.26460937 15.85742188 13.98046875 C13.29294121 18.0272421 10.65867624 22.01198563 8 26 C12.95 26.33 17.9 26.66 23 27 C23 28.65 23 30.3 23 32 C14.75 32 6.5 32 -2 32 C2.74274245 22.88894214 8.21716957 14.46853231 14 6 C7.07 5.505 7.07 5.505 0 5 C0 3.35 0 1.7 0 0 Z " fill="#FFFFFF" transform="translate(755,203)"/>
<path d="M0 0 C1.65 0 3.3 0 5 0 C5 3.63 5 7.26 5 11 C7.31 11 9.62 11 12 11 C12 12.65 12 14.3 12 16 C9.69 16 7.38 16 5 16 C5 24.91 5 33.82 5 43 C3.35 43 1.7 43 0 43 C0 34.09 0 25.18 0 16 C-1.65 16 -3.3 16 -5 16 C-5 14.35 -5 12.7 -5 11 C-3.35 11 -1.7 11 0 11 C0 7.37 0 3.74 0 0 Z " fill="#FFFFFF" transform="translate(349,192)"/>
<path d="M0 0 C1.65 0 3.3 0 5 0 C5 3.63 5 7.26 5 11 C6.98 11 8.96 11 11 11 C11 12.65 11 14.3 11 16 C9.02 16 7.04 16 5 16 C5 24.91 5 33.82 5 43 C3.35 43 1.7 43 0 43 C0 34.09 0 25.18 0 16 C-1.65 16 -3.3 16 -5 16 C-5 14.35 -5 12.7 -5 11 C-3.35 11 -1.7 11 0 11 C0 7.37 0 3.74 0 0 Z " fill="#FFFFFF" transform="translate(642,192)"/>
<path d="M0 0 C1.65 0 3.3 0 5 0 C5 3.63 5 7.26 5 11 C6.98 11 8.96 11 11 11 C11 12.65 11 14.3 11 16 C9.02 16 7.04 16 5 16 C5 24.91 5 33.82 5 43 C3.35 43 1.7 43 0 43 C0 34.09 0 25.18 0 16 C-1.65 16 -3.3 16 -5 16 C-5 14.35 -5 12.7 -5 11 C-3.35 11 -1.7 11 0 11 C0 7.37 0 3.74 0 0 Z " fill="#FFFFFF" transform="translate(93,192)"/>
<path d="M0 0 C-0.33 1.65 -0.66 3.3 -1 5 C-2.3921875 5.061875 -2.3921875 5.061875 -3.8125 5.125 C-7.15714018 5.67508532 -7.15714018 5.67508532 -8.65625 8.40625 C-10.41554369 13.11133776 -10.56305681 17.39016127 -10.6875 22.375 C-10.72166016 23.30183594 -10.75582031 24.22867188 -10.79101562 25.18359375 C-10.87299552 27.45560812 -10.94230494 29.72726104 -11 32 C-12.65 32 -14.3 32 -16 32 C-16 21.44 -16 10.88 -16 0 C-14.35 0 -12.7 0 -11 0 C-10.67 0.66 -10.34 1.32 -10 2 C-9.278125 1.484375 -8.55625 0.96875 -7.8125 0.4375 C-4.5804634 -1.21442982 -3.38391693 -1.06351675 0 0 Z " fill="#FFFFFF" transform="translate(482,203)"/>
<path d="M0 0 C1.65 0 3.3 0 5 0 C5 14.19 5 28.38 5 43 C3.35 43 1.7 43 0 43 C0 28.81 0 14.62 0 0 Z " fill="#FFFFFF" transform="translate(219,192)"/>
<path d="M0 0 C1.65 0 3.3 0 5 0 C5 10.56 5 21.12 5 32 C3.35 32 1.7 32 0 32 C0 21.44 0 10.88 0 0 Z " fill="#FFFFFF" transform="translate(787,203)"/>
<path d="M0 0 C1.65 0 3.3 0 5 0 C5 10.56 5 21.12 5 32 C3.35 32 1.7 32 0 32 C0 21.44 0 10.88 0 0 Z " fill="#FFFFFF" transform="translate(740,203)"/>
<path d="M0 0 C1.65 0 3.3 0 5 0 C5 10.56 5 21.12 5 32 C3.35 32 1.7 32 0 32 C0 21.44 0 10.88 0 0 Z " fill="#FFFFFF" transform="translate(663,203)"/>
<path d="M0 0 C1.65 0 3.3 0 5 0 C5 10.56 5 21.12 5 32 C3.35 32 1.7 32 0 32 C0 21.44 0 10.88 0 0 Z " fill="#FFFFFF" transform="translate(114,203)"/>
<path d="M0 0 C2.5 0.125 2.5 0.125 3.5 1.125 C3.625 3.625 3.625 3.625 3.5 6.125 C2.5 7.125 2.5 7.125 0 7.25 C-2.5 7.125 -2.5 7.125 -3.5 6.125 C-3.625 3.625 -3.625 3.625 -3.5 1.125 C-2.5 0.125 -2.5 0.125 0 0 Z " fill="#FFFFFF" transform="translate(789.5,190.875)"/>
<path d="M0 0 C2.5 0.125 2.5 0.125 3.5 1.125 C3.625 3.625 3.625 3.625 3.5 6.125 C2.5 7.125 2.5 7.125 0 7.25 C-2.5 7.125 -2.5 7.125 -3.5 6.125 C-3.625 3.625 -3.625 3.625 -3.5 1.125 C-2.5 0.125 -2.5 0.125 0 0 Z " fill="#FFFFFF" transform="translate(116.5,190.875)"/>
<path d="M0 0 C1.65 0 3.3 0 5 0 C5.66 1.32 6.32 2.64 7 4 C6.01 5.485 6.01 5.485 5 7 C3.35 6.67 1.7 6.34 0 6 C-1.125 2.25 -1.125 2.25 0 0 Z " fill="#FFFFFF" transform="translate(663,191)"/>
<path d="M0 0 C1.2065625 0.0309375 1.2065625 0.0309375 2.4375 0.0625 C3.0625 2.4375 3.0625 2.4375 3.4375 5.0625 C2.7775 5.7225 2.1175 6.3825 1.4375 7.0625 C-1.1875 6.6875 -1.1875 6.6875 -3.5625 6.0625 C-3.605221 4.39638095 -3.60313832 2.72867115 -3.5625 1.0625 C-2.5625 0.0625 -2.5625 0.0625 0 0 Z " fill="#FFFFFF" transform="translate(742.5625,190.9375)"/>
</svg>
