<svg width="154" height="24" viewBox="0 0 154 24" fill="none" xmlns="http://www.w3.org/2000/svg">
<path fill-rule="evenodd" clip-rule="evenodd" d="M42.9442 1.44825C42.6988 1.02075 42.4029 0.671251 42.0683 0.414751C41.7084 0.13875 41.2675 0 40.7605 0C40.2534 0 39.8095 0.138 39.4407 0.411001C39.0935 0.668251 38.7916 1.0185 38.5418 1.45425L25.6201 23.1578L25.3041 23.6888H30.601L30.6999 23.5155L40.6065 6.62101L45.0022 14.067H38.5187L38.4191 14.2403L36.564 17.4525L36.2592 17.9805H47.3019L50.5734 23.517L50.6738 23.6888H56.2175L55.8993 23.157L42.9442 1.44825ZM19.542 16.2256L4.27227 0.942785C3.95553 0.624034 3.64102 0.390784 3.33841 0.249783C3.02464 0.103533 2.69378 0.030033 2.35696 0.030033C1.635 0.030033 1.05208 0.287283 0.623814 0.792784C0.210416 1.28179 0 1.94104 0 2.75179V23.6881H4.43659V7.59455L19.6423 23.0236C20.2654 23.6506 20.9509 23.9686 21.6825 23.9686C22.3606 23.9686 22.922 23.7181 23.351 23.2246C23.7674 22.7453 23.9778 22.0793 23.9778 21.2476V0.123783H19.542V16.2256ZM89.5598 23.6887H84.9374V0.311951H89.5598V23.6887ZM116.78 0.311951H122.109L121.791 0.842952L108.839 22.5465C108.588 22.9815 108.286 23.3332 107.938 23.5897C107.57 23.862 107.137 24 106.651 24C106.147 24 105.702 23.862 105.332 23.5897C104.985 23.3332 104.683 22.9815 104.436 22.5517L91.5119 0.842952L91.1959 0.311951H96.802L96.9016 0.483701L106.806 17.4375L116.679 0.484451L116.78 0.311951ZM142.876 14.7892C142.542 15.6577 142.073 16.4099 141.481 17.0272C140.888 17.6452 140.171 18.1379 139.352 18.4927C138.535 18.8467 137.624 19.0252 136.646 19.0252H131.172C130.214 19.0252 129.319 18.8467 128.512 18.4934C127.703 18.1387 126.997 17.6467 126.416 17.0294C125.83 16.4107 125.366 15.6577 125.033 14.7899C124.701 13.9207 124.532 12.9667 124.532 11.9534C124.532 10.9199 124.7 9.96591 125.033 9.11916C125.365 8.27241 125.829 7.53515 126.413 6.92615C126.995 6.3194 127.7 5.8364 128.509 5.49215C129.317 5.14865 130.213 4.9739 131.172 4.9739H136.646C137.624 4.9739 138.536 5.14865 139.356 5.4929C140.174 5.83715 140.89 6.32015 141.483 6.92765C142.075 7.53515 142.543 8.27691 142.876 9.13416C143.209 9.99366 143.377 10.9417 143.377 11.9534C143.377 12.9644 143.209 13.9184 142.876 14.7892ZM144.837 3.50246C145.835 4.50971 146.621 5.72921 147.172 7.12946C147.721 8.52672 148 10.0867 148 11.766C148 13.4445 147.717 15.0307 147.157 16.4782C146.597 17.9272 145.803 19.2 144.795 20.2582C143.789 21.3165 142.582 22.161 141.206 22.7692C139.828 23.3797 138.293 23.6887 136.646 23.6887H131.172C129.564 23.6887 128.055 23.3797 126.687 22.7692C125.321 22.161 124.119 21.3157 123.113 20.2582C122.106 19.1992 121.311 17.9272 120.753 16.4782C120.193 15.03 119.91 13.4437 119.91 11.766C119.91 10.0657 120.194 8.48997 120.754 7.08221C121.314 5.67146 122.111 4.45121 123.121 3.45296C124.129 2.45771 125.332 1.67695 126.7 1.1317C128.064 0.587951 129.569 0.311951 131.172 0.311951H136.646C138.309 0.311951 139.855 0.592451 141.241 1.14745C142.629 1.70395 143.839 2.49595 144.837 3.50246ZM82.2771 0.943452L67.9301 11.7375L82.7433 23.0572L83.5686 23.6887H76.4144L76.32 23.613L63.7292 13.6282C63.3322 13.2982 63.0779 12.996 62.9508 12.702C62.8273 12.4155 62.7753 12.0757 62.7983 11.6925C62.7998 11.292 62.8734 10.935 63.0184 10.6312C63.1656 10.3207 63.4601 9.98997 63.924 9.61647L75.8278 0.384701L75.9215 0.311951H83.1173L82.2771 0.943452ZM62.288 23.6887H57.6655V0.311951H62.288V23.6887Z" fill="white"/>
<path fill-rule="evenodd" clip-rule="evenodd" d="M151.208 5.50671C152.77 5.50671 154 4.28534 154 2.74517C154 1.20579 152.77 0 151.224 0C149.647 0 148.4 1.20579 148.4 2.74517C148.4 4.28534 149.647 5.50671 151.208 5.50671ZM149.097 2.74515C149.097 3.9673 150.011 4.9377 151.224 4.9377C152.403 4.95485 153.301 3.9673 153.301 2.7623C153.301 1.54014 152.403 0.553375 151.191 0.553375C150.011 0.553375 149.097 1.54014 149.097 2.74515ZM150.144 4.16868H150.776V3.07981H151.075C151.424 3.07981 151.589 3.21387 151.64 3.49914L151.668 3.61209L151.668 3.61209L151.668 3.61209C151.735 3.88631 151.782 4.07918 151.855 4.16868H152.52C152.471 4.06735 152.403 3.9177 152.321 3.49914C152.238 3.13125 152.105 2.91379 151.838 2.82883V2.79609C152.155 2.69555 152.403 2.47808 152.403 2.14293C152.403 1.8748 152.288 1.67448 152.122 1.55757C151.939 1.42351 151.706 1.34011 151.191 1.34011C150.762 1.34011 150.424 1.38573 150.178 1.41903L150.178 1.41903L150.178 1.41903L150.144 1.42351V4.16868ZM151.092 2.62823H150.793V1.84178C150.859 1.82463 150.975 1.80826 151.142 1.80826C151.541 1.80826 151.724 1.97506 151.724 2.22682C151.724 2.51131 151.441 2.62823 151.092 2.62823Z" fill="white"/>
</svg>
