<?xml version="1.0" encoding="UTF-8"?>
<svg version="1.1" xmlns="http://www.w3.org/2000/svg" width="463" height="147">
<path d="M0 0 C0.5775 0.2475 1.155 0.495 1.75 0.75 C2.89883145 15.17421709 -3.76485502 26.03838634 -11.25 37.75 C-12.85754591 40.27571069 -14.4641266 42.80201738 -16.06835938 45.32983398 C-17.12803883 46.99556956 -18.19294901 48.65799187 -19.26367188 50.31665039 C-24.53945357 58.42196479 -24.53945357 58.42196479 -24.90917969 67.96191406 C-23.42672393 74.23215285 -20.80035369 80.17121631 -18.375 86.125 C-4.6042514 120.18991149 -4.6042514 120.18991149 -11.06640625 136.85546875 C-13.26784392 141.17544476 -16.01804702 143.50447393 -20.25 145.75 C-23.125 146.5 -23.125 146.5 -25.25 146.75 C-26.23113243 145.45982586 -27.20984199 144.16780894 -28.1875 142.875 C-28.73277344 142.15570313 -29.27804687 141.43640625 -29.83984375 140.6953125 C-32.65045704 136.81806757 -32.50050501 133.39171052 -32.25 128.75 C-32.03601563 127.6053125 -31.82203125 126.460625 -31.6015625 125.28125 C-30.83220879 119.34051333 -32.29965953 113.6777509 -33.5 107.875 C-33.71785156 106.75480469 -33.93570313 105.63460937 -34.16015625 104.48046875 C-35.49810064 97.77509835 -37.14132584 91.25450537 -39.25 84.75 C-44.20360131 89.1490937 -47.34118792 94.36082827 -50.75 100 C-51.30558594 100.90363281 -51.86117187 101.80726562 -52.43359375 102.73828125 C-55.85329928 108.33050558 -59.11816847 113.99181314 -62.25 119.75 C-60.6 120.08 -58.95 120.41 -57.25 120.75 C-56.58203125 122.4921875 -56.58203125 122.4921875 -56.25 124.75 C-60.73417534 133.64909701 -71.578899 142.27646716 -80.25 146.75 C-83.4375 146.625 -83.4375 146.625 -86.25 145.75 C-89.29114139 141.18828791 -88.8766364 137.09902003 -88.25 131.75 C-83.87119695 114.98651365 -73.54376164 102.28890166 -62.6875 89.25 C-51.81623237 76.89265544 -51.81623237 76.89265544 -48.25 61.75 C-49.18853186 59.31040009 -50.14130729 57.21386988 -51.375 54.9375 C-51.71466797 54.28168945 -52.05433594 53.62587891 -52.40429688 52.95019531 C-54.83899991 48.28822092 -57.37674926 43.68170633 -59.8984375 39.06640625 C-60.53896016 37.88976271 -61.17942212 36.71308612 -61.81982422 35.53637695 C-63.09382004 33.19604332 -64.38122355 30.86483764 -65.67626953 28.53588867 C-66.26778809 27.45670166 -66.85930664 26.37751465 -67.46875 25.265625 C-68.00435547 24.29915039 -68.53996094 23.33267578 -69.09179688 22.33691406 C-70.25 19.75 -70.25 19.75 -70.25 15.75 C-67.83804538 14.27170523 -66.02225669 13.63734677 -63.19311523 14.05004883 C-56.58622058 15.97108108 -53.84879629 18.89972796 -50.25 24.625 C-49.74799072 25.37644287 -49.24598145 26.12788574 -48.72875977 26.90209961 C-47.21494392 29.17174156 -45.7313983 31.45911084 -44.25 33.75 C-42.96165446 35.7035064 -41.66515823 37.65044249 -40.35351562 39.58837891 C-39.25170666 41.21756126 -38.17011564 42.86036411 -37.08984375 44.50390625 C-36.48269531 45.24511719 -35.87554687 45.98632812 -35.25 46.75 C-34.26 46.75 -33.27 46.75 -32.25 46.75 C-30.58739847 44.67339313 -30.58739847 44.67339313 -29.0625 41.9140625 C-28.45124268 40.87725342 -27.83998535 39.84044434 -27.21020508 38.7722168 C-26.23990356 37.09059448 -26.23990356 37.09059448 -25.25 35.375 C-24.2392686 33.65782106 -23.2285311 31.94064528 -22.21650696 30.22422791 C-21.20010413 28.4975978 -20.18817801 26.76841221 -19.17724609 25.03857422 C-16.50761582 20.48322588 -13.7979032 15.95358582 -11.0625 11.4375 C-10.63001953 10.71062988 -10.19753906 9.98375977 -9.75195312 9.23486328 C-3.89871092 -0.4331901 -3.89871092 -0.4331901 0 0 Z " fill="#FFFFFF" transform="translate(461.25,0.25)"/>
<path d="M0 0 C5.919375 -0.061875 11.83875 -0.12375 17.9375 -0.1875 C20.71208618 -0.22846802 20.71208618 -0.22846802 23.54272461 -0.27026367 C25.03759105 -0.2790398 26.53246477 -0.28668105 28.02734375 -0.29296875 C29.15662292 -0.3159906 29.15662292 -0.3159906 30.30871582 -0.33947754 C37.14135485 -0.34277993 43.15045975 1.18114452 48.9375 4.875 C52.55872064 8.6059546 53.13917805 11.8635245 53.375 16.9375 C53.26134609 21.71806766 52.27804669 24.37689576 49 28 C47.05753039 29.51607384 45.13034157 30.7411618 43 32 C45.84675172 35.39458023 48.67154173 38.74672619 51.875 41.8125 C54 44 54 44 54 46 C49.7807012 46.80795083 46.20277295 46.97952114 42 46 C39.8823617 44.05523013 38.13428484 42.24712995 36.3125 40.0625 C33.04818217 36.1925243 30.6073384 33.75264396 25.46484375 32.98046875 C21.29132452 32.6591634 17.17499667 32.74277272 13 33 C13 30.36 13 27.72 13 25 C13.9446814 24.97812622 13.9446814 24.97812622 14.90844727 24.95581055 C17.79371321 24.88081006 20.67788723 24.78432361 23.5625 24.6875 C24.55314453 24.66494141 25.54378906 24.64238281 26.56445312 24.61914062 C32.37633942 24.40674611 36.93415409 23.97297934 42 21 C43.32548832 17.55663226 43.32548832 17.55663226 43 14 C41.49597949 11.85139927 40.32895015 11.16447508 38 10 C35.82325217 9.84530633 33.6421652 9.74997894 31.4609375 9.68359375 C30.28837402 9.64548584 29.11581055 9.60737793 27.90771484 9.56811523 C26.41191895 9.52501221 24.91612305 9.48190918 23.375 9.4375 C16.259375 9.2209375 16.259375 9.2209375 9 9 C9 21.21 9 33.42 9 46 C6.03 46 3.06 46 0 46 C0 30.82 0 15.64 0 0 Z " fill="#FDF8F8" transform="translate(116,47)"/>
<path d="M0 0 C1.25127686 0.00628418 1.25127686 0.00628418 2.52783203 0.01269531 C9.95388448 0.14884685 16.08997946 1.16074837 22.5 5.0625 C28.00377596 10.89002748 29.96509441 17.06674072 29.8359375 24.9453125 C29.20371012 32.0403087 25.83432484 37.55725674 20.625 42.3125 C10.81641381 48.19765171 -2.79479526 47.76050229 -13.76953125 45.6640625 C-20.25393446 43.33326319 -24.44572037 39.16440656 -27.5078125 33.05078125 C-29.42016652 27.01222194 -29.44511322 19.12517885 -27.72265625 12.98828125 C-24.71342792 7.2410426 -19.8153899 3.08067412 -13.7265625 1.1640625 C-9.14706388 0.12850014 -4.6813325 -0.03208331 0 0 Z M-17.6875 15.0625 C-20.31197152 20.11703774 -20.92441511 23.51163936 -19.25 29 C-16.72612858 33.4588395 -14.2289882 35.69450393 -9.375 37.3125 C-6.10903032 37.59025109 -2.83899525 37.5898696 0.4375 37.625 C1.77264648 37.66850586 1.77264648 37.66850586 3.13476562 37.71289062 C10.14715027 37.78046735 13.15836441 36.30097895 18.4375 31.75 C20.95053601 28.70790378 20.95917422 25.18439662 20.91015625 21.375 C20.31674103 17.0829009 17.71254917 14.26822503 14.5625 11.5 C10.01190545 8.71092592 5.4666644 9.09361948 0.3125 9.0625 C-0.52990234 9.041875 -1.37230469 9.02125 -2.24023438 9 C-8.77162724 8.95914688 -13.29093747 9.83415537 -17.6875 15.0625 Z " fill="#FDF8F8" transform="translate(82.375,46.6875)"/>
<path d="M0 0 C4.599375 -0.061875 9.19875 -0.12375 13.9375 -0.1875 C15.36956787 -0.21481201 16.80163574 -0.24212402 18.27709961 -0.27026367 C27.30464148 -0.32882274 35.49857276 -0.00131151 42.4375 6.375 C43.07558594 6.93960938 43.71367187 7.50421875 44.37109375 8.0859375 C48.89690737 13.40403983 48.48979887 19.67307128 48.3125 26.32421875 C47.76133653 32.80727912 45.7272309 36.23351385 41.25 40.8125 C32.55113066 46.66750821 24.72689551 46.37453699 14.5 46.1875 C9.715 46.125625 4.93 46.06375 0 46 C0 30.82 0 15.64 0 0 Z M9 9 C9 18.24 9 27.48 9 37 C13.764375 37.0928125 13.764375 37.0928125 18.625 37.1875 C19.6145166 37.21481201 20.6040332 37.24212402 21.62353516 37.27026367 C28.11445275 37.33127594 32.4448222 36.41706008 37.3125 31.8125 C39.44136159 28.26439735 40.19438324 25.08982338 40 21 C38.43707876 15.79026255 36.56277803 12.96580572 32 10 C29.11734851 9.03911617 27.32337729 8.88329059 24.33203125 8.90234375 C23.1251062 8.90609009 23.1251062 8.90609009 21.89379883 8.90991211 C20.87697021 8.91901611 19.8601416 8.92812012 18.8125 8.9375 C15.574375 8.958125 12.33625 8.97875 9 9 Z " fill="#FDF8F8" transform="translate(176,47)"/>
<path d="M0 0 C8.65687971 0.75642638 14.85875551 9.77612584 20.6875 15.5625 C21.32929199 16.19945801 21.97108398 16.83641602 22.63232422 17.49267578 C23.56262451 18.42635986 23.56262451 18.42635986 24.51171875 19.37890625 C25.06303467 19.9313501 25.61435059 20.48379395 26.18237305 21.05297852 C28.56410386 23.60426169 30.76561085 26.31873302 33 29 C33.33 19.43 33.66 9.86 34 0 C36.97 0 39.94 0 43 0 C43.02466963 6.22965199 43.04284548 12.45927571 43.05493164 18.68896484 C43.05996872 20.80941259 43.06679859 22.92985685 43.07543945 25.05029297 C43.08753234 28.09343322 43.09323447 31.13652766 43.09765625 34.1796875 C43.10281754 35.13181122 43.10797882 36.08393494 43.11329651 37.06491089 C43.11337204 37.94567291 43.11344757 38.82643494 43.11352539 39.73388672 C43.115746 40.51110077 43.11796661 41.28831482 43.12025452 42.08908081 C43 44 43 44 42 46 C35.48637499 45.73685964 32.80714229 43.638659 28.41015625 38.99609375 C27.82076767 38.39821548 27.23137909 37.80033722 26.62413025 37.18434143 C24.75562748 35.28240797 22.90913571 33.36064778 21.0625 31.4375 C19.79501971 30.13990714 18.52615303 28.84366694 17.25585938 27.54882812 C14.15140747 24.38354437 11.0776051 21.19229845 8 18 C7.67 27.24 7.34 36.48 7 46 C4.03 46 1.06 46 -2 46 C-2.0493392 39.7703569 -2.08569057 33.54082685 -2.10986328 27.31103516 C-2.11993751 25.1905723 -2.13359733 23.07012339 -2.15087891 20.94970703 C-2.17506489 17.90654057 -2.18646869 14.86355734 -2.1953125 11.8203125 C-2.20563507 10.86818878 -2.21595764 9.91606506 -2.22659302 8.93508911 C-2.22674408 8.05432709 -2.22689514 7.17356506 -2.22705078 6.26611328 C-2.231492 5.48889923 -2.23593323 4.71168518 -2.24050903 3.91091919 C-2 2 -2 2 0 0 Z " fill="#FDF8F8" transform="translate(293,47)"/>
<path d="M0 0 C3.84448151 1.50643874 6.29343046 4.15055568 9.10668945 7.06665039 C9.99501717 7.96346779 9.99501717 7.96346779 10.90129089 8.87840271 C12.78536289 10.78481431 14.65502974 12.70467605 16.5246582 14.62524414 C17.80172674 15.92238067 19.07971159 17.21861576 20.35864258 18.51391602 C23.48904978 21.68495147 26.59959123 24.87379516 29.7121582 28.06274414 C30.0421582 18.82274414 30.3721582 9.58274414 30.7121582 0.06274414 C33.6821582 0.06274414 36.6521582 0.06274414 39.7121582 0.06274414 C39.7368022 6.45312211 39.75499137 12.84347266 39.76708984 19.23388672 C39.77213128 21.40967287 39.77896428 23.58545561 39.78759766 25.76123047 C39.79967158 28.88127481 39.80538825 32.00127453 39.80981445 35.12133789 C39.81497574 36.10049667 39.82013702 37.07965546 39.82545471 38.08848572 C39.82553024 38.98934402 39.82560577 39.89020233 39.82568359 40.81835938 C39.82790421 41.61555893 39.83012482 42.41275848 39.83241272 43.2341156 C39.7121582 45.06274414 39.7121582 45.06274414 38.7121582 46.06274414 C34.70431873 46.23676875 32.67227903 45.80729777 29.4699707 43.32397461 C26.97108493 40.95013689 24.58193657 38.50292477 22.2121582 36.00024414 C21.39618164 35.16557617 20.58020508 34.3309082 19.73950195 33.47094727 C15.35325143 28.95444693 11.11594863 24.33094251 7.00708008 19.56103516 C6.2676664 18.70549562 5.51174575 17.86233169 4.7121582 17.06274414 C4.3821582 26.63274414 4.0521582 36.20274414 3.7121582 46.06274414 C0.7421582 46.06274414 -2.2278418 46.06274414 -5.2878418 46.06274414 C-5.36193156 39.99384239 -5.41641539 33.92520317 -5.45263672 27.85595703 C-5.46773451 25.79080623 -5.48821453 23.72568754 -5.51416016 21.66064453 C-5.55049974 18.69433675 -5.5675581 15.72845243 -5.58081055 12.76196289 C-5.5962944 11.83687424 -5.61177826 10.91178558 -5.62773132 9.95866394 C-5.62807121 8.66766533 -5.62807121 8.66766533 -5.62841797 7.35058594 C-5.6350798 6.59335739 -5.64174164 5.83612885 -5.64860535 5.05595398 C-5.03750782 1.67965499 -3.41861726 0.0937557 0 0 Z " fill="#FDF8F8" transform="translate(5.287841796875,46.937255859375)"/>
<path d="M0 0 C8.06603926 3.00499502 12.69311359 16.12501694 16.75 23.25 C21.80123392 32.1504186 21.80123392 32.1504186 27.15234375 40.87109375 C29.1875 44.1875 29.1875 44.1875 29.1875 46.1875 C25.32768381 46.87849784 22.01598842 47.13692407 18.1875 46.1875 C14.93458923 42.80691526 11.1875 38.07501079 11.1875 33.1875 C3.9275 33.1875 -3.3325 33.1875 -10.8125 33.1875 C-9.4925 30.5475 -8.1725 27.9075 -6.8125 25.1875 C-2.8525 25.1875 1.1075 25.1875 5.1875 25.1875 C3.2075 21.8875 1.2275 18.5875 -0.8125 15.1875 C-3.50780446 18.44002611 -5.82302333 21.69502698 -7.94140625 25.34765625 C-8.50150391 26.30607422 -9.06160156 27.26449219 -9.63867188 28.25195312 C-10.21166016 29.24130859 -10.78464844 30.23066406 -11.375 31.25 C-12.51993357 33.22133254 -13.66699049 35.19143375 -14.81640625 37.16015625 C-15.31986572 38.02906494 -15.8233252 38.89797363 -16.34204102 39.79321289 C-17.73202042 42.05645846 -19.07265432 44.17899325 -20.8125 46.1875 C-23.51171875 46.578125 -23.51171875 46.578125 -26.5 46.4375 C-27.49386719 46.40140625 -28.48773438 46.3653125 -29.51171875 46.328125 C-30.27097656 46.28171875 -31.03023437 46.2353125 -31.8125 46.1875 C-30.30739684 42.09649897 -28.34156044 38.4684034 -26.14453125 34.70703125 C-25.7866301 34.09413742 -25.42872894 33.48124359 -25.0599823 32.84977722 C-24.30270462 31.55533193 -23.54366091 30.26191837 -22.78295898 28.96948242 C-21.64061144 27.02655228 -20.50647927 25.07900031 -19.37304688 23.13085938 C-6.08507889 0.40567193 -6.08507889 0.40567193 0 0 Z " fill="#FDF8F8" transform="translate(258.8125,46.8125)"/>
<path d="M0 0 C13.2 0 26.4 0 40 0 C40 2.97 40 5.94 40 9 C29.77 9 19.54 9 9 9 C9 18.24 9 27.48 9 37 C19.23 37 29.46 37 40 37 C40 39.97 40 42.94 40 46 C26.8 46 13.6 46 0 46 C0 30.82 0 15.64 0 0 Z " fill="#FDF8F8" transform="translate(345,47)"/>
<path d="M0 0 C0.87205078 -0.02449219 1.74410156 -0.04898438 2.64257812 -0.07421875 C5.02041773 -0.08518496 7.22250971 -0.05128843 9.5625 0.375 C11.53515625 2.3984375 11.53515625 2.3984375 12.5625 4.375 C13.2225 4.375 13.8825 4.375 14.5625 4.375 C15.01625 3.715 15.47 3.055 15.9375 2.375 C16.47375 1.715 17.01 1.055 17.5625 0.375 C18.8825 0.375 20.2025 0.375 21.5625 0.375 C20.61305084 3.00424382 19.76408587 5.12503352 18 7.3125 C16.16981895 9.93841194 15.91984122 12.23039725 15.5625 15.375 C14.2425 15.375 12.9225 15.375 11.5625 15.375 C11.335625 14.323125 11.10875 13.27125 10.875 12.1875 C9.6356437 8.07585175 8.25806811 5.78843223 4.5625 3.375 C0.81177611 3.2640631 -2.74881038 3.72253476 -6.4375 4.375 C-5.81101563 4.42398438 -5.18453125 4.47296875 -4.5390625 4.5234375 C-3.72179687 4.59820312 -2.90453125 4.67296875 -2.0625 4.75 C-0.84433594 4.85441406 -0.84433594 4.85441406 0.3984375 4.9609375 C2.5625 5.375 2.5625 5.375 4.5625 7.375 C4.875 10.375 4.875 10.375 4.5625 13.375 C0.93054504 15.79630331 -0.82099348 15.58522785 -5.125 15.5 C-6.30449219 15.48195312 -7.48398438 15.46390625 -8.69921875 15.4453125 C-9.60285156 15.42210937 -10.50648438 15.39890625 -11.4375 15.375 C-11.4375 14.055 -11.4375 12.735 -11.4375 11.375 C-7.1475 11.375 -2.8575 11.375 1.5625 11.375 C1.5625 10.715 1.5625 10.055 1.5625 9.375 C0.28052734 9.28412109 0.28052734 9.28412109 -1.02734375 9.19140625 C-2.13207031 9.10761719 -3.23679688 9.02382812 -4.375 8.9375 C-5.47714844 8.85628906 -6.57929688 8.77507812 -7.71484375 8.69140625 C-10.4375 8.375 -10.4375 8.375 -11.4375 7.375 C-11.625 4.9375 -11.625 4.9375 -11.4375 2.375 C-8.2203744 -0.8421256 -4.37398476 0.00643706 0 0 Z " fill="#FFFFFF" transform="translate(158.4375,116.625)"/>
<path d="M0 0 C8.91 0 17.82 0 27 0 C27 2.97 27 5.94 27 9 C18.09 9 9.18 9 0 9 C0 6.03 0 3.06 0 0 Z " fill="#FDF8F8" transform="translate(356,65)"/>
<path d="M0 0 C2.248125 -0.103125 4.49625 -0.20625 6.8125 -0.3125 C8.70935547 -0.39951172 8.70935547 -0.39951172 10.64453125 -0.48828125 C14 0 14 0 15.9296875 2.32421875 C17.18623009 5.46557523 17.3647728 7.64409024 17 11 C15 14 15 14 12 15 C7.99616868 15.13399703 4.0072645 15.04308887 0 15 C0 10.05 0 5.1 0 0 Z M4 3 C4 3.99 4 4.98 4 6 C7.41656024 6.16677282 7.41656024 6.16677282 11 6 C11.66 5.34 12.32 4.68 13 4 C10.04335481 2.5216774 7.25770263 2.93967217 4 3 Z M4 9 C4 9.66 4 10.32 4 11 C6.97 11 9.94 11 13 11 C12.67 10.34 12.34 9.68 12 9 C9.36 9 6.72 9 4 9 Z " fill="#FFFFFF" transform="translate(300,117)"/>
<path d="M0 0 C1.875 0.0625 1.875 0.0625 4 1 C5.75 4.0625 5.75 4.0625 7 7 C8.74271938 4.702779 10.39911152 2.40133271 12 0 C13.32 0.33 14.64 0.66 16 1 C16.99 5.62 17.98 10.24 19 15 C17.68 15 16.36 15 15 15 C14.67 12.69 14.34 10.38 14 8 C13.34 8 12.68 8 12 8 C11.731875 8.78375 11.46375 9.5675 11.1875 10.375 C10 13 10 13 7 15 C4.49962266 12.82575883 3.56371414 11.26954202 3 8 C2.34 8 1.68 8 1 8 C0.67 10.31 0.34 12.62 0 15 C-1.32 15 -2.64 15 -4 15 C-3.5253725 12.6865641 -3.04517721 10.37426981 -2.5625 8.0625 C-2.29566406 6.77472656 -2.02882812 5.48695312 -1.75390625 4.16015625 C-1 1 -1 1 0 0 Z " fill="#FFFFFF" transform="translate(229,117)"/>
<path d="M0 0 C10.64453125 -0.390625 10.64453125 -0.390625 14 0 C15.96875 1.85546875 15.96875 1.85546875 17 4 C16.6875 6.5625 16.6875 6.5625 16 9 C15.84188612 12.05270463 15.84188612 12.05270463 17 15 C14.6875 15.1875 14.6875 15.1875 12 15 C11 14 10 13 9 12 C5.89160979 11.2730774 5.89160979 11.2730774 3 11 C3 12.32 3 13.64 3 15 C2.01 15 1.02 15 0 15 C0 10.05 0 5.1 0 0 Z M3 3 C3 4.32 3 5.64 3 7 C5.97 7 8.94 7 12 7 C12.33 6.01 12.66 5.02 13 4 C10.71294169 2.85647084 9.40735238 2.89665561 6.875 2.9375 C4.956875 2.9684375 4.956875 2.9684375 3 3 Z " fill="#FFFFFF" transform="translate(282,117)"/>
<path d="M0 0 C1.93166016 0.01740234 1.93166016 0.01740234 3.90234375 0.03515625 C5.19269531 0.04417969 6.48304688 0.05320312 7.8125 0.0625 C8.81152344 0.07410156 9.81054688 0.08570312 10.83984375 0.09765625 C10.83984375 1.08765625 10.83984375 2.07765625 10.83984375 3.09765625 C5.39484375 3.59265625 5.39484375 3.59265625 -0.16015625 4.09765625 C1.26296875 4.20078125 2.68609375 4.30390625 4.15234375 4.41015625 C6.940048 4.6121638 8.40682811 4.76514532 10.640625 6.48046875 C11.83984375 8.09765625 11.83984375 8.09765625 11.71484375 10.66015625 C10.83984375 13.09765625 10.83984375 13.09765625 7.83984375 15.09765625 C4.921875 15.29296875 4.921875 15.29296875 1.65234375 15.22265625 C0.56566406 15.20460937 -0.52101562 15.1865625 -1.640625 15.16796875 C-2.88779297 15.13316406 -2.88779297 15.13316406 -4.16015625 15.09765625 C-4.16015625 13.77765625 -4.16015625 12.45765625 -4.16015625 11.09765625 C-0.20015625 11.09765625 3.75984375 11.09765625 7.83984375 11.09765625 C7.83984375 10.43765625 7.83984375 9.77765625 7.83984375 9.09765625 C7.06898438 9.04867187 6.298125 8.9996875 5.50390625 8.94921875 C4.50101563 8.87445313 3.498125 8.7996875 2.46484375 8.72265625 C0.96824219 8.61824219 0.96824219 8.61824219 -0.55859375 8.51171875 C-3.16015625 8.09765625 -3.16015625 8.09765625 -5.16015625 6.09765625 C-4.43324667 0.13699773 -4.43324667 0.13699773 0 0 Z " fill="#FFFFFF" transform="translate(185.16015625,116.90234375)"/>
<path d="M0 0 C13.47212823 -0.37079252 13.47212823 -0.37079252 15.9296875 1.35546875 C17.44958332 3.69078313 17.34134927 5.26920583 17 8 C16.01 9.485 16.01 9.485 15 11 C15.66 12.32 16.32 13.64 17 15 C12.25 14.25 12.25 14.25 10 12 C8.01178687 11.60235737 6.01055661 11.26224651 4 11 C4 9.68 4 8.36 4 7 C6.97 7 9.94 7 13 7 C12.67 6.01 12.34 5.02 12 4 C9.03 3.67 6.06 3.34 3 3 C3 6.96 3 10.92 3 15 C2.01 15 1.02 15 0 15 C0 10.05 0 5.1 0 0 Z " fill="#FFFFFF" transform="translate(93,117)"/>
<path d="M0 0 C3.93673644 1.31224548 6.22719294 2.91910327 9 6 C9.33 4.02 9.66 2.04 10 0 C11.32 0 12.64 0 14 0 C14 4.62 14 9.24 14 14 C10 14 10 14 8.296875 12.6875 C7.53117187 11.8521875 7.53117187 11.8521875 6.75 11 C6.22921875 10.443125 5.7084375 9.88625 5.171875 9.3125 C4.78515625 8.879375 4.3984375 8.44625 4 8 C3.67 10.31 3.34 12.62 3 15 C1.68 15 0.36 15 -1 15 C-1.02685412 12.68756208 -1.04632841 10.3750373 -1.0625 8.0625 C-1.07410156 6.77472656 -1.08570313 5.48695312 -1.09765625 4.16015625 C-1 1 -1 1 0 0 Z " fill="#FFFFFF" transform="translate(337,117)"/>
<path d="M0 0 C3.96 0 7.92 0 12 0 C12 0.99 12 1.98 12 3 C9.03 3 6.06 3 3 3 C3 3.66 3 4.32 3 5 C5.97 5 8.94 5 12 5 C12 6.32 12 7.64 12 9 C9.03 9 6.06 9 3 9 C3 9.66 3 10.32 3 11 C5.97 11 8.94 11 12 11 C12 12.32 12 13.64 12 15 C8.04 15 4.08 15 0 15 C0 10.05 0 5.1 0 0 Z " fill="#FFFFFF" transform="translate(268,117)"/>
<path d="M0 0 C3.96 0 7.92 0 12 0 C12 0.99 12 1.98 12 3 C9.03 3 6.06 3 3 3 C3 3.66 3 4.32 3 5 C5.97 5 8.94 5 12 5 C12 6.32 12 7.64 12 9 C9.03 9 6.06 9 3 9 C3 9.66 3 10.32 3 11 C5.97 11 8.94 11 12 11 C12 12.32 12 13.64 12 15 C8.04 15 4.08 15 0 15 C0 10.05 0 5.1 0 0 Z " fill="#FFFFFF" transform="translate(212,117)"/>
<path d="M0 0 C10.16725352 -0.48415493 10.16725352 -0.48415493 13.6875 1.5625 C15.53692533 4.99714704 15.6171165 7.16016401 15 11 C13.125 13.4375 13.125 13.4375 10 15 C6.59036212 15.31753879 3.43927106 15.18342779 0 15 C0 10.05 0 5.1 0 0 Z M3 3 C3 5.64 3 8.28 3 11 C6.41656024 11.16677282 6.41656024 11.16677282 10 11 C10.66 10.34 11.32 9.68 12 9 C11.63318342 6.06546739 11.13562754 5.13562754 9 3 C5.91652174 2.83318891 5.91652174 2.83318891 3 3 Z " fill="#FFFFFF" transform="translate(354,117)"/>
<path d="M0 0 C0.99 0 1.98 0 3 0 C3 1.98 3 3.96 3 6 C5.64 6 8.28 6 11 6 C11 4.02 11 2.04 11 0 C12.32 0 13.64 0 15 0 C15 4.95 15 9.9 15 15 C13.68 15 12.36 15 11 15 C11 13.02 11 11.04 11 9 C8.36 9 5.72 9 3 9 C3 10.98 3 12.96 3 15 C2.01 15 1.02 15 0 15 C0 10.05 0 5.1 0 0 Z " fill="#FFFFFF" transform="translate(77,117)"/>
<path d="M0 0 C1.32 0 2.64 0 4 0 C4.33 3.3 4.66 6.6 5 10 C7.31 10 9.62 10 12 10 C12.33 6.7 12.66 3.4 13 0 C13.99 0 14.98 0 16 0 C16.13504138 1.93559313 16.23201129 3.873872 16.3125 5.8125 C16.37050781 6.89144531 16.42851562 7.97039062 16.48828125 9.08203125 C16 12 16 12 13.73828125 13.89453125 C9.56369572 15.57984894 7.37769517 14.98851181 3 14 C1.26953125 12.80078125 1.26953125 12.80078125 0 11 C-0.29296875 8.30078125 -0.29296875 8.30078125 -0.1875 5.3125 C-0.16042969 4.31863281 -0.13335937 3.32476562 -0.10546875 2.30078125 C-0.07066406 1.54152344 -0.03585937 0.78226562 0 0 Z " fill="#FFFFFF" transform="translate(318,117)"/>
<path d="M0 0 C2.1875 0.0625 2.1875 0.0625 5 1 C6.93157957 3.1717219 8.48201687 5.52601047 10 8 C10.47179687 7.13375 10.47179687 7.13375 10.953125 6.25 C11.59507812 5.13625 11.59507812 5.13625 12.25 4 C12.66765625 3.2575 13.0853125 2.515 13.515625 1.75 C14.00546875 1.1725 14.4953125 0.595 15 0 C16.32 0 17.64 0 19 0 C17.58307609 5.15245057 15.35631554 9.82701421 12 14 C11.01 14.33 10.02 14.66 9 15 C0 4.33333333 0 4.33333333 0 0 Z " fill="#FFFFFF" transform="translate(248,117)"/>
<path d="M0 0 C4.62 0 9.24 0 14 0 C14 0.99 14 1.98 14 3 C12.35 3 10.7 3 9 3 C9 6.96 9 10.92 9 15 C7.68 15 6.36 15 5 15 C5 11.04 5 7.08 5 3 C3.35 3 1.7 3 0 3 C0 2.01 0 1.02 0 0 Z " fill="#FFFFFF" transform="translate(197,117)"/>
<path d="M0 0 C4.62 0 9.24 0 14 0 C14 0.99 14 1.98 14 3 C12.35 3 10.7 3 9 3 C9 6.96 9 10.92 9 15 C7.68 15 6.36 15 5 15 C5 11.04 5 7.08 5 3 C3.35 3 1.7 3 0 3 C0 2.01 0 1.02 0 0 Z " fill="#FFFFFF" transform="translate(123,117)"/>
<path d="M0 0 C1.32 0 2.64 0 4 0 C4 4.95 4 9.9 4 15 C2.68 15 1.36 15 0 15 C0 10.05 0 5.1 0 0 Z " fill="#FFFFFF" transform="translate(118,117)"/>
<path d="M0 0 C1.32 0 2.64 0 4 0 C4 4.95 4 9.9 4 15 C2.68 15 1.36 15 0 15 C0 10.05 0 5.1 0 0 Z " fill="#FFFFFF" transform="translate(71,117)"/>
<path d="M0 0 C2.97 0 5.94 0 9 0 C9 0.99 9 1.98 9 3 C6.03 3 3.06 3 0 3 C0 2.01 0 1.02 0 0 Z " fill="#FFFFFF" transform="translate(137,123)"/>
</svg>
