<?xml version="1.0" encoding="UTF-8"?>
<svg version="1.1" xmlns="http://www.w3.org/2000/svg" width="1229" height="217">
<path d="M0 0 C12.21 0 24.42 0 37 0 C41.14948874 5.33505695 45.17336578 10.54783781 48.9375 16.125 C49.88340859 17.51350205 50.8300712 18.90149062 51.77734375 20.2890625 C52.28765137 21.03704102 52.79795898 21.78501953 53.32373047 22.55566406 C56.52349634 27.22156209 59.76472981 31.85868572 63 36.5 C67.99274965 43.6670586 72.9657811 50.84656479 77.90258789 58.05224609 C82.29979019 64.45886469 86.76255662 70.81941421 91.23095703 77.17651367 C91.79282715 77.97677979 92.35469727 78.7770459 92.93359375 79.6015625 C93.42915771 80.30619629 93.92472168 81.01083008 94.43530273 81.73681641 C96.32377149 84.46830421 98.15798272 87.23697408 100 90 C100.33 60.3 100.66 30.6 101 0 C112.88 0 124.76 0 137 0 C137 50.49 137 100.98 137 153 C125.78 153 114.56 153 103 153 C94.35377789 143.79595711 94.35377789 143.79595711 92.5859375 139.49609375 C89.98818781 133.74043547 86.59287149 128.89418399 82.875 123.8125 C81.69139175 122.13426877 80.51163254 120.4533156 79.3359375 118.76953125 C78.77100586 117.96338379 78.20607422 117.15723633 77.62402344 116.32666016 C74.7842626 112.25827158 71.98223567 108.16419555 69.17871094 104.07080078 C65.01756921 98.00461272 60.79711958 91.98050869 56.56054688 85.96679688 C50.28550664 77.03605642 44.16542879 68.0110113 38 59 C37.67 90.02 37.34 121.04 37 153 C24.79 153 12.58 153 0 153 C0 102.51 0 52.02 0 0 Z " fill="#FFFFFF" transform="translate(782,32)"/>
<path d="M0 0 C13.2825 -0.061875 26.565 -0.12375 40.25 -0.1875 C44.42172852 -0.21481201 48.59345703 -0.24212402 52.89160156 -0.27026367 C58.04248047 -0.28381348 58.04248047 -0.28381348 60.46478271 -0.28633118 C62.13261324 -0.29089468 63.80043476 -0.30135461 65.46820068 -0.31672668 C81.25745637 -0.45480164 97.16670211 0.79897178 109.34375 12.171875 C119.00342528 22.83396941 122.86240449 36.55007014 122.31640625 50.78125 C120.94670152 64.71503639 117.00469688 76.82941927 106 86 C99.71501272 91 99.71501272 91 97 91 C97.42708252 91.95962646 97.85416504 92.91925293 98.29418945 93.90795898 C112.53091046 125.90105367 112.53091046 125.90105367 119.5 141.6875 C119.96188721 142.730271 120.42377441 143.77304199 120.8996582 144.84741211 C121.3143335 145.7885083 121.72900879 146.72960449 122.15625 147.69921875 C122.51525391 148.51221436 122.87425781 149.32520996 123.24414062 150.1628418 C124 152 124 152 124 153 C111.13 153 98.26 153 85 153 C82.669375 147.410625 80.33875 141.82125 77.9375 136.0625 C77.21812256 134.33781494 76.49874512 132.61312988 75.75756836 130.83618164 C74.16764479 127.0234777 72.58183187 123.20907345 70.99676514 119.39434814 C69.98192918 116.95659175 68.96206312 114.5209781 67.94189453 112.08544922 C67.29574457 110.53489484 66.64974234 108.98427889 66.00390625 107.43359375 C65.70072983 106.71325455 65.39755341 105.99291534 65.08518982 105.25074768 C63 100.22709451 63 100.22709451 63 98 C54.42 98 45.84 98 37 98 C37 116.15 37 134.3 37 153 C24.79 153 12.58 153 0 153 C0 102.51 0 52.02 0 0 Z M37 28 C37 41.53 37 55.06 37 69 C42.115 69.0825 47.23 69.165 52.5 69.25 C54.09779297 69.28641602 55.69558594 69.32283203 57.34179688 69.36035156 C64.82437275 69.41877974 70.67983693 69.44350115 77 65 C79.07786038 63.07648216 79.07786038 63.07648216 80.4375 60.9375 C80.91058594 60.26589844 81.38367188 59.59429687 81.87109375 58.90234375 C84.9566998 53.70272387 84.41139212 47.844873 84 42 C82.0886403 35.92862214 77.55909079 32.322507 72.36206055 28.93115234 C69.0566424 27.62811722 65.88770452 27.75298446 62.390625 27.8046875 C61.42358643 27.80770874 61.42358643 27.80770874 60.43701172 27.81079102 C58.04126821 27.82121219 55.64562655 27.84913474 53.25 27.875 C47.8875 27.91625 42.525 27.9575 37 28 Z " fill="#FFFFFF" transform="translate(263,32)"/>
<path d="M0 0 C36.3 0 72.6 0 110 0 C110 10.23 110 20.46 110 31 C86.24 31 62.48 31 38 31 C38 40.9 38 50.8 38 61 C58.13 61 78.26 61 99 61 C99 70.9 99 80.8 99 91 C78.54 91 58.08 91 37 91 C37 101.23 37 111.46 37 122 C61.42 122 85.84 122 111 122 C111 132.23 111 142.46 111 153 C74.37 153 37.74 153 0 153 C0 102.51 0 52.02 0 0 Z " fill="#FFFFFF" transform="translate(609,32)"/>
<path d="M0 0 C17.14057225 -0.51165887 32.00623687 4.27532182 45.90625 14.125 C46.958125 14.8675 48.01 15.61 49.09375 16.375 C59.15439466 26.21207478 65.42052721 38.34237446 67.90625 52.125 C67.90625 53.445 67.90625 54.765 67.90625 56.125 C55.03625 56.125 42.16625 56.125 28.90625 56.125 C27.25625 51.835 25.60625 47.545 23.90625 43.125 C19.93239892 37.25453818 15.88083306 33.82562403 8.90625 32.125 C-0.43987585 31.18289338 -7.56642373 31.96652785 -15.71875 36.625 C-26.48780336 47.96084565 -27.61228633 63.74506689 -27.46875 78.625 C-27.48035156 79.82769531 -27.49195313 81.03039062 -27.50390625 82.26953125 C-27.46172155 95.3608511 -25.81780489 111.34036429 -16.1015625 121.1328125 C-8.59612337 126.99555175 -1.50343904 128.16444239 7.90625 127.125 C14.32203859 125.24058122 18.93132588 121.99492963 22.66015625 116.44921875 C24.94006257 112.1967289 26.45993231 107.71613155 27.90625 103.125 C28.40125 101.64 28.40125 101.64 28.90625 100.125 C41.77625 100.125 54.64625 100.125 67.90625 100.125 C67.22669637 106.2409827 66.51732538 111.34431038 64.65625 117.0625 C64.32028809 118.10108154 64.32028809 118.10108154 63.97753906 119.16064453 C59.18312805 133.57413684 51.27243727 144.41373811 37.90625 152.125 C19.40938384 161.20269277 -4.0370707 161.28231977 -23.34375 154.9375 C-42.53057609 147.47835188 -53.98609136 134.10318116 -62.5859375 115.98046875 C-72.05951872 93.69793304 -71.96725801 65.81785119 -63.78125 43.1875 C-56.53422733 25.89786728 -44.35196571 12.52991818 -26.9140625 5.15234375 C-18.09231299 1.93888098 -9.32291242 0.55659179 0 0 Z " fill="#FFFFFF" transform="translate(1161.09375,28.875)"/>
<path d="M0 0 C19.23598121 -0.56680608 37.12098113 5.76560948 51.18359375 18.9375 C61.54447227 29.96612744 65.51858642 41.24741935 66.87109375 56.125 C54.00109375 56.125 41.13109375 56.125 27.87109375 56.125 C26.88109375 52.825 25.89109375 49.525 24.87109375 46.125 C21.1311207 38.75191027 16.76352751 34.75581125 8.87109375 32.125 C-0.42522338 31.33622158 -8.33631788 31.45078516 -16.12890625 37.125 C-25.76526354 45.9047922 -27.61042784 59.83018924 -28.23388672 72.20947266 C-28.81642186 87.9379215 -28.50735081 106.37433954 -18.12890625 119.125 C-12.35385587 124.98476995 -7.12970462 127.39859808 1.24609375 127.5 C8.24760805 127.35678721 12.55697853 126.08451853 17.76953125 121.4296875 C23.6769585 115.27300171 26.21903495 108.38529401 27.87109375 100.125 C40.74109375 100.125 53.61109375 100.125 66.87109375 100.125 C66.2081261 107.41764415 65.65848832 113.27196765 63.37109375 120 C63.11118652 120.76739502 62.8512793 121.53479004 62.58349609 122.32543945 C57.79257544 135.60356875 49.38533163 146.12964075 36.62109375 152.375 C17.90586859 160.40498791 -4.68108118 161.87275207 -24.00390625 154.875 C-42.56426631 147.00229487 -55.72969132 133.7638369 -63.5859375 115.15234375 C-72.40663906 92.79465391 -72.82465118 63.14026719 -63.3984375 40.94140625 C-55.95152049 24.47739322 -44.32212152 11.62341048 -27.13671875 5.1171875 C-18.13878893 2.14903922 -9.43310544 0.55387041 0 0 Z " fill="#FFFFFF" transform="translate(1010.12890625,28.875)"/>
<path d="M0 0 C89.68315637 0 89.68315637 0 106.03515625 15.7734375 C116.34586608 27.45754208 119 39.82689624 119 55 C118.03819803 67.99935477 112.91413396 78.9043615 103.51171875 87.9765625 C88.92794293 99.72523416 71.40999493 100.4758155 53.5625 100.1875 C48.096875 100.125625 42.63125 100.06375 37 100 C37 117.49 37 134.98 37 153 C24.79 153 12.58 153 0 153 C0 102.51 0 52.02 0 0 Z M37 28 C37 42.52 37 57.04 37 72 C41.269375 72.061875 45.53875 72.12375 49.9375 72.1875 C51.26515381 72.21481201 52.59280762 72.24212402 53.96069336 72.27026367 C64.21838234 72.34183431 71.7831446 71.10793316 79.3359375 63.87109375 C84.08297146 58.53346636 84.60330089 52.8188961 84.4140625 45.9375 C83.57692255 39.9985449 80.37680093 36.03690757 76 32.125 C70.83160509 28.4640536 67.05417236 27.75264056 60.73046875 27.8046875 C59.48418701 27.80968262 58.23790527 27.81467773 56.95385742 27.81982422 C55.38095947 27.83803223 53.80806152 27.85624023 52.1875 27.875 C47.175625 27.91625 42.16375 27.9575 37 28 Z " fill="#FFFFFF" transform="translate(473,32)"/>
<path d="M0 0 C3.43534958 0.88508661 5.98350818 2.14058477 9.04638672 3.92456055 C10.74988281 4.90779297 10.74988281 4.90779297 12.48779297 5.91088867 C13.67673168 6.60922382 14.8655346 7.3077902 16.05419922 8.0065918 C17.74873801 8.98800396 19.44334071 9.96931743 21.14083862 10.94560242 C22.3481166 11.65174985 23.54585821 12.37441073 24.73440552 13.11164856 C28.85884178 15.63472877 32.98756069 17.60364293 37.46386719 19.44091797 C44.06669442 22.35378722 50.44464844 25.21392445 55.17919922 30.8190918 C58.1182031 39.06597953 56.77087289 48.11566581 55.92532349 56.66571045 C53.42078596 76.55421085 53.42078596 76.55421085 58.28613281 94.84594727 C64.00600953 100.44262359 70.91559137 102.60477177 78.51123047 104.6550293 C84.82996601 106.66033621 90.1460037 110.20942394 95.74169922 113.6940918 C97.7399048 114.8634617 99.7409293 116.02803711 101.74560547 117.1862793 C106.05359312 119.6934857 106.05359312 119.6934857 107.17919922 120.8190918 C107.32050624 122.78030214 107.39166671 124.74659761 107.43554688 126.71240234 C107.46452057 127.97428879 107.49349426 129.23617523 107.52334595 130.53630066 C107.61296926 135.56525207 107.68068989 140.59451211 107.72764015 145.62404156 C107.76338337 149.44294647 107.81661405 153.25974124 107.91308594 157.07763672 C108.00606816 160.76838422 108.05458404 164.45726603 108.07203293 168.14911842 C108.08610522 169.55390309 108.11569835 170.95862395 108.16133499 172.36273766 C108.49970227 183.3113186 108.49970227 183.3113186 105.33868408 186.92062378 C103.01882643 188.49758781 100.73809451 189.67793253 98.17919922 190.8190918 C96.53467773 191.80474121 96.53467773 191.80474121 94.85693359 192.81030273 C93.83921875 193.38554687 92.82150391 193.96079102 91.77294922 194.5534668 C91.20967926 194.87354202 90.6464093 195.19361725 90.06607056 195.52339172 C88.27233006 196.54199342 86.47603834 197.55596758 84.67919922 198.5690918 C82.18591394 199.97731585 79.69368289 201.38737936 77.20263672 202.79956055 C76.59451141 203.14413803 75.98638611 203.48871552 75.35983276 203.84373474 C71.79299124 205.8736266 68.27052625 207.96040514 64.78076172 210.11987305 C63.62350586 210.83095215 63.62350586 210.83095215 62.44287109 211.55639648 C61.06294584 212.41144606 59.69108702 213.27972054 58.32958984 214.16381836 C55.48032637 215.91990123 53.70124389 216.85917713 50.31762695 216.59936523 C46.98698168 215.77130282 44.5927586 214.60671516 41.64404297 212.86206055 C40.59692139 212.24903076 39.5497998 211.63600098 38.47094727 211.00439453 C36.81059448 210.01548218 36.81059448 210.01548218 35.11669922 209.0065918 C33.96221794 208.33097797 32.80701709 207.65659233 31.65112305 206.98339844 C26.067226 203.72606449 20.51307166 200.42125053 14.97607422 197.0847168 C14.02611572 196.52115479 13.07615723 195.95759277 12.09741211 195.37695312 C10.31112789 194.31700066 8.53375851 193.24184085 6.7668457 192.14990234 C5.96835205 191.6785083 5.1698584 191.20711426 4.34716797 190.72143555 C3.65905029 190.30369873 2.97093262 189.88596191 2.26196289 189.45556641 C-0.7372945 188.53901922 -2.05740493 189.41611317 -4.82080078 190.8190918 C-6.84288023 191.90276665 -8.84674683 193.02076731 -10.83642578 194.1628418 C-11.40535553 194.48857681 -11.97428528 194.81431183 -12.56045532 195.1499176 C-13.77305826 195.8449084 -14.98479962 196.54140431 -16.19573975 197.23928833 C-18.08411237 198.32675763 -19.97578856 199.40828338 -21.86816406 200.48876953 C-27.36694557 203.63496317 -32.84619872 206.80257066 -38.23486328 210.13549805 C-39.00411133 210.60729492 -39.77335937 211.0790918 -40.56591797 211.56518555 C-41.94299181 212.41630684 -43.31159611 213.28135601 -44.66943359 214.1628418 C-47.52381109 215.92266067 -49.29908991 216.85985879 -52.68896484 216.5949707 C-55.97795065 215.7801596 -58.33802866 214.65096792 -61.25048828 212.93237305 C-62.28238281 212.32989746 -63.31427734 211.72742188 -64.37744141 211.10668945 C-65.4725 210.45490723 -66.56755859 209.803125 -67.69580078 209.1315918 C-69.42544451 208.11755252 -71.15509119 207.10351823 -72.88494873 206.08984375 C-74.67116613 205.04108942 -76.4547919 203.98804978 -78.23779297 202.93383789 C-82.8544896 200.2056757 -87.48842702 197.50737792 -92.12207031 194.80810547 C-94.22568804 193.58225282 -96.32825882 192.35460147 -98.4296875 191.125 C-99.37344238 190.57287842 -100.31719727 190.02075684 -101.28955078 189.4519043 C-102.53381836 188.72318115 -102.53381836 188.72318115 -103.80322266 187.97973633 C-105.12126654 187.22151021 -106.46075768 186.49911335 -107.82080078 185.8190918 C-108.02966352 177.44805856 -108.18940374 169.07811949 -108.28711033 160.70512199 C-108.33401507 156.81671787 -108.397583 152.93010031 -108.49975586 149.04272461 C-108.59781092 145.28836775 -108.65140896 141.53572445 -108.67469597 137.7801857 C-108.69128105 136.35025166 -108.72367338 134.92040792 -108.77237129 133.49120712 C-109.13775383 122.31985323 -109.13775383 122.31985323 -105.94158936 118.67759705 C-103.63070416 117.10923036 -101.37618298 115.93638783 -98.82080078 114.8190918 C-97.8863916 114.25810791 -96.95198242 113.69712402 -95.98925781 113.11914062 C-95.19374512 112.67594482 -94.39823242 112.23274902 -93.57861328 111.77612305 C-92.65564453 111.25856445 -91.73267578 110.74100586 -90.78173828 110.20776367 C-89.84587891 109.68762695 -88.91001953 109.16749023 -87.94580078 108.6315918 C-85.07493998 107.029107 -82.21933315 105.42313907 -79.39916992 103.73242188 C-76.63249292 102.14600706 -73.83302341 101.06845005 -70.83422852 99.98974609 C-65.38284652 97.8118221 -60.40393466 95.63140593 -56.82080078 90.8190918 C-53.9099281 80.80590247 -55.86514567 69.24308475 -56.8248291 58.95294189 C-58.71155334 38.63097086 -58.71155334 38.63097086 -55.82080078 30.8190918 C-50.32705115 24.36670181 -42.48011068 21.21083315 -34.78970337 18.06777954 C-30.93613026 16.44700911 -27.44988807 14.42280345 -23.89501953 12.2409668 C-20.64918141 10.37349829 -17.4021452 8.50813117 -14.15478516 6.64331055 C-13.0996875 6.03616211 -12.04458984 5.42901367 -10.95751953 4.8034668 C-9.57632935 4.01020996 -9.57632935 4.01020996 -8.16723633 3.20092773 C-2.46358898 -0.15799891 -2.46358898 -0.15799891 0 0 Z M-7.64111328 12.9675293 C-8.21309952 13.29600357 -8.78508575 13.62447784 -9.37440491 13.96290588 C-11.23523308 15.03370215 -13.09054911 16.11366738 -14.94580078 17.1940918 C-16.2167656 17.92837406 -17.48800666 18.66217838 -18.75952148 19.39550781 C-21.88351623 21.19970118 -25.00279035 23.01185411 -28.11981201 24.82806396 C-29.6745983 25.7339115 -31.23031753 26.63815727 -32.78613281 27.54223633 C-40.73448874 31.61257045 -40.73448874 31.61257045 -47.82080078 36.8190918 C-47.91399527 38.3539215 -47.93825878 39.89301262 -47.93432617 41.43066406 C-47.93425064 42.41160538 -47.93417511 43.39254669 -47.93409729 44.4032135 C-47.928936 45.4698674 -47.92377472 46.5365213 -47.91845703 47.63549805 C-47.91704208 48.7216893 -47.91562714 49.80788055 -47.91416931 50.92698669 C-47.90855126 54.41188255 -47.89599571 57.89671521 -47.88330078 61.3815918 C-47.87828811 63.73771066 -47.8737248 66.09383053 -47.86962891 68.44995117 C-47.85857597 74.23968644 -47.84182029 80.02938461 -47.82080078 85.8190918 C-42.47119973 83.18244215 -37.15933416 80.54021757 -32.01611328 77.5144043 C-31.01966797 76.93045898 -30.02322266 76.34651367 -28.99658203 75.74487305 C-27.98982422 75.15061523 -26.98306641 74.55635742 -25.94580078 73.9440918 C-19.89111328 70.3894043 -19.89111328 70.3894043 -16.88427734 68.63256836 C-14.75280871 67.37080959 -12.6358516 66.08434593 -10.53076172 64.77905273 C-9.46889648 64.1296875 -8.40703125 63.48032227 -7.31298828 62.8112793 C-6.35505371 62.21428223 -5.39711914 61.61728516 -4.41015625 61.00219727 C-1.82080078 59.8190918 -1.82080078 59.8190918 0.19799805 59.95874023 C2.68140932 61.03718033 5.01187862 62.26069545 7.37060547 63.5925293 C8.38960937 64.16535645 9.40861328 64.73818359 10.45849609 65.32836914 C11.54195312 65.94405762 12.62541016 66.55974609 13.74169922 67.1940918 C15.40362305 68.13115967 15.40362305 68.13115967 17.09912109 69.0871582 C24.96974928 73.53503621 32.80730466 78.03988238 40.60327148 82.61743164 C43.71077722 84.81020205 43.71077722 84.81020205 47.17919922 85.8190918 C50.678013 59.00050189 50.678013 59.00050189 45.40673828 33.44799805 C40.66029842 28.69546519 34.78717877 26.85188747 28.46191406 24.96850586 C22.49465766 22.87912291 17.33195977 19.33896322 11.99169922 16.0065918 C9.98443131 14.8007588 7.97060527 13.60573791 5.94873047 12.42456055 C5.09899658 11.92077881 4.2492627 11.41699707 3.3737793 10.89794922 C-1.12842282 8.68466285 -3.60867038 10.63576036 -7.64111328 12.9675293 Z M-8.38330078 72.9440918 C-9.5519165 73.59450439 -9.5519165 73.59450439 -10.74414062 74.25805664 C-21.52469037 80.29105443 -32.16948421 86.56174845 -42.82080078 92.8190918 C-40.21222255 95.78904135 -37.17978301 97.4705413 -33.75439453 99.40112305 C-33.16086685 99.73778488 -32.56733917 100.07444672 -31.95582581 100.42131042 C-30.05922285 101.49602984 -28.15896846 102.56408029 -26.25830078 103.6315918 C-24.38900215 104.68644663 -22.52051473 105.74271089 -20.65274048 106.80026245 C-19.43398984 107.48959188 -18.2140865 108.17688747 -16.99301147 108.86209106 C-12.52063286 111.38206928 -8.17880673 114.07010514 -3.89135742 116.89208984 C-1.90142768 117.98477802 -1.90142768 117.98477802 0.11767578 117.6484375 C2.70823532 116.6062619 5.07685909 115.34558424 7.51123047 113.9753418 C8.55093994 113.39220215 9.59064941 112.8090625 10.66186523 112.20825195 C11.76071045 111.5848291 12.85955566 110.96140625 13.99169922 110.3190918 C15.10923584 109.68922363 16.22677246 109.05935547 17.37817383 108.41040039 C25.73059603 103.68534687 34.00385701 98.84393628 42.17919922 93.8190918 C38.82207409 91.01444833 35.47248453 88.72330226 31.64404297 86.61206055 C30.58636719 86.02489258 29.52869141 85.43772461 28.43896484 84.83276367 C27.34261719 84.23012695 26.24626953 83.62749023 25.11669922 83.0065918 C22.95853742 81.8136838 20.80098364 80.61967511 18.64404297 79.42456055 C17.5829834 78.83723145 16.52192383 78.24990234 15.42871094 77.64477539 C11.06376724 75.19240507 6.75240295 72.65286548 2.44702148 70.09765625 C-1.76319539 67.72399861 -4.51199553 70.78272994 -8.38330078 72.9440918 Z M-61.57080078 103.5300293 C-62.5645874 104.11115479 -63.55837402 104.69228027 -64.58227539 105.29101562 C-65.65098877 105.91903076 -66.71970215 106.5470459 -67.82080078 107.1940918 C-69.4403064 108.14288208 -69.4403064 108.14288208 -71.0925293 109.11083984 C-73.28913997 110.39820508 -75.48518523 111.68653554 -77.68066406 112.97583008 C-80.50539329 114.63394745 -83.33243699 116.2880108 -86.16064453 117.94018555 C-87.69328746 118.83716576 -89.22584594 119.73429029 -90.75830078 120.6315918 C-91.46664062 121.04521973 -92.17498047 121.45884766 -92.90478516 121.88500977 C-96.04283467 123.6067671 -96.04283467 123.6067671 -98.82080078 125.8190918 C-98.91439268 127.53774588 -98.93824689 129.26024923 -98.93432617 130.98144531 C-98.93425064 132.08251114 -98.93417511 133.18357697 -98.93409729 134.31800842 C-98.928936 135.515905 -98.92377472 136.71380157 -98.91845703 137.94799805 C-98.91704208 139.16736557 -98.91562714 140.38673309 -98.91416931 141.64305115 C-98.90855045 145.5559225 -98.89599474 149.46873761 -98.88330078 153.3815918 C-98.87828821 156.02677326 -98.87372488 158.67195563 -98.86962891 161.31713867 C-98.85857489 167.81780906 -98.84181842 174.31844641 -98.82080078 180.8190918 C-97.671521 181.45395508 -96.52224121 182.08881836 -95.33813477 182.74291992 C-86.12824891 187.83927684 -76.96333792 192.99404701 -67.88330078 198.3190918 C-66.84496094 198.92495117 -65.80662109 199.53081055 -64.73681641 200.1550293 C-57.246024 204.53560965 -57.246024 204.53560965 -53.82080078 206.8190918 C-49.49798958 206.50776123 -46.30192638 204.60404087 -42.59423828 202.4675293 C-41.71174911 201.96184921 -41.71174911 201.96184921 -40.81143188 201.44595337 C-39.56738167 200.73133348 -38.32525639 200.01335332 -37.08496094 199.29223633 C-35.22629273 198.21181638 -33.36212476 197.14149469 -31.49658203 196.07299805 C-24.14553706 191.84524822 -16.93046657 187.44503154 -9.82080078 182.8190918 C-13.37153583 179.84106918 -16.97971034 177.45287414 -21.01220703 175.17456055 C-21.59816147 174.84168533 -22.18411591 174.50881012 -22.78782654 174.16584778 C-24.65068292 173.10863611 -26.51682924 172.05740535 -28.38330078 171.0065918 C-30.22403605 169.96522257 -32.0640492 168.92258993 -33.90379333 167.87947083 C-35.59052727 166.92391241 -37.27897028 165.97137259 -38.9675293 165.01904297 C-39.53958099 164.6790477 -40.11163269 164.33905243 -40.70101929 163.98875427 C-42.94194657 162.71274502 -42.94194657 162.71274502 -45.88809204 161.45521545 C-54.18183719 157.43763101 -54.18183719 157.43763101 -55.9044342 153.07417297 C-56.30833908 149.69592188 -56.32815907 146.50449385 -56.21142578 143.10424805 C-56.21925079 141.28793129 -56.21925079 141.28793129 -56.22723389 139.43492126 C-56.23102777 135.58122535 -56.15209354 131.73433924 -56.07080078 127.8815918 C-56.05882288 125.26377256 -56.05225153 122.64592262 -56.05126953 120.02807617 C-56.03708208 113.62340163 -55.95503805 107.22231484 -55.82080078 100.8190918 C-57.86291236 100.8190918 -59.87989852 102.53888445 -61.57080078 103.5300293 Z M-47.82080078 100.8190918 C-47.82080078 117.3190918 -47.82080078 133.8190918 -47.82080078 150.8190918 C-44.04642578 152.9228418 -40.27205078 155.0265918 -36.38330078 157.1940918 C-27.7525523 162.01335451 -19.16626837 166.89247231 -10.6862793 171.97290039 C-7.92915308 173.9422651 -7.92915308 173.9422651 -4.82080078 174.8190918 C-4.49001947 167.98859904 -4.26309695 161.16017833 -4.10668945 154.32348633 C-4.0414771 152.00076151 -3.95287537 149.67856718 -3.84008789 147.35766602 C-2.67571894 134.33247229 -2.67571894 134.33247229 -7.25610352 122.76806641 C-10.0843042 121.01310061 -12.79462599 119.70022758 -15.92086792 118.56781006 C-19.20241494 117.27463058 -22.13109019 115.38784856 -25.14501953 113.57299805 C-26.36747758 112.87067242 -27.59209502 112.17209197 -28.81884766 111.47729492 C-29.42462646 111.1331958 -30.03040527 110.78909668 -30.65454102 110.43457031 C-31.26628174 110.0870874 -31.87802246 109.73960449 -32.50830078 109.3815918 C-33.78119594 108.65587097 -35.05398283 107.92996019 -36.32666016 107.20385742 C-42.01730751 103.90671975 -42.01730751 103.90671975 -47.82080078 100.8190918 Z M40.92138672 103.78393555 C39.82689209 104.41541504 38.73239746 105.04689453 37.60473633 105.69750977 C36.42112869 106.38370614 35.23761801 107.07006978 34.05419922 107.7565918 C32.86353882 108.44557985 31.67286498 109.13454468 30.48217773 109.82348633 C24.00470007 113.57594238 17.53898724 117.34774055 11.11669922 121.1940918 C10.51132324 121.55623779 9.90594727 121.91838379 9.28222656 122.29150391 C6.57826952 123.85124651 6.57826952 123.85124651 4.17919922 125.8190918 C4.08600473 127.3539215 4.06174122 128.89301262 4.06567383 130.43066406 C4.06574936 131.41160538 4.06582489 132.39254669 4.06590271 133.4032135 C4.071064 134.4698674 4.07622528 135.5365213 4.08154297 136.63549805 C4.08295792 137.7216893 4.08437286 138.80788055 4.08583069 139.92698669 C4.09144874 143.41188255 4.10400429 146.89671521 4.11669922 150.3815918 C4.12171189 152.73771066 4.1262752 155.09383053 4.13037109 157.44995117 C4.14142403 163.23968644 4.15817971 169.02938461 4.17919922 174.8190918 C16.20247652 168.46718028 16.20247652 168.46718028 27.99169922 161.6940918 C28.69746094 161.27522705 29.40322266 160.8563623 30.13037109 160.42480469 C32.14846719 159.22592427 34.16390039 158.02266583 36.17919922 156.8190918 C37.25556641 156.18100586 38.33193359 155.54291992 39.44091797 154.88549805 C43.53415312 152.65651136 43.53415312 152.65651136 47.17919922 149.8190918 C47.27239371 148.2842621 47.29665722 146.74517097 47.29272461 145.20751953 C47.29264908 144.22657822 47.29257355 143.2456369 47.29249573 142.23497009 C47.28733444 141.16831619 47.28217316 140.10166229 47.27685547 139.00268555 C47.27544052 137.91649429 47.27402557 136.83030304 47.27256775 135.7111969 C47.2669497 132.22630105 47.25439414 128.74146838 47.24169922 125.2565918 C47.23668654 122.90047293 47.23212324 120.54435306 47.22802734 118.18823242 C47.21697441 112.39849715 47.20021873 106.60879899 47.17919922 100.8190918 C45.02546936 100.8190918 42.69646408 102.75838352 40.92138672 103.78393555 Z M55.17919922 101.8190918 C55.24368004 102.78723312 55.24368004 102.78723312 55.3094635 103.77493286 C58.26900563 150.8623418 58.26900563 150.8623418 51.95214844 159.58959961 C46.32776622 164.75921957 39.69179988 166.91982918 32.40869141 168.8503418 C27.53791038 170.31142882 23.55354501 172.83682701 19.30419922 175.5690918 C17.97615186 176.36007033 16.64566441 177.14697635 15.31201172 177.9284668 C13.23927616 179.17934461 11.1935392 180.47619848 9.17919922 181.8190918 C9.17919922 182.4790918 9.17919922 183.1390918 9.17919922 183.8190918 C10.19735718 184.38454712 10.19735718 184.38454712 11.23608398 184.96142578 C14.40606657 186.72389854 17.57399725 188.49002344 20.74169922 190.2565918 C21.8809082 190.89024658 23.02011719 191.52390137 24.19384766 192.17675781 C29.18393351 194.96518948 34.15615382 197.75632806 39.00341797 200.7878418 C39.68138428 201.21137939 40.35935059 201.63491699 41.05786133 202.07128906 C42.27146345 202.8399829 43.47733709 203.62107088 44.67358398 204.41650391 C47.06696639 205.9335791 48.6060582 206.87110152 51.47949219 206.61035156 C54.73100772 205.65736171 57.33052489 204.23429479 60.26513672 202.5378418 C60.83976151 202.20804825 61.41438629 201.8782547 62.00642395 201.53846741 C63.85977605 200.47226074 65.70705738 199.39601536 67.55419922 198.3190918 C68.82126855 197.58678148 70.08860319 196.85493002 71.35620117 196.12353516 C85.54475447 188.97803968 85.54475447 188.97803968 98.17919922 179.8190918 C98.34050171 178.17567608 98.43360307 176.52550461 98.49902344 174.87548828 C98.5409079 173.82026474 98.58279236 172.7650412 98.62594604 171.67784119 C98.7762002 166.82300071 98.88358814 161.96821816 98.96875 157.11181641 C99.02545359 154.55351238 99.1072599 151.99563465 99.21484375 149.43896484 C100.38353778 136.32107828 100.38353778 136.32107828 97.09469604 123.98809814 C94.2743485 121.13758271 90.81829091 119.79777434 87.078125 118.5317688 C83.76930911 117.2899525 80.86203832 115.37259095 77.85498047 113.5378418 C76.63279747 112.83050765 75.40817864 112.12736548 74.18115234 111.4284668 C71.67520131 109.99668523 69.17311502 108.55850202 66.67333984 107.1159668 C65.46329297 106.42284003 64.25301564 105.7301154 63.04248047 105.0378418 C61.96264893 104.41844727 60.88281738 103.79905273 59.77026367 103.16088867 C57.3695145 101.66580744 57.3695145 101.66580744 55.17919922 101.8190918 Z " fill="#FFFFFF" transform="translate(107.82080078125,0.180908203125)"/>
<path d="M0 0 C12.21 0 24.42 0 37 0 C37 50.49 37 100.98 37 153 C24.79 153 12.58 153 0 153 C0 102.51 0 52.02 0 0 Z " fill="#FFFFFF" transform="translate(409,32)"/>
</svg>
